<svg width="219" height="16" viewBox="0 0 219 16" fill="none" xmlns="http://www.w3.org/2000/svg">
<path d="M0 2C0 0.895431 0.895431 0 2 0H25C26.1046 0 27 0.895431 27 2V14C27 15.1046 26.1046 16 25 16H2C0.895431 16 0 15.1046 0 14V2Z" fill="#FFE9D5"/>
<path d="M5.77 12H4.93V5.02H7.71C8.32333 5.02 8.8 5.19 9.14 5.53C9.48667 5.87 9.66 6.36 9.66 7C9.66 7.51333 9.54 7.93667 9.3 8.27C9.06667 8.59667 8.72 8.81333 8.26 8.92L9.86 12H8.91L7.4 9H5.77V12ZM7.71 8.28C8.04333 8.28 8.3 8.19333 8.48 8.02C8.66667 7.84667 8.76 7.6 8.76 7.28V6.76C8.76 6.44 8.66667 6.19333 8.48 6.02C8.3 5.84667 8.04333 5.76 7.71 5.76H5.77V8.28H7.71ZM11.2765 12V11.26H13.2265V5.64H13.1565L11.3965 7.28L10.9065 6.75L12.7565 5.02H14.0665V11.26H15.8665V12H11.2765ZM19.4026 12.12C19.0426 12.12 18.7159 12.06 18.4226 11.94C18.1359 11.8133 17.8892 11.6367 17.6826 11.41C17.4826 11.1767 17.3292 10.8933 17.2226 10.56C17.1159 10.2267 17.0626 9.85333 17.0626 9.44C17.0626 8.92 17.1392 8.43333 17.2926 7.98C17.4459 7.52 17.6426 7.10333 17.8826 6.73C18.1292 6.35 18.3992 6.01667 18.6926 5.73C18.9859 5.43667 19.2726 5.2 19.5526 5.02H20.6326C20.2592 5.29333 19.9259 5.56 19.6326 5.82C19.3392 6.08 19.0826 6.35333 18.8626 6.64C18.6426 6.92 18.4559 7.22333 18.3026 7.55C18.1492 7.87 18.0259 8.23333 17.9326 8.64L17.9826 8.66C18.1492 8.37333 18.3626 8.13667 18.6226 7.95C18.8892 7.75667 19.2359 7.66 19.6626 7.66C19.9626 7.66 20.2392 7.71 20.4926 7.81C20.7459 7.91 20.9626 8.05333 21.1426 8.24C21.3226 8.42667 21.4626 8.65333 21.5626 8.92C21.6692 9.18667 21.7226 9.48333 21.7226 9.81C21.7226 10.15 21.6659 10.4633 21.5526 10.75C21.4459 11.03 21.2892 11.2733 21.0826 11.48C20.8826 11.68 20.6392 11.8367 20.3526 11.95C20.0659 12.0633 19.7492 12.12 19.4026 12.12ZM19.3926 11.39C19.8526 11.39 20.2092 11.2633 20.4626 11.01C20.7226 10.7567 20.8526 10.3933 20.8526 9.92V9.84C20.8526 9.36667 20.7226 9.00333 20.4626 8.75C20.2092 8.49667 19.8526 8.37 19.3926 8.37C18.9326 8.37 18.5726 8.49667 18.3126 8.75C18.0592 9.00333 17.9326 9.36667 17.9326 9.84V9.92C17.9326 10.3933 18.0592 10.7567 18.3126 11.01C18.5726 11.2633 18.9326 11.39 19.3926 11.39Z" fill="#FF7E00"/>
<path d="M35 2C35 0.895431 35.8954 0 37 0H72C73.1046 0 74 0.895431 74 2V14C74 15.1046 73.1046 16 72 16H37C35.8954 16 35 15.1046 35 14V2Z" fill="#FFE9D5"/>
<path d="M44.33 7.58C44.33 8.1 44.2533 8.59 44.1 9.05C43.9467 9.50333 43.7467 9.92 43.5 10.3C43.26 10.6733 42.9933 11.0067 42.7 11.3C42.4067 11.5867 42.12 11.82 41.84 12H40.76C41.1333 11.7267 41.4667 11.46 41.76 11.2C42.0533 10.94 42.31 10.67 42.53 10.39C42.75 10.1033 42.9367 9.8 43.09 9.48C43.2433 9.15333 43.3667 8.78667 43.46 8.38L43.41 8.36C43.2433 8.64667 43.0267 8.88667 42.76 9.08C42.5 9.26667 42.1567 9.36 41.73 9.36C41.43 9.36 41.1533 9.31 40.9 9.21C40.6467 9.11 40.43 8.96667 40.25 8.78C40.07 8.59333 39.9267 8.37 39.82 8.11C39.72 7.84333 39.67 7.54333 39.67 7.21C39.67 6.87 39.7233 6.56 39.83 6.28C39.9433 5.99333 40.1 5.75 40.3 5.55C40.5067 5.34333 40.75 5.18333 41.03 5.07C41.3167 4.95667 41.6367 4.9 41.99 4.9C42.35 4.9 42.6733 4.96333 42.96 5.09C43.2533 5.21 43.5 5.38667 43.7 5.62C43.9067 5.84667 44.0633 6.12667 44.17 6.46C44.2767 6.79333 44.33 7.16667 44.33 7.58ZM42 8.65C42.46 8.65 42.8167 8.52333 43.07 8.27C43.33 8.01667 43.46 7.65333 43.46 7.18V7.1C43.46 6.62667 43.33 6.26333 43.07 6.01C42.8167 5.75667 42.46 5.63 42 5.63C41.54 5.63 41.18 5.75667 40.92 6.01C40.6667 6.26333 40.54 6.62667 40.54 7.1V7.18C40.54 7.65333 40.6667 8.01667 40.92 8.27C41.18 8.52333 41.54 8.65 42 8.65ZM46.3561 12.12C46.1428 12.12 45.9861 12.0667 45.8861 11.96C45.7928 11.8533 45.7461 11.7133 45.7461 11.54V11.41C45.7461 11.2367 45.7928 11.0967 45.8861 10.99C45.9861 10.8833 46.1428 10.83 46.3561 10.83C46.5694 10.83 46.7228 10.8833 46.8161 10.99C46.9161 11.0967 46.9661 11.2367 46.9661 11.41V11.54C46.9661 11.7133 46.9161 11.8533 46.8161 11.96C46.7228 12.0667 46.5694 12.12 46.3561 12.12ZM52.7007 5.76H49.6407L49.4407 8.42H49.5107C49.6774 8.18667 49.864 8 50.0707 7.86C50.284 7.72 50.574 7.65 50.9407 7.65C51.2407 7.65 51.5174 7.7 51.7707 7.8C52.024 7.9 52.244 8.04333 52.4307 8.23C52.6174 8.41 52.7607 8.63333 52.8607 8.9C52.9674 9.16667 53.0207 9.47 53.0207 9.81C53.0207 10.15 52.9674 10.4633 52.8607 10.75C52.754 11.03 52.5974 11.2733 52.3907 11.48C52.1907 11.68 51.944 11.8367 51.6507 11.95C51.364 12.0633 51.0374 12.12 50.6707 12.12C50.3774 12.12 50.1174 12.0867 49.8907 12.02C49.6707 11.9533 49.474 11.8633 49.3007 11.75C49.1274 11.6367 48.974 11.51 48.8407 11.37C48.714 11.23 48.5974 11.0833 48.4907 10.93L49.1207 10.45C49.2074 10.59 49.2974 10.7167 49.3907 10.83C49.4907 10.9433 49.5974 11.04 49.7107 11.12C49.8307 11.2 49.9674 11.2633 50.1207 11.31C50.274 11.35 50.4574 11.37 50.6707 11.37C51.1507 11.37 51.514 11.2433 51.7607 10.99C52.0074 10.7367 52.1307 10.38 52.1307 9.92V9.82C52.1307 9.36 52.0074 9.00333 51.7607 8.75C51.514 8.49667 51.1507 8.37 50.6707 8.37C50.3507 8.37 50.0974 8.43 49.9107 8.55C49.7307 8.66333 49.5674 8.8 49.4207 8.96L48.7107 8.86L48.9607 5.02H52.7007V5.76ZM53.8068 13.51L56.4168 4.6H57.1368L54.5268 13.51H53.8068ZM62.8749 12H58.2949V11.14L60.5749 9.04C60.9016 8.74 61.1749 8.42333 61.3949 8.09C61.6149 7.75 61.7249 7.41 61.7249 7.07V6.95C61.7249 6.56333 61.6183 6.25 61.4049 6.01C61.1916 5.77 60.8683 5.65 60.4349 5.65C60.2216 5.65 60.0349 5.68 59.8749 5.74C59.7149 5.8 59.5749 5.88333 59.4549 5.99C59.3416 6.09667 59.2449 6.22333 59.1649 6.37C59.0916 6.51 59.0316 6.66333 58.9849 6.83L58.2349 6.54C58.3016 6.33333 58.3916 6.13333 58.5049 5.94C58.6249 5.74 58.7716 5.56333 58.9449 5.41C59.1249 5.25667 59.3383 5.13333 59.5849 5.04C59.8383 4.94667 60.1349 4.9 60.4749 4.9C60.8149 4.9 61.1183 4.95 61.3849 5.05C61.6516 5.15 61.8749 5.29 62.0549 5.47C62.2349 5.65 62.3716 5.86333 62.4649 6.11C62.5649 6.35667 62.6149 6.63 62.6149 6.93C62.6149 7.20333 62.5749 7.45667 62.4949 7.69C62.4216 7.92333 62.3183 8.14667 62.1849 8.36C62.0516 8.56667 61.8883 8.77 61.6949 8.97C61.5083 9.17 61.3049 9.37 61.0849 9.57L59.2049 11.26H62.8749V12ZM68.871 12H64.291V11.14L66.571 9.04C66.8977 8.74 67.171 8.42333 67.391 8.09C67.611 7.75 67.721 7.41 67.721 7.07V6.95C67.721 6.56333 67.6143 6.25 67.401 6.01C67.1877 5.77 66.8643 5.65 66.431 5.65C66.2177 5.65 66.031 5.68 65.871 5.74C65.711 5.8 65.571 5.88333 65.451 5.99C65.3377 6.09667 65.241 6.22333 65.161 6.37C65.0877 6.51 65.0277 6.66333 64.981 6.83L64.231 6.54C64.2977 6.33333 64.3877 6.13333 64.501 5.94C64.621 5.74 64.7677 5.56333 64.941 5.41C65.121 5.25667 65.3343 5.13333 65.581 5.04C65.8343 4.94667 66.131 4.9 66.471 4.9C66.811 4.9 67.1143 4.95 67.381 5.05C67.6477 5.15 67.871 5.29 68.051 5.47C68.231 5.65 68.3677 5.86333 68.461 6.11C68.561 6.35667 68.611 6.63 68.611 6.93C68.611 7.20333 68.571 7.45667 68.491 7.69C68.4177 7.92333 68.3143 8.14667 68.181 8.36C68.0477 8.56667 67.8843 8.77 67.691 8.97C67.5043 9.17 67.301 9.37 67.081 9.57L65.201 11.26H68.871V12Z" fill="#FF7E00"/>
<path d="M82 2C82 0.895431 82.8954 0 84 0H118C119.105 0 120 0.895431 120 2V14C120 15.1046 119.105 16 118 16H84C82.8954 16 82 15.1046 82 14V2Z" fill="#FFE9D5"/>
<path d="M90.98 5.76H87.92L87.72 8.42H87.79C87.9567 8.18667 88.1433 8 88.35 7.86C88.5633 7.72 88.8533 7.65 89.22 7.65C89.52 7.65 89.7967 7.7 90.05 7.8C90.3033 7.9 90.5233 8.04333 90.71 8.23C90.8967 8.41 91.04 8.63333 91.14 8.9C91.2467 9.16667 91.3 9.47 91.3 9.81C91.3 10.15 91.2467 10.4633 91.14 10.75C91.0333 11.03 90.8767 11.2733 90.67 11.48C90.47 11.68 90.2233 11.8367 89.93 11.95C89.6433 12.0633 89.3167 12.12 88.95 12.12C88.6567 12.12 88.3967 12.0867 88.17 12.02C87.95 11.9533 87.7533 11.8633 87.58 11.75C87.4067 11.6367 87.2533 11.51 87.12 11.37C86.9933 11.23 86.8767 11.0833 86.77 10.93L87.4 10.45C87.4867 10.59 87.5767 10.7167 87.67 10.83C87.77 10.9433 87.8767 11.04 87.99 11.12C88.11 11.2 88.2467 11.2633 88.4 11.31C88.5533 11.35 88.7367 11.37 88.95 11.37C89.43 11.37 89.7933 11.2433 90.04 10.99C90.2867 10.7367 90.41 10.38 90.41 9.92V9.82C90.41 9.36 90.2867 9.00333 90.04 8.75C89.7933 8.49667 89.43 8.37 88.95 8.37C88.63 8.37 88.3767 8.43 88.19 8.55C88.01 8.66333 87.8467 8.8 87.7 8.96L86.99 8.86L87.24 5.02H90.98V5.76ZM94.9961 9.44L93.4061 11.07L92.9161 10.58L94.5061 8.95L92.9161 7.32L93.4061 6.83L94.9961 8.46L96.5861 6.83L97.0761 7.32L95.4861 8.95L97.0761 10.58L96.5861 11.07L94.9961 9.44ZM98.8722 12V11.26H100.822V5.64H100.752L98.9922 7.28L98.5022 6.75L100.352 5.02H101.662V11.26H103.462V12H98.8722ZM104.868 12V11.26H106.818V5.64H106.748L104.988 7.28L104.498 6.75L106.348 5.02H107.658V11.26H109.458V12H104.868ZM115.314 12H110.734V11.14L113.014 9.04C113.341 8.74 113.614 8.42333 113.834 8.09C114.054 7.75 114.164 7.41 114.164 7.07V6.95C114.164 6.56333 114.058 6.25 113.844 6.01C113.631 5.77 113.308 5.65 112.874 5.65C112.661 5.65 112.474 5.68 112.314 5.74C112.154 5.8 112.014 5.88333 111.894 5.99C111.781 6.09667 111.684 6.22333 111.604 6.37C111.531 6.51 111.471 6.66333 111.424 6.83L110.674 6.54C110.741 6.33333 110.831 6.13333 110.944 5.94C111.064 5.74 111.211 5.56333 111.384 5.41C111.564 5.25667 111.778 5.13333 112.024 5.04C112.278 4.94667 112.574 4.9 112.914 4.9C113.254 4.9 113.558 4.95 113.824 5.05C114.091 5.15 114.314 5.29 114.494 5.47C114.674 5.65 114.811 5.86333 114.904 6.11C115.004 6.35667 115.054 6.63 115.054 6.93C115.054 7.20333 115.014 7.45667 114.934 7.69C114.861 7.92333 114.758 8.14667 114.624 8.36C114.491 8.56667 114.328 8.77 114.134 8.97C113.948 9.17 113.744 9.37 113.524 9.57L111.644 11.26H115.314V12Z" fill="#FF7E00"/>
<path d="M128 2C128 0.895431 128.895 0 130 0H160C161.105 0 162 0.895431 162 2V14C162 15.1046 161.105 16 160 16H130C128.895 16 128 15.1046 128 14V2Z" fill="#FFE9D5"/>
<path d="M132.93 12V5.02H137.19V5.76H133.77V8.1H136.99V8.84H133.77V11.26H137.19V12H132.93ZM141.11 5.76V12H140.27V5.76H138.05V5.02H143.33V5.76H141.11ZM148.526 7.98C148.999 7.98 149.353 7.87333 149.586 7.66C149.826 7.44 149.946 7.16 149.946 6.82V6.75C149.946 6.38333 149.829 6.11 149.596 5.93C149.369 5.74333 149.069 5.65 148.696 5.65C148.336 5.65 148.043 5.73 147.816 5.89C147.589 6.04333 147.403 6.25333 147.256 6.52L146.636 6.04C146.723 5.9 146.826 5.76333 146.946 5.63C147.073 5.49 147.219 5.36667 147.386 5.26C147.553 5.15333 147.746 5.06667 147.966 5C148.186 4.93333 148.436 4.9 148.716 4.9C149.009 4.9 149.286 4.94 149.546 5.02C149.806 5.09333 150.029 5.20667 150.216 5.36C150.409 5.50667 150.559 5.69 150.666 5.91C150.779 6.13 150.836 6.38 150.836 6.66C150.836 6.88667 150.799 7.09 150.726 7.27C150.659 7.45 150.566 7.60667 150.446 7.74C150.326 7.87333 150.183 7.98667 150.016 8.08C149.856 8.17333 149.683 8.24333 149.496 8.29V8.33C149.683 8.37 149.863 8.43667 150.036 8.53C150.216 8.61667 150.373 8.73333 150.506 8.88C150.646 9.02 150.756 9.19333 150.836 9.4C150.923 9.6 150.966 9.83 150.966 10.09C150.966 10.39 150.909 10.6667 150.796 10.92C150.683 11.1667 150.523 11.38 150.316 11.56C150.109 11.7333 149.859 11.87 149.566 11.97C149.273 12.07 148.949 12.12 148.596 12.12C148.296 12.12 148.029 12.0867 147.796 12.02C147.563 11.9533 147.356 11.8633 147.176 11.75C146.996 11.6367 146.836 11.51 146.696 11.37C146.563 11.23 146.443 11.0833 146.336 10.93L146.966 10.45C147.053 10.59 147.146 10.7167 147.246 10.83C147.353 10.9433 147.469 11.04 147.596 11.12C147.723 11.2 147.866 11.2633 148.026 11.31C148.186 11.35 148.373 11.37 148.586 11.37C149.079 11.37 149.453 11.26 149.706 11.04C149.959 10.8133 150.086 10.4933 150.086 10.08V10C150.086 9.58667 149.959 9.27 149.706 9.05C149.453 8.82333 149.079 8.71 148.586 8.71H147.766V7.98H148.526ZM153.662 12L156.332 5.74H153.352V7.04H152.602V5.02H157.182V5.76L154.562 12H153.662Z" fill="#FF7E00"/>
<path d="M170 2C170 0.895431 170.895 0 172 0H217C218.105 0 219 0.895431 219 2V14C219 15.1046 218.105 16 217 16H172C170.895 16 170 15.1046 170 14V2Z" fill="#FFE9D5"/>
<path d="M174.93 5.02H177.27C177.703 5.02 178.097 5.09333 178.45 5.24C178.803 5.38667 179.103 5.60667 179.35 5.9C179.603 6.18667 179.797 6.55 179.93 6.99C180.063 7.42333 180.13 7.93 180.13 8.51C180.13 9.09 180.063 9.6 179.93 10.04C179.797 10.4733 179.603 10.8367 179.35 11.13C179.103 11.4167 178.803 11.6333 178.45 11.78C178.097 11.9267 177.703 12 177.27 12H174.93V5.02ZM177.27 11.26C177.557 11.26 177.82 11.2133 178.06 11.12C178.3 11.02 178.507 10.8767 178.68 10.69C178.853 10.5033 178.987 10.2767 179.08 10.01C179.18 9.73667 179.23 9.42667 179.23 9.08V7.94C179.23 7.59333 179.18 7.28667 179.08 7.02C178.987 6.74667 178.853 6.51667 178.68 6.33C178.507 6.14333 178.3 6.00333 178.06 5.91C177.82 5.81 177.557 5.76 177.27 5.76H175.77V11.26H177.27ZM181.309 12V11.3H182.289V5.72H181.309V5.02H184.109V5.72H183.129V11.3H184.109V12H181.309ZM190.013 12L189.313 9.94H186.493L185.793 12H184.943L187.383 5.02H188.453L190.893 12H190.013ZM187.923 5.8H187.873L186.693 9.2H189.103L187.923 5.8ZM196.492 12.12C196.132 12.12 195.806 12.06 195.512 11.94C195.226 11.8133 194.979 11.6367 194.772 11.41C194.572 11.1767 194.419 10.8933 194.312 10.56C194.206 10.2267 194.152 9.85333 194.152 9.44C194.152 8.92 194.229 8.43333 194.382 7.98C194.536 7.52 194.732 7.10333 194.972 6.73C195.219 6.35 195.489 6.01667 195.782 5.73C196.076 5.43667 196.362 5.2 196.642 5.02H197.722C197.349 5.29333 197.016 5.56 196.722 5.82C196.429 6.08 196.172 6.35333 195.952 6.64C195.732 6.92 195.546 7.22333 195.392 7.55C195.239 7.87 195.116 8.23333 195.022 8.64L195.072 8.66C195.239 8.37333 195.452 8.13667 195.712 7.95C195.979 7.75667 196.326 7.66 196.752 7.66C197.052 7.66 197.329 7.71 197.582 7.81C197.836 7.91 198.052 8.05333 198.232 8.24C198.412 8.42667 198.552 8.65333 198.652 8.92C198.759 9.18667 198.812 9.48333 198.812 9.81C198.812 10.15 198.756 10.4633 198.642 10.75C198.536 11.03 198.379 11.2733 198.172 11.48C197.972 11.68 197.729 11.8367 197.442 11.95C197.156 12.0633 196.839 12.12 196.492 12.12ZM196.482 11.39C196.942 11.39 197.299 11.2633 197.552 11.01C197.812 10.7567 197.942 10.3933 197.942 9.92V9.84C197.942 9.36667 197.812 9.00333 197.552 8.75C197.299 8.49667 196.942 8.37 196.482 8.37C196.022 8.37 195.662 8.49667 195.402 8.75C195.149 9.00333 195.022 9.36667 195.022 9.84V9.92C195.022 10.3933 195.149 10.7567 195.402 11.01C195.662 11.2633 196.022 11.39 196.482 11.39ZM202.489 12.12C202.129 12.12 201.802 12.06 201.509 11.94C201.222 11.8133 200.975 11.6367 200.769 11.41C200.569 11.1767 200.415 10.8933 200.309 10.56C200.202 10.2267 200.149 9.85333 200.149 9.44C200.149 8.92 200.225 8.43333 200.379 7.98C200.532 7.52 200.729 7.10333 200.969 6.73C201.215 6.35 201.485 6.01667 201.779 5.73C202.072 5.43667 202.359 5.2 202.639 5.02H203.719C203.345 5.29333 203.012 5.56 202.719 5.82C202.425 6.08 202.169 6.35333 201.949 6.64C201.729 6.92 201.542 7.22333 201.389 7.55C201.235 7.87 201.112 8.23333 201.019 8.64L201.069 8.66C201.235 8.37333 201.449 8.13667 201.709 7.95C201.975 7.75667 202.322 7.66 202.749 7.66C203.049 7.66 203.325 7.71 203.579 7.81C203.832 7.91 204.049 8.05333 204.229 8.24C204.409 8.42667 204.549 8.65333 204.649 8.92C204.755 9.18667 204.809 9.48333 204.809 9.81C204.809 10.15 204.752 10.4633 204.639 10.75C204.532 11.03 204.375 11.2733 204.169 11.48C203.969 11.68 203.725 11.8367 203.439 11.95C203.152 12.0633 202.835 12.12 202.489 12.12ZM202.479 11.39C202.939 11.39 203.295 11.2633 203.549 11.01C203.809 10.7567 203.939 10.3933 203.939 9.92V9.84C203.939 9.36667 203.809 9.00333 203.549 8.75C203.295 8.49667 202.939 8.37 202.479 8.37C202.019 8.37 201.659 8.49667 201.399 8.75C201.145 9.00333 201.019 9.36667 201.019 9.84V9.92C201.019 10.3933 201.145 10.7567 201.399 11.01C201.659 11.2633 202.019 11.39 202.479 11.39ZM206.835 12.12C206.621 12.12 206.465 12.0667 206.365 11.96C206.271 11.8533 206.225 11.7133 206.225 11.54V11.41C206.225 11.2367 206.271 11.0967 206.365 10.99C206.465 10.8833 206.621 10.83 206.835 10.83C207.048 10.83 207.201 10.8833 207.295 10.99C207.395 11.0967 207.445 11.2367 207.445 11.41V11.54C207.445 11.7133 207.395 11.8533 207.295 11.96C207.201 12.0667 207.048 12.12 206.835 12.12ZM211.209 12.12C210.849 12.12 210.523 12.06 210.229 11.94C209.943 11.8133 209.696 11.6367 209.489 11.41C209.289 11.1767 209.136 10.8933 209.029 10.56C208.923 10.2267 208.869 9.85333 208.869 9.44C208.869 8.92 208.946 8.43333 209.099 7.98C209.253 7.52 209.449 7.10333 209.689 6.73C209.936 6.35 210.206 6.01667 210.499 5.73C210.793 5.43667 211.079 5.2 211.359 5.02H212.439C212.066 5.29333 211.733 5.56 211.439 5.82C211.146 6.08 210.889 6.35333 210.669 6.64C210.449 6.92 210.263 7.22333 210.109 7.55C209.956 7.87 209.833 8.23333 209.739 8.64L209.789 8.66C209.956 8.37333 210.169 8.13667 210.429 7.95C210.696 7.75667 211.043 7.66 211.469 7.66C211.769 7.66 212.046 7.71 212.299 7.81C212.553 7.91 212.769 8.05333 212.949 8.24C213.129 8.42667 213.269 8.65333 213.369 8.92C213.476 9.18667 213.529 9.48333 213.529 9.81C213.529 10.15 213.473 10.4633 213.359 10.75C213.253 11.03 213.096 11.2733 212.889 11.48C212.689 11.68 212.446 11.8367 212.159 11.95C211.873 12.0633 211.556 12.12 211.209 12.12ZM211.199 11.39C211.659 11.39 212.016 11.2633 212.269 11.01C212.529 10.7567 212.659 10.3933 212.659 9.92V9.84C212.659 9.36667 212.529 9.00333 212.269 8.75C212.016 8.49667 211.659 8.37 211.199 8.37C210.739 8.37 210.379 8.49667 210.119 8.75C209.866 9.00333 209.739 9.36667 209.739 9.84V9.92C209.739 10.3933 209.866 10.7567 210.119 11.01C210.379 11.2633 210.739 11.39 211.199 11.39Z" fill="#FF7E00"/>
</svg>
