<svg width="83" height="16" viewBox="0 0 83 16" fill="none" xmlns="http://www.w3.org/2000/svg">
<path d="M0 2C0 0.895431 0.895431 0 2 0H36C37.1046 0 38 0.895431 38 2V14C38 15.1046 37.1046 16 36 16H2C0.89543 16 0 15.1046 0 14V2Z" fill="#FFE9D5"/>
<path d="M4.1 11.26H4.83C5.13 10.8333 5.36 10.2867 5.52 9.62C5.68 8.95333 5.76 8.10333 5.76 7.07V5.02H9.96V11.26H10.94V13.5H10.17V12H4.87V13.5H4.1V11.26ZM9.12 11.26V5.76H6.56V7.13C6.56 8.19 6.49 9.04667 6.35 9.7C6.21667 10.3467 6.03667 10.85 5.81 11.21V11.26H9.12ZM12.1059 6.84H12.8859V9.7L12.8059 10.94H12.8459L13.4859 9.84L15.5459 6.84H16.2859V12H15.5059V9.14L15.5859 7.9H15.5459L14.9059 9L12.8459 12H12.1059V6.84ZM19.9048 12.12C19.5448 12.12 19.2214 12.0567 18.9348 11.93C18.6481 11.8033 18.4048 11.6233 18.2048 11.39C18.0114 11.1567 17.8614 10.8733 17.7548 10.54C17.6548 10.2067 17.6048 9.83333 17.6048 9.42C17.6048 9.00667 17.6548 8.63333 17.7548 8.3C17.8614 7.96667 18.0114 7.68333 18.2048 7.45C18.4048 7.21667 18.6481 7.03667 18.9348 6.91C19.2214 6.78333 19.5448 6.72 19.9048 6.72C20.4181 6.72 20.8281 6.83333 21.1348 7.06C21.4481 7.28 21.6814 7.57 21.8348 7.93L21.1648 8.27C21.0714 8.00333 20.9181 7.79667 20.7048 7.65C20.4914 7.50333 20.2248 7.43 19.9048 7.43C19.6648 7.43 19.4548 7.47 19.2748 7.55C19.0948 7.62333 18.9448 7.73 18.8248 7.87C18.7048 8.00333 18.6148 8.16667 18.5548 8.36C18.4948 8.54667 18.4648 8.75333 18.4648 8.98V9.86C18.4648 10.3133 18.5848 10.6867 18.8248 10.98C19.0714 11.2667 19.4314 11.41 19.9048 11.41C20.5514 11.41 21.0181 11.11 21.3048 10.51L21.8848 10.9C21.7181 11.2733 21.4681 11.57 21.1348 11.79C20.8081 12.01 20.3981 12.12 19.9048 12.12ZM23.0141 6.84H23.8141V9H24.8441L25.8441 7.42C25.9174 7.3 25.9874 7.20333 26.0541 7.13C26.1207 7.05 26.1874 6.99 26.2541 6.95C26.3207 6.91 26.3907 6.88333 26.4641 6.87C26.5374 6.85 26.6207 6.84 26.7141 6.84H27.1841V7.54H26.5641L25.7541 8.82C25.7007 8.90667 25.6541 8.97667 25.6141 9.03C25.5741 9.08333 25.5341 9.13 25.4941 9.17C25.4541 9.20333 25.4107 9.23333 25.3641 9.26C25.3174 9.28 25.2607 9.3 25.1941 9.32V9.36C25.3341 9.38 25.4541 9.42667 25.5541 9.5C25.6607 9.56667 25.7707 9.7 25.8841 9.9L26.6741 11.3H27.2641V12H26.6841C26.5107 12 26.3507 11.9567 26.2041 11.87C26.0641 11.7767 25.9274 11.61 25.7941 11.37L24.8441 9.68H23.8141V12H23.0141V6.84ZM28.5121 6.84H29.2921V9.7L29.2121 10.94H29.2521L29.8921 9.84L31.9521 6.84H32.6921V12H31.9121V9.14L31.9921 7.9H31.9521L31.3121 9L29.2521 12H28.5121V6.84Z" fill="#FF7E00"/>
<path d="M46 2C46 0.895431 46.8954 0 48 0H81C82.1046 0 83 0.895431 83 2V14C83 15.1046 82.1046 16 81 16H48C46.8954 16 46 15.1046 46 14V2Z" fill="#FFE9D5"/>
<path d="M50.93 5.02H51.77V11.26H54.36V5.02H55.2V11.26H57.79V5.02H58.63V12H50.93V5.02ZM60.4105 6.84H61.1905V9.7L61.1105 10.94H61.1505L61.7905 9.84L63.8505 6.84H64.5905V12H63.8105V9.14L63.8905 7.9H63.8505L63.2105 9L61.1505 12H60.4105V6.84ZM66.2895 6.84H67.0895V8.99H69.6695V6.84H70.4695V12H69.6695V9.69H67.0895V12H66.2895V6.84ZM72.1684 6.84H72.9684V8.71H74.3384C74.8584 8.71 75.2717 8.85667 75.5784 9.15C75.885 9.44333 76.0384 9.84667 76.0384 10.36C76.0384 10.88 75.8884 11.2833 75.5884 11.57C75.2884 11.8567 74.875 12 74.3484 12H72.1684V6.84ZM74.2284 11.3C74.5284 11.3 74.7617 11.2433 74.9284 11.13C75.095 11.0167 75.1784 10.8267 75.1784 10.56V10.14C75.1784 9.87333 75.095 9.68667 74.9284 9.58C74.7617 9.46667 74.5284 9.41 74.2284 9.41H72.9684V11.3H74.2284ZM76.9084 6.84H77.7084V12H76.9084V6.84Z" fill="#FF7E00"/>
</svg>
