<svg width="40" height="40" viewBox="0 0 40 40" fill="none" xmlns="http://www.w3.org/2000/svg">
<path d="M0 2C0 0.895431 0.895431 0 2 0H38C39.1046 0 40 0.895431 40 2V38C40 39.1046 39.1046 40 38 40H2C0.895431 40 0 39.1046 0 38V2Z" fill="white"/>
<path d="M20.4469 15.2242L20.4471 15.2239L20.4472 15.2236L20.4529 15.2128C20.4585 15.2022 20.4679 15.185 20.481 15.1621C20.5072 15.1163 20.5481 15.048 20.6035 14.9648C20.715 14.7977 20.8822 14.5749 21.1036 14.3536C21.5491 13.9081 22.1794 13.5 23 13.5C23.9257 13.5 24.7979 13.7324 25.4299 14.2591C26.0459 14.7725 26.5 15.6202 26.5 17C26.5 19.7174 25.1976 22.5325 20 26.3799C14.8024 22.5325 13.5 19.7174 13.5 17C13.5 15.6202 13.9541 14.7725 14.5701 14.2591C15.2021 13.7324 16.0743 13.5 17 13.5C17.8206 13.5 18.4509 13.9081 18.8964 14.3536C19.1178 14.5749 19.285 14.7977 19.3965 14.9648C19.4519 15.048 19.4928 15.1163 19.519 15.1621C19.5321 15.185 19.5415 15.2022 19.5471 15.2128L19.5528 15.2236L19.5531 15.2242L19.5533 15.2246L19.5533 15.2247L19.5535 15.225L20 16.118L20.4465 15.225L20.4467 15.2247L20.4467 15.2246L20.4469 15.2242Z" stroke="#FF7E00"/>
<path d="M2 1H38V-1H2V1ZM39 2V38H41V2H39ZM38 39H2V41H38V39ZM1 38V2H-1V38H1ZM2 39C1.44772 39 1 38.5523 1 38H-1C-1 39.6569 0.343147 41 2 41V39ZM39 38C39 38.5523 38.5523 39 38 39V41C39.6569 41 41 39.6569 41 38H39ZM38 1C38.5523 1 39 1.44772 39 2H41C41 0.343146 39.6569 -1 38 -1V1ZM2 -1C0.343146 -1 -1 0.343147 -1 2H1C1 1.44772 1.44772 1 2 1V-1Z" fill="#EFD8C3"/>
</svg>
