<svg width="40" height="16" viewBox="0 0 40 16" fill="none" xmlns="http://www.w3.org/2000/svg">
<path fill-rule="evenodd" clip-rule="evenodd" d="M7.5 3V1H8.5V3H7.5ZM4.35355 3.64645L2.35355 1.64645L1.64645 2.35356L3.64645 4.35356L4.35355 3.64645ZM14.3536 13.6465L12.3536 11.6465L11.6464 12.3536L13.6464 14.3536L14.3536 13.6465ZM8 11C9.65685 11 11 9.65685 11 8C11 6.34315 9.65685 5 8 5C6.34315 5 5 6.34315 5 8C5 9.65685 6.34315 11 8 11ZM8 12C10.2091 12 12 10.2091 12 8C12 5.79086 10.2091 4 8 4C5.79086 4 4 5.79086 4 8C4 10.2091 5.79086 12 8 12ZM13.6464 1.64645L11.6464 3.64645L12.3536 4.35356L14.3536 2.35356L13.6464 1.64645ZM3.64645 11.6465L1.64645 13.6465L2.35355 14.3536L4.35355 12.3536L3.64645 11.6465ZM7.5 13V15H8.5V13H7.5ZM3 8.5H1V7.5H3L3 8.5ZM13 8.5H15V7.5H13V8.5Z" fill="#1A1E29"/>
<path fill-rule="evenodd" clip-rule="evenodd" d="M32 1C29.6245 1 26 2 26 2V11C26 13.6197 32 15 32 15C32 15 38 13.6197 38 11V2C38 2 34.3755 1 32 1ZM27 2.77594C27.3512 2.69017 27.805 2.58457 28.3127 2.47908C29.5039 2.23153 30.9202 2 32 2C33.0798 2 34.4961 2.23153 35.6873 2.47908C36.195 2.58457 36.6488 2.69017 37 2.77594V11C37 11.2457 36.8613 11.5729 36.3998 11.9813C35.9459 12.383 35.2997 12.7521 34.5909 13.0699C33.8922 13.3832 33.1852 13.6235 32.6477 13.7863C32.3804 13.8672 32.1585 13.9279 32.0051 13.968L32 13.9694L31.9949 13.968C31.8415 13.9279 31.6196 13.8672 31.3523 13.7863C30.8148 13.6235 30.1078 13.3832 29.4091 13.0699C28.7003 12.7521 28.0541 12.383 27.6002 11.9813C27.1387 11.5729 27 11.2457 27 11L27 2.77594ZM35 6L34.2929 5.29289L31 8.58579L29.7071 7.29289L29 8L31 10L35 6Z" fill="#1A1E29"/>
</svg>
