<svg width="32" height="32" viewBox="0 0 32 32" fill="none" xmlns="http://www.w3.org/2000/svg">
<path fill-rule="evenodd" clip-rule="evenodd" d="M1.07481 32V21.7772C0.380691 19.9852 0 18.0371 0 16C0 7.16344 7.16344 0 16 0C24.8366 0 32 7.16344 32 16C32 18.0371 31.6193 19.9852 30.9252 21.7772V32H16H1.07481ZM7.87623 21.1053H11.5058L12.4889 20.2935C12.7526 20.0757 12.9148 19.4666 12.9066 19.1882C12.9001 18.9654 12.7326 18.7089 12.6496 18.6084C12.5667 18.5079 12.3464 18.2949 12.1289 18.2464C11.8571 18.1858 11.2282 18.2299 10.9645 18.4477L9.70259 19.4899C9.30404 19.819 8.54413 20.4993 7.87623 21.1053ZM15.4137 20.4214C15.3488 20.4922 15.1762 20.7496 14.9479 21.1053H17.0032C16.775 20.7496 16.6023 20.4922 16.5374 20.4214C16.5193 20.4016 16.502 20.3827 16.4856 20.3647C16.2582 20.1155 16.1806 20.0305 15.9756 20.0305C15.7706 20.0305 15.693 20.1155 15.4656 20.3647L15.465 20.3653C15.4487 20.3832 15.4316 20.4018 15.4137 20.4214ZM20.422 21.1053H24.0516C23.3837 20.4993 22.6238 19.819 22.2252 19.4899L20.9633 18.4477C20.6996 18.2299 20.0708 18.1858 19.7989 18.2464C19.5815 18.2949 19.3612 18.5079 19.2782 18.6084C19.1953 18.7089 19.0277 18.9654 19.0212 19.1882C19.013 19.4666 19.1753 20.0757 19.4389 20.2935L20.422 21.1053ZM13.1176 5.52061C13.8015 6.64427 15.1988 8.9258 15.4137 9.16031C15.4229 9.17027 15.4318 9.18001 15.4405 9.18953C15.449 9.1989 15.4574 9.20805 15.4656 9.21698C15.693 9.46617 15.7706 9.55114 15.9756 9.55114C16.1806 9.55114 16.2582 9.46617 16.4856 9.21698L16.4858 9.21679L16.4863 9.21621L16.4864 9.21615C16.5026 9.19838 16.5196 9.17977 16.5374 9.16031C16.7524 8.9258 18.1496 6.64427 18.8336 5.52061C18.4818 5.38382 17.2947 5.1542 15.9756 5.1542C14.6565 5.1542 13.4693 5.38382 13.1176 5.52061ZM11.2599 6.17988L10.316 6.64065C10.6686 7.47429 11.4616 9.32159 11.8131 10.0416L12.531 11.5124C12.6811 11.8197 13.2354 12.1199 13.5079 12.1772C13.726 12.2229 14.0147 12.1201 14.1317 12.0629C14.2488 12.0058 14.5075 11.8415 14.6055 11.6414C14.7281 11.3913 14.8323 10.7696 14.6823 10.4622L13.9644 8.99147C13.6129 8.27146 12.6442 6.50989 12.2039 5.71911L11.2599 6.17988ZM5.39758 13.5269L5.16257 14.5507C6.03254 14.8005 7.96771 15.345 8.74862 15.5243L10.3438 15.8905C10.6771 15.967 11.259 15.7246 11.4749 15.5486C11.6476 15.4078 11.749 15.1186 11.7782 14.9917C11.8073 14.8647 11.8421 14.5602 11.7482 14.3582C11.6307 14.1057 11.2127 13.6338 10.8794 13.5573L9.28424 13.1911C8.50333 13.0118 6.52444 12.6578 5.6326 12.5032L5.39758 13.5269ZM26.7674 14.5507L26.5324 13.5269L26.2974 12.5032C25.4055 12.6578 23.4266 13.0118 22.6457 13.1911L21.0506 13.5573C20.7173 13.6338 20.2993 14.1057 20.1818 14.3582C20.0878 14.5602 20.1226 14.8647 20.1518 14.9917C20.1809 15.1186 20.2824 15.4078 20.4551 15.5486C20.6709 15.7246 21.2529 15.967 21.5862 15.8905L23.1813 15.5243C23.9623 15.345 25.8974 14.8005 26.7674 14.5507ZM20.6558 6.17988L21.5997 6.64065C21.2472 7.47429 20.4542 9.32159 20.1027 10.0416L19.3847 11.5124C19.2347 11.8197 18.6804 12.1199 18.4078 12.1772C18.1898 12.2229 17.9011 12.1201 17.784 12.0629C17.667 12.0058 17.4083 11.8415 17.3102 11.6414C17.1877 11.3913 17.0834 10.7696 17.2335 10.4622L17.9514 8.99147C18.3029 8.27146 19.2715 6.50989 19.7119 5.71911L20.6558 6.17988ZM6.00232 11.6321C7.30714 11.799 9.96181 12.1313 10.2792 12.1097C10.3049 12.108 10.3295 12.1064 10.353 12.1048L10.3542 12.1047L10.3553 12.1047L10.3558 12.1046C10.6925 12.0825 10.8073 12.0749 10.9352 11.9147C11.0632 11.7545 11.0452 11.6409 10.9925 11.3077C10.9886 11.2836 10.9847 11.2583 10.9805 11.2318C10.9315 10.9175 10.0209 8.40181 9.56988 7.16609C9.24346 7.35555 8.3231 8.1398 7.49982 9.17042C6.67653 10.201 6.11498 11.2719 6.00232 11.6321ZM21.6534 12.1097C21.9708 12.1313 24.6255 11.799 25.9303 11.6321C25.8176 11.2719 25.2561 10.201 24.4328 9.17042C23.6095 8.1398 22.6891 7.35555 22.3627 7.16609C21.9117 8.40181 21.0011 10.9175 20.9521 11.2318C20.9503 11.2435 20.9485 11.255 20.9467 11.2662C20.9447 11.2785 20.9428 11.2905 20.941 11.3022L20.9408 11.3036L20.9404 11.3057L20.9401 11.3077C20.8874 11.6409 20.8694 11.7545 20.9974 11.9147C21.1253 12.0749 21.2401 12.0825 21.5768 12.1046C21.6011 12.1062 21.6266 12.1079 21.6534 12.1097ZM26.8354 15.4387C25.5934 15.8721 23.0698 16.7604 22.7955 16.9215C22.7723 16.9351 22.7503 16.948 22.7292 16.9603C22.4379 17.1305 22.3385 17.1885 22.2956 17.389C22.2527 17.5895 22.3195 17.6831 22.5155 17.9577L22.5168 17.9595C22.5306 17.9788 22.545 17.999 22.5601 18.0202C22.7444 18.2796 24.6826 20.1237 25.6381 21.0279C25.8455 20.7126 26.3187 19.5998 26.595 18.31C26.8713 17.0202 26.8955 15.8113 26.8354 15.4387ZM9.13714 16.9215C8.86281 16.7604 6.33922 15.8721 5.09722 15.4387C5.03714 15.8113 5.06129 17.0202 5.33759 18.31C5.61389 19.5998 6.08709 20.7126 6.29453 21.0279C7.25 20.1237 9.18823 18.2796 9.37251 18.0202C9.37761 18.0131 9.38264 18.006 9.3876 17.999C9.39745 17.9852 9.407 17.9718 9.41626 17.9589L9.41708 17.9577C9.6131 17.6831 9.67994 17.5895 9.63699 17.389C9.59405 17.1885 9.49472 17.1305 9.20341 16.9603L9.17975 16.9465C9.16596 16.9384 9.15176 16.9301 9.13714 16.9215ZM17.9298 15.9756C17.9298 17.0548 17.0548 17.9298 15.9756 17.9298C14.8963 17.9298 14.0214 17.0548 14.0214 15.9756C14.0214 14.8963 14.8963 14.0214 15.9756 14.0214C17.0548 14.0214 17.9298 14.8963 17.9298 15.9756ZM26.3817 22.2779H26.7237C26.7237 22.3593 26.7872 22.5221 27.0412 22.5221C27.2953 22.5221 27.3262 22.3593 27.3099 22.2779H27.6519C27.6682 22.457 27.5689 22.8153 27.0412 22.8153C26.5136 22.8153 26.3817 22.457 26.3817 22.2779ZM25.8931 23.0595H25.4046V25.6489H25.7954H25.8931H26.0886L28.1893 23.5969H28.2382V25.6489H28.7267V23.0595H28.4092H28.2382H28.1405L26.0397 25.1115H25.8931V23.0595ZM8.3542 23.0595H8.84275V25.1115H8.94046L11.0412 23.0595H11.2366H11.3099H11.7252V25.6489H11.2366V23.5969H11.0901L8.98931 25.6489H8.84275H8.69618H8.3542V23.0595ZM25.3802 28.0427H25.8931V27.945C25.8931 27.7292 26.0681 27.5542 26.284 27.5542H28.2382C28.427 27.5542 28.5802 27.7073 28.5802 27.8962V28.0427C28.5802 28.2316 28.427 28.3847 28.2382 28.3847H26.2351V28.8733H28.2382C28.427 28.8733 28.5802 29.0264 28.5802 29.2153V29.4107C28.5802 29.5996 28.427 29.7527 28.2382 29.7527H26.284C26.0681 29.7527 25.8931 29.5777 25.8931 29.3618V29.2397H25.3802V29.5573C25.3802 29.908 25.6645 30.1924 26.0153 30.1924H28.5069C28.8576 30.1924 29.142 29.908 29.142 29.5573V29.1664C29.142 28.6779 28.5802 28.6046 28.5802 28.6046C28.5802 28.6046 29.142 28.5069 29.142 28.0427V27.7008C29.142 27.35 28.8576 27.0656 28.5069 27.0656H26.0153C25.6645 27.0656 25.3802 27.35 25.3802 27.7008V28.0427ZM7.32824 27.5542H6.88855V30.1924H7.23053H7.32824H9.91756V29.8015H7.32824V29.0687H9.91756V28.6779H7.32824V27.945H9.91756V27.5542H7.32824ZM2.73588 27.5542H3.17557V29.8015H5.56947V27.5542H6.00916V29.8015H6.30229V30.0458V30.1924V30.5832H5.81374V30.1924H5.56947H3.17557H2.9313H2.73588V27.5542ZM12.8977 23.0595H12.4092V25.6489H12.8977V24.5252H15.2427V25.6489H15.7313V23.0595H15.2427V24.1344H12.8977V23.0595ZM10.6504 27.5542H11.1389V28.629H13.484V27.5542H13.9725V30.1924H13.484V29.0687H11.1389V30.1924H10.6504V27.5542ZM14.6076 27.945V27.5542H15.9756H16.4641H17.9298V27.945H16.4641V30.1924H15.9756V27.945H14.6076ZM16.4153 23.0595H16.9038V24.1344H19.2489V23.0595H19.7374V25.6489H19.2489V24.5252H16.9038V25.6489H16.4153V23.0595ZM24.6718 23.0595H24.1832V25.6489H24.6718V23.0595ZM3.17557 23.0595H3.61527V25.258H5.17863V23.0595H5.61832V25.258H7.18168V23.0595H7.62137V25.6489H7.27939H7.18168H5.61832H5.17863H3.61527H3.17557V25.258V23.0595ZM20.9099 23.0595H20.4214V25.6489H20.9099V25.6391C20.9415 25.6455 20.9742 25.6489 21.0076 25.6489H23.1573C23.4271 25.6489 23.6458 25.4301 23.6458 25.1603V24.0855C23.6458 23.8157 23.4271 23.5969 23.1573 23.5969H21.0076C20.9742 23.5969 20.9415 23.6003 20.9099 23.6067V23.0595ZM20.9099 23.9878V25.258H22.9618C23.0698 25.258 23.1573 25.1705 23.1573 25.0626V24.1832C23.1573 24.0753 23.0698 23.9878 22.9618 23.9878H20.9099ZM18.5649 30.1924H19.0534V29.5963C19.085 29.6027 19.1177 29.6061 19.1511 29.6061H21.3008C21.5706 29.6061 21.7893 29.3874 21.7893 29.1176V28.0427C21.7893 27.7729 21.5706 27.5542 21.3008 27.5542H19.1511C19.1177 27.5542 19.085 27.5576 19.0534 27.564V27.5542H18.5649V30.1924ZM19.0534 27.945V29.2153H21.1053C21.2133 29.2153 21.3008 29.1278 21.3008 29.0198V28.1405C21.3008 28.0325 21.2133 27.945 21.1053 27.945H19.0534ZM24.6229 27.1145H23.3038V27.5542H24.0855V30.1924H24.6229V27.5542V27.2611V27.1145Z" fill="#FF7E00"/>
</svg>
