<svg width="112" height="120" viewBox="0 0 112 120" fill="none" xmlns="http://www.w3.org/2000/svg">
<path d="M0 0H112V120H0V0Z" fill="#1A1E29"/>
<path fill-rule="evenodd" clip-rule="evenodd" d="M18.687 96V70.4431C16.9517 65.9631 16 61.0927 16 56C16 33.9086 33.9086 16 56 16C78.0914 16 96 33.9086 96 56C96 61.0927 95.0483 65.9631 93.313 70.4431V96H56H18.687ZM35.6906 68.7634H44.7646L47.2222 66.7337C47.8814 66.1893 48.287 64.6664 48.2666 63.9704C48.2503 63.4136 47.8314 62.7721 47.624 62.521C47.4166 62.2699 46.8659 61.7373 46.3222 61.616C45.6427 61.4645 44.0705 61.5748 43.4113 62.1192L40.2565 64.7246C39.2601 65.5475 37.3603 67.2483 35.6906 68.7634ZM54.5344 67.0534C54.3721 67.2304 53.9404 67.8739 53.3698 68.7634H58.5081C57.9374 67.8739 57.5058 67.2304 57.3435 67.0534C57.2982 67.004 57.2551 66.9568 57.214 66.9117C56.6454 66.2888 56.4515 66.0763 55.9389 66.0763C55.4264 66.0763 55.2325 66.2888 54.6639 66.9117L54.6624 66.9134C54.6217 66.9579 54.5791 67.0046 54.5344 67.0534ZM67.055 68.7634H76.129C74.4592 67.2483 72.5595 65.5475 71.5631 64.7246L68.4083 62.1192C67.7491 61.5748 66.1769 61.4645 65.4973 61.616C64.9537 61.7373 64.4029 62.2699 64.1955 62.521C63.9882 62.7721 63.5693 63.4136 63.553 63.9704C63.5326 64.6664 63.9381 66.1893 64.5974 66.7337L67.055 68.7634ZM48.7939 29.8015C50.5038 32.6107 53.997 38.3145 54.5344 38.9008C54.5572 38.9257 54.5795 38.95 54.6012 38.9738C54.6226 38.9972 54.6435 39.0201 54.6639 39.0425C55.2325 39.6654 55.4264 39.8779 55.9389 39.8779C56.4515 39.8779 56.6454 39.6654 57.214 39.0425L57.2144 39.042L57.2158 39.0405L57.2159 39.0404C57.2564 38.996 57.2989 38.9494 57.3435 38.9008C57.8809 38.3145 61.3741 32.6107 63.084 29.8015C62.2046 29.4595 59.2366 28.8855 55.9389 28.8855C52.6412 28.8855 49.6733 29.4595 48.7939 29.8015ZM44.1499 31.4497L41.7901 32.6016C42.6715 34.6857 44.654 39.304 45.5327 41.104L47.3276 44.7809C47.7026 45.5492 49.0884 46.2999 49.7698 46.4429C50.315 46.5574 51.0366 46.3002 51.3293 46.1573C51.622 46.0145 52.2687 45.6037 52.5138 45.1035C52.8202 44.4782 53.0808 42.9239 52.7057 42.1556L50.9109 38.4787C50.0322 36.6786 47.6106 32.2747 46.5097 30.2978L44.1499 31.4497ZM29.494 49.8173L28.9064 52.3766C31.0813 53.0012 35.9193 54.3625 37.8715 54.8107L41.8594 55.7262C42.6927 55.9174 44.1476 55.3116 44.6872 54.8715C45.1189 54.5195 45.3726 53.7966 45.4454 53.4792C45.5183 53.1617 45.6053 52.4006 45.3704 51.8955C45.0767 51.2642 44.0318 50.0844 43.1985 49.8931L39.2106 48.9777C37.2583 48.5295 32.3111 47.6444 30.0815 47.2579L29.494 49.8173ZM82.9185 52.3766L82.3309 49.8173L81.7434 47.2579C79.5138 47.6444 74.5666 48.5295 72.6143 48.9777L68.6264 49.8931C67.7931 50.0844 66.7482 51.2642 66.4545 51.8955C66.2196 52.4006 66.3066 53.1617 66.3795 53.4792C66.4523 53.7966 66.706 54.5195 67.1377 54.8715C67.6773 55.3116 69.1322 55.9174 69.9655 55.7262L73.9534 54.8107C75.9056 54.3625 80.7436 53.0012 82.9185 52.3766ZM67.6396 31.4497L69.9994 32.6016C69.1179 34.6857 67.1354 39.304 66.2567 41.104L64.4618 44.7809C64.0868 45.5492 62.701 46.2999 62.0196 46.4429C61.4744 46.5574 60.7528 46.3002 60.4601 46.1573C60.1674 46.0145 59.5207 45.6037 59.2756 45.1035C58.9692 44.4782 58.7086 42.9239 59.0837 42.1556L60.8785 38.4787C61.7572 36.6786 64.1788 32.2747 65.2797 30.2978L67.6396 31.4497ZM31.0058 45.0803C34.2679 45.4976 40.9045 46.3283 41.698 46.2743C41.7623 46.27 41.8237 46.2659 41.8825 46.262L41.8854 46.2619L41.8883 46.2617L41.8896 46.2616C42.7312 46.2061 43.0182 46.1872 43.3381 45.7868C43.658 45.3863 43.613 45.1022 43.4812 44.2691C43.4716 44.2089 43.4616 44.1458 43.4513 44.0795C43.3286 43.2937 41.0523 37.0045 39.9247 33.9152C39.1087 34.3889 36.8078 36.3495 34.7495 38.9261C32.6913 41.5026 31.2874 44.1798 31.0058 45.0803ZM70.1335 46.2743C70.927 46.3283 77.5636 45.4976 80.8257 45.0803C80.544 44.1798 79.1402 41.5026 77.082 38.9261C75.0237 36.3495 72.7228 34.3889 71.9068 33.9152C70.7792 37.0045 68.5028 43.2937 68.3802 44.0795C68.3756 44.1088 68.3711 44.1375 68.3667 44.1656C68.3619 44.1963 68.3571 44.2263 68.3525 44.2556L68.3519 44.2591L68.3511 44.2643L68.3503 44.2691C68.2185 45.1022 68.1735 45.3863 68.4934 45.7868C68.8133 46.1872 69.1003 46.2061 69.9419 46.2616C70.0028 46.2656 70.0666 46.2698 70.1335 46.2743ZM83.0884 54.5966C79.9834 55.6802 73.6745 57.9011 72.9886 58.3038C72.9308 58.3377 72.8756 58.37 72.823 58.4007C72.0947 58.8263 71.8464 58.9713 71.739 59.4725C71.6316 59.9737 71.7988 60.2078 72.2888 60.8943L72.2919 60.8987C72.3264 60.947 72.3625 60.9976 72.4002 61.0506C72.8609 61.6989 77.7065 66.3093 80.0952 68.5697C80.6138 67.7815 81.7968 64.9996 82.4875 61.775C83.1783 58.5505 83.2386 55.5281 83.0884 54.5966ZM38.8428 58.3038C38.157 57.9011 31.8481 55.6802 28.743 54.5966C28.5928 55.5281 28.6532 58.5505 29.344 61.775C30.0347 64.9996 31.2177 67.7815 31.7363 68.5697C34.125 66.3093 38.9706 61.6989 39.4313 61.0506C39.444 61.0326 39.4566 61.015 39.469 60.9976C39.4936 60.963 39.5175 60.9296 39.5407 60.8971L39.5427 60.8943C40.0327 60.2078 40.1998 59.9737 40.0925 59.4725C39.9851 58.9713 39.7368 58.8263 39.0085 58.4007L38.9494 58.3662C38.9149 58.346 38.8794 58.3252 38.8428 58.3038ZM60.8244 55.9389C60.8244 58.6371 58.6371 60.8244 55.9389 60.8244C53.2408 60.8244 51.0534 58.6371 51.0534 55.9389C51.0534 53.2407 53.2408 51.0534 55.9389 51.0534C58.6371 51.0534 60.8244 53.2407 60.8244 55.9389ZM81.9542 71.6947H82.8092C82.8092 71.8982 82.9679 72.3053 83.6031 72.3053C84.2382 72.3053 84.3155 71.8982 84.2748 71.6947H85.1298C85.1705 72.1425 84.9221 73.0382 83.6031 73.0382C82.284 73.0382 81.9542 72.1425 81.9542 71.6947ZM80.7328 73.6489H79.5115V80.1221H80.4885H80.7328H81.2214L86.4733 74.9924H86.5954V80.1221H87.8168V73.6489H87.0229H86.5954H86.3511L81.0992 78.7786H80.7328V73.6489ZM36.8855 73.6489H38.1069V78.7786H38.3511L43.6031 73.6489H44.0916H44.2748H45.313V80.1221H44.0916V74.9924H43.7252L38.4733 80.1221H38.1069H37.7405H36.8855V73.6489ZM79.4504 86.1069H80.7328V85.8626C80.7328 85.323 81.1703 84.8855 81.7099 84.8855H86.5954C87.0676 84.8855 87.4504 85.2683 87.4504 85.7405V86.1069C87.4504 86.579 87.0676 86.9618 86.5954 86.9618H81.5878V88.1832H86.5954C87.0676 88.1832 87.4504 88.566 87.4504 89.0382V89.5267C87.4504 89.9989 87.0676 90.3817 86.5954 90.3817H81.7099C81.1703 90.3817 80.7328 89.9442 80.7328 89.4046V89.0992H79.4504V89.8931C79.4504 90.77 80.1613 91.4809 81.0382 91.4809H87.2672C88.1441 91.4809 88.855 90.7701 88.855 89.8932V88.916C88.855 87.6947 87.4504 87.5115 87.4504 87.5115C87.4504 87.5115 88.855 87.2672 88.855 86.1069V85.2519C88.855 84.375 88.1441 83.6641 87.2672 83.6641H81.0382C80.1613 83.6641 79.4504 84.375 79.4504 85.2519V86.1069ZM34.3206 84.8855H33.2214V91.4809H34.0763H34.3206H40.7939V90.5038H34.3206V88.6718H40.7939V87.6947H34.3206V85.8626H40.7939V84.8855H34.3206ZM22.8397 84.8855H23.9389V90.5038H29.9237V84.8855H31.0229V90.5038H31.7557V91.1145V91.4809V92.458H30.5344V91.4809H29.9237H23.9389H23.3282H22.8397V84.8855ZM48.2443 73.6489H47.0229V80.1221H48.2443V77.313H54.1069V80.1221H55.3282V73.6489H54.1069V76.3359H48.2443V73.6489ZM42.626 84.8855H43.8473V87.5725H49.7099V84.8855H50.9313V91.4809H49.7099V88.6718H43.8473V91.4809H42.626V84.8855ZM52.5191 85.8626V84.8855H55.9389H57.1603H60.8244V85.8626H57.1603V91.4809H55.9389V85.8626H52.5191ZM57.0382 73.6489H58.2595V76.3359H64.1221V73.6489H65.3435V80.1221H64.1221V77.313H58.2595V80.1221H57.0382V73.6489ZM77.6794 73.6489H76.458V80.1221H77.6794V73.6489ZM23.9389 73.6489H25.0382V79.145H28.9466V73.6489H30.0458V79.145H33.9542V73.6489H35.0534V80.1221H34.1985H33.9542H30.0458H28.9466H25.0382H23.9389V79.145V73.6489ZM68.2748 73.6489H67.0534V80.1221H68.2748V80.0977C68.3537 80.1137 68.4354 80.1221 68.5191 80.1221H73.8931C74.5677 80.1221 75.1145 79.5753 75.1145 78.9008V76.2137C75.1145 75.5392 74.5677 74.9924 73.8931 74.9924H68.5191C68.4354 74.9924 68.3537 75.0008 68.2748 75.0168V73.6489ZM68.2748 75.9695V79.145H73.4046C73.6744 79.145 73.8931 78.9263 73.8931 78.6565V76.458C73.8931 76.1882 73.6744 75.9695 73.4046 75.9695H68.2748ZM62.4122 91.4809H63.6336V89.9908C63.7125 90.0069 63.7942 90.0153 63.8779 90.0153H69.2519C69.9265 90.0153 70.4733 89.4684 70.4733 88.7939V86.1069C70.4733 85.4323 69.9265 84.8855 69.2519 84.8855H63.8779C63.7942 84.8855 63.7125 84.8939 63.6336 84.9099V84.8855H62.4122V91.4809ZM63.6336 85.8626V89.0382H68.7634C69.0332 89.0382 69.2519 88.8194 69.2519 88.5496V86.3511C69.2519 86.0813 69.0332 85.8626 68.7634 85.8626H63.6336ZM77.5573 83.7863H74.2595V84.8855H76.2137V91.4809H77.5573V84.8855V84.1527V83.7863Z" fill="#FF7E00"/>
</svg>
