<svg width="141" height="16" viewBox="0 0 141 16" fill="none" xmlns="http://www.w3.org/2000/svg">
<path d="M5 5H11V6H5V5Z" fill="#6A6A6A"/>
<path d="M11 8H5V9H11V8Z" fill="#6A6A6A"/>
<path fill-rule="evenodd" clip-rule="evenodd" d="M5 12H15V2H1V15L5 12ZM2 13L4.66667 11H14V3H2V13Z" fill="#6A6A6A"/>
<path d="M27.462 13H21.05V11.796L24.242 8.856C24.6993 8.436 25.082 7.99267 25.39 7.526C25.698 7.05 25.852 6.574 25.852 6.098V5.93C25.852 5.38867 25.7027 4.95 25.404 4.614C25.1053 4.278 24.6527 4.11 24.046 4.11C23.7473 4.11 23.486 4.152 23.262 4.236C23.038 4.32 22.842 4.43667 22.674 4.586C22.5153 4.73533 22.38 4.91267 22.268 5.118C22.1653 5.314 22.0813 5.52867 22.016 5.762L20.966 5.356C21.0593 5.06667 21.1853 4.78667 21.344 4.516C21.512 4.236 21.7173 3.98867 21.96 3.774C22.212 3.55933 22.5107 3.38667 22.856 3.256C23.2107 3.12533 23.626 3.06 24.102 3.06C24.578 3.06 25.0027 3.13 25.376 3.27C25.7493 3.41 26.062 3.606 26.314 3.858C26.566 4.11 26.7573 4.40867 26.888 4.754C27.028 5.09933 27.098 5.482 27.098 5.902C27.098 6.28467 27.042 6.63933 26.93 6.966C26.8273 7.29267 26.6827 7.60533 26.496 7.904C26.3093 8.19333 26.0807 8.478 25.81 8.758C25.5487 9.038 25.264 9.318 24.956 9.598L22.324 11.964H27.462V13Z" fill="#6A6A6A"/>
<path fill-rule="evenodd" clip-rule="evenodd" d="M55.5863 5.44033L53.0001 1L50.4138 5.44033L45.3916 6.52786L48.8154 10.3597L48.2978 15.4721L53.0001 13.4L57.7023 15.4721L57.1847 10.3597L60.6085 6.52786L55.5863 5.44033Z" fill="#EFD8C3"/>
<path fill-rule="evenodd" clip-rule="evenodd" d="M75.5863 5.44033L73.0001 1L70.4138 5.44033L65.3916 6.52786L68.8154 10.3597L68.2978 15.4721L73.0001 13.4L77.7023 15.4721L77.1847 10.3597L80.6085 6.52786L75.5863 5.44033Z" fill="#EFD8C3"/>
<path fill-rule="evenodd" clip-rule="evenodd" d="M95.5863 5.44033L93.0001 1L90.4138 5.44033L85.3916 6.52786L88.8154 10.3597L88.2978 15.4721L93.0001 13.4L97.7023 15.4721L97.1847 10.3597L100.609 6.52786L95.5863 5.44033Z" fill="#EFD8C3"/>
<path fill-rule="evenodd" clip-rule="evenodd" d="M115.586 5.44033L113 1L110.414 5.44033L105.392 6.52786L108.815 10.3597L108.298 15.4721L113 13.4L117.702 15.4721L117.185 10.3597L120.609 6.52786L115.586 5.44033Z" fill="#EFD8C3"/>
<path fill-rule="evenodd" clip-rule="evenodd" d="M135.586 5.44033L133 1L130.414 5.44033L125.392 6.52786L128.815 10.3597L128.298 15.4721L133 13.4L137.702 15.4721L137.185 10.3597L140.609 6.52786L135.586 5.44033ZM138.719 7.14185L134.944 6.32441L133 2.98689V12.3072L136.534 13.8647L136.145 10.022L138.719 7.14185Z" fill="#EFD8C3"/>
</svg>
