<svg width="376" height="48" viewBox="0 0 376 48" fill="none" xmlns="http://www.w3.org/2000/svg">
<rect width="156" height="48" fill="#FF7E00"/>
<rect width="156" height="47" fill="white"/>
<path d="M24.352 29.5L23.344 26.476H19.168L18.192 29.5H16.352L20.16 18.332H22.432L26.24 29.5H24.352ZM21.296 19.996H21.216L19.6 24.924H22.896L21.296 19.996ZM27.8418 21.18H32.2738C32.9884 21.18 33.5378 21.372 33.9218 21.756C34.3164 22.14 34.5138 22.652 34.5138 23.292C34.5138 24.3373 33.9538 24.9293 32.8338 25.068V25.148C33.5058 25.2013 34.0018 25.3987 34.3218 25.74C34.6524 26.0707 34.8177 26.508 34.8177 27.052C34.8177 27.404 34.7591 27.7293 34.6418 28.028C34.5351 28.3267 34.3751 28.588 34.1618 28.812C33.9591 29.0253 33.7084 29.196 33.4098 29.324C33.1111 29.4413 32.7751 29.5 32.4018 29.5H27.8418V21.18ZM32.0018 28.172C32.3111 28.172 32.5564 28.092 32.7378 27.932C32.9191 27.772 33.0098 27.5373 33.0098 27.228V26.796C33.0098 26.4867 32.9191 26.252 32.7378 26.092C32.5564 25.9213 32.3111 25.836 32.0018 25.836H29.5538V28.172H32.0018ZM31.7778 24.636C32.0764 24.636 32.3058 24.5613 32.4658 24.412C32.6258 24.2627 32.7058 24.0493 32.7058 23.772V23.372C32.7058 23.0947 32.6258 22.8813 32.4658 22.732C32.3058 22.5827 32.0764 22.508 31.7778 22.508H29.5538V24.636H31.7778ZM38.4916 22.604H35.8356V21.18H42.8916V22.604H40.2356V29.5H38.4916V22.604ZM47.5745 29.692C46.9985 29.692 46.4705 29.5907 45.9905 29.388C45.5212 29.1853 45.1212 28.8973 44.7905 28.524C44.4598 28.14 44.2038 27.6813 44.0225 27.148C43.8412 26.604 43.7505 26.0013 43.7505 25.34C43.7505 24.6787 43.8412 24.0813 44.0225 23.548C44.2038 23.004 44.4598 22.5453 44.7905 22.172C45.1212 21.788 45.5212 21.4947 45.9905 21.292C46.4705 21.0893 46.9985 20.988 47.5745 20.988C48.1505 20.988 48.6732 21.0893 49.1425 21.292C49.6225 21.4947 50.0278 21.788 50.3585 22.172C50.6892 22.5453 50.9452 23.004 51.1265 23.548C51.3078 24.0813 51.3985 24.6787 51.3985 25.34C51.3985 26.0013 51.3078 26.604 51.1265 27.148C50.9452 27.6813 50.6892 28.14 50.3585 28.524C50.0278 28.8973 49.6225 29.1853 49.1425 29.388C48.6732 29.5907 48.1505 29.692 47.5745 29.692ZM47.5745 28.252C48.1718 28.252 48.6518 28.0707 49.0145 27.708C49.3772 27.3347 49.5585 26.78 49.5585 26.044V24.636C49.5585 23.9 49.3772 23.3507 49.0145 22.988C48.6518 22.6147 48.1718 22.428 47.5745 22.428C46.9772 22.428 46.4972 22.6147 46.1345 22.988C45.7718 23.3507 45.5905 23.9 45.5905 24.636V26.044C45.5905 26.78 45.7718 27.3347 46.1345 27.708C46.4972 28.0707 46.9772 28.252 47.5745 28.252ZM53.3418 21.18H55.4538L57.8058 25.116H57.8378L60.1898 21.18H62.2058V29.5H60.4938V23.324H60.4298L59.8858 24.348L57.7738 27.868L55.6618 24.348L55.1178 23.324H55.0538V29.5H53.3418V21.18ZM67.9651 29.692C67.3891 29.692 66.8611 29.5907 66.3811 29.388C65.9118 29.1853 65.5118 28.8973 65.1811 28.524C64.8505 28.14 64.5945 27.6813 64.4131 27.148C64.2318 26.604 64.1411 26.0013 64.1411 25.34C64.1411 24.6787 64.2318 24.0813 64.4131 23.548C64.5945 23.004 64.8505 22.5453 65.1811 22.172C65.5118 21.788 65.9118 21.4947 66.3811 21.292C66.8611 21.0893 67.3891 20.988 67.9651 20.988C68.5411 20.988 69.0638 21.0893 69.5331 21.292C70.0131 21.4947 70.4185 21.788 70.7491 22.172C71.0798 22.5453 71.3358 23.004 71.5171 23.548C71.6985 24.0813 71.7891 24.6787 71.7891 25.34C71.7891 26.0013 71.6985 26.604 71.5171 27.148C71.3358 27.6813 71.0798 28.14 70.7491 28.524C70.4185 28.8973 70.0131 29.1853 69.5331 29.388C69.0638 29.5907 68.5411 29.692 67.9651 29.692ZM67.9651 28.252C68.5625 28.252 69.0425 28.0707 69.4051 27.708C69.7678 27.3347 69.9491 26.78 69.9491 26.044V24.636C69.9491 23.9 69.7678 23.3507 69.4051 22.988C69.0425 22.6147 68.5625 22.428 67.9651 22.428C67.3678 22.428 66.8878 22.6147 66.5251 22.988C66.1625 23.3507 65.9811 23.9 65.9811 24.636V26.044C65.9811 26.78 66.1625 27.3347 66.5251 27.708C66.8878 28.0707 67.3678 28.252 67.9651 28.252ZM77.1073 29.692C76.5099 29.692 75.9766 29.596 75.5073 29.404C75.0379 29.2013 74.6379 28.8867 74.3073 28.46C73.9766 28.0333 73.7206 27.4947 73.5393 26.844C73.3686 26.1827 73.2833 25.388 73.2833 24.46C73.2833 23.3293 73.3633 22.3587 73.5233 21.548C73.6939 20.7267 73.9553 20.0493 74.3073 19.516C74.6699 18.972 75.1233 18.556 75.6673 18.268C76.2219 17.98 76.8833 17.804 77.6513 17.74L80.3073 17.5V19.212L77.5553 19.468C77.1179 19.5107 76.7499 19.596 76.4513 19.724C76.1633 19.852 75.9233 20.0493 75.7313 20.316C75.5499 20.572 75.4113 20.9187 75.3153 21.356C75.2193 21.7827 75.1499 22.316 75.1073 22.956H75.1873C75.4006 22.4013 75.6886 21.9853 76.0513 21.708C76.4246 21.4307 76.9259 21.292 77.5553 21.292C78.0459 21.292 78.4939 21.388 78.8993 21.58C79.3153 21.7613 79.6726 22.028 79.9713 22.38C80.2699 22.732 80.4993 23.164 80.6593 23.676C80.8299 24.1773 80.9153 24.7533 80.9153 25.404C80.9153 26.0547 80.8246 26.6467 80.6433 27.18C80.4619 27.7027 80.2059 28.1507 79.8753 28.524C79.5446 28.8973 79.1446 29.1853 78.6753 29.388C78.2059 29.5907 77.6833 29.692 77.1073 29.692ZM77.1073 28.252C77.7153 28.252 78.1953 28.0653 78.5473 27.692C78.8993 27.308 79.0753 26.748 79.0753 26.012V24.972C79.0753 24.236 78.8993 23.6813 78.5473 23.308C78.1953 22.924 77.7153 22.732 77.1073 22.732C76.4673 22.732 75.9766 22.9027 75.6353 23.244C75.3046 23.5853 75.1393 24.044 75.1393 24.62V26.012C75.1393 26.748 75.3153 27.308 75.6673 27.692C76.0193 28.0653 76.4993 28.252 77.1073 28.252ZM82.8574 21.18H84.5694V25.244L84.4094 27.212H84.4734L85.4654 25.436L88.3454 21.18H89.9294V29.5H88.2174V25.436L88.3774 23.468H88.3134L87.3214 25.244L84.4414 29.5H82.8574V21.18ZM91.3479 28.076H92.4359C92.5639 27.9053 92.6759 27.7027 92.7719 27.468C92.8679 27.2227 92.9479 26.924 93.0119 26.572C93.0759 26.22 93.1239 25.8093 93.1559 25.34C93.1985 24.86 93.2199 24.3 93.2199 23.66V21.18H99.2679V29.5H97.5239V22.604H94.8999V23.74C94.8999 24.508 94.8679 25.18 94.8039 25.756C94.7505 26.332 94.6705 26.828 94.5639 27.244C94.4679 27.66 94.3452 28.0067 94.1959 28.284C94.0572 28.5507 93.9079 28.764 93.7479 28.924C93.5239 29.148 93.2679 29.308 92.9799 29.404C92.6919 29.5 92.3452 29.548 91.9399 29.548H91.3479V28.076ZM101.779 21.18H103.523V23.964H105.811C106.643 23.964 107.315 24.2093 107.827 24.7C108.35 25.18 108.611 25.8573 108.611 26.732C108.611 27.6173 108.355 28.3 107.843 28.78C107.331 29.26 106.659 29.5 105.827 29.5H101.779V21.18ZM105.491 28.14C105.897 28.14 106.217 28.0547 106.451 27.884C106.686 27.7027 106.803 27.4253 106.803 27.052V26.396C106.803 26.0227 106.686 25.7507 106.451 25.58C106.217 25.4093 105.897 25.324 105.491 25.324H103.523V28.14H105.491ZM110.389 21.18H112.133V24.524H115.717V21.18H117.461V29.5H115.717V25.948H112.133V29.5H110.389V21.18ZM119.951 21.18H121.695V23.964H123.823C124.239 23.964 124.618 24.028 124.959 24.156C125.3 24.2733 125.594 24.4547 125.839 24.7C126.084 24.9347 126.276 25.2227 126.415 25.564C126.554 25.9053 126.623 26.2947 126.623 26.732C126.623 27.6173 126.367 28.3 125.855 28.78C125.343 29.26 124.671 29.5 123.839 29.5H119.951V21.18ZM123.503 28.14C123.908 28.14 124.228 28.0547 124.463 27.884C124.698 27.7027 124.815 27.4253 124.815 27.052V26.396C124.815 26.0227 124.698 25.7507 124.463 25.58C124.228 25.4093 123.908 25.324 123.503 25.324H121.695V28.14H123.503ZM127.871 21.18H129.615V29.5H127.871V21.18ZM135.371 29.692C134.774 29.692 134.241 29.5907 133.771 29.388C133.302 29.1853 132.902 28.8973 132.571 28.524C132.241 28.14 131.985 27.6813 131.803 27.148C131.633 26.604 131.547 26.0013 131.547 25.34C131.547 24.6787 131.633 24.0813 131.803 23.548C131.985 23.004 132.241 22.5453 132.571 22.172C132.902 21.788 133.302 21.4947 133.771 21.292C134.241 21.0893 134.774 20.988 135.371 20.988C135.979 20.988 136.513 21.0947 136.971 21.308C137.441 21.5213 137.83 21.82 138.139 22.204C138.449 22.5773 138.678 23.0147 138.827 23.516C138.987 24.0173 139.067 24.556 139.067 25.132V25.788H133.355V26.06C133.355 26.7 133.542 27.228 133.915 27.644C134.299 28.0493 134.843 28.252 135.547 28.252C136.059 28.252 136.491 28.14 136.843 27.916C137.195 27.692 137.494 27.388 137.739 27.004L138.763 28.012C138.454 28.524 138.006 28.9347 137.419 29.244C136.833 29.5427 136.15 29.692 135.371 29.692ZM135.371 22.348C135.073 22.348 134.795 22.4013 134.539 22.508C134.294 22.6147 134.081 22.764 133.899 22.956C133.729 23.148 133.595 23.3773 133.499 23.644C133.403 23.9107 133.355 24.204 133.355 24.524V24.636H137.227V24.476C137.227 23.836 137.062 23.324 136.731 22.94C136.401 22.5453 135.947 22.348 135.371 22.348Z" fill="#FF7E00"/>
<rect width="105" height="48" transform="translate(156)" fill="#E5E5E5"/>
<rect width="105" height="47" transform="translate(156)" fill="white"/>
<path d="M173.376 18.332H179.664V19.932H175.184V29.5H173.376V18.332ZM180.436 21.18H182.18V22.556H182.26C182.441 22.0547 182.734 21.6707 183.14 21.404C183.556 21.1267 184.041 20.988 184.596 20.988C185.652 20.988 186.468 21.372 187.044 22.14C187.62 22.8973 187.908 23.964 187.908 25.34C187.908 26.716 187.62 27.788 187.044 28.556C186.468 29.3133 185.652 29.692 184.596 29.692C184.041 29.692 183.556 29.5533 183.14 29.276C182.734 28.9987 182.441 28.6147 182.26 28.124H182.18V32.7H180.436V21.18ZM184.068 28.188C184.676 28.188 185.161 27.996 185.524 27.612C185.886 27.2173 186.068 26.7 186.068 26.06V24.62C186.068 23.98 185.886 23.468 185.524 23.084C185.161 22.6893 184.676 22.492 184.068 22.492C183.534 22.492 183.086 22.6253 182.724 22.892C182.361 23.148 182.18 23.4893 182.18 23.916V26.764C182.18 27.1907 182.361 27.5373 182.724 27.804C183.086 28.06 183.534 28.188 184.068 28.188ZM194.899 21.18H196.579L193.075 31.148C192.979 31.4253 192.867 31.66 192.739 31.852C192.622 32.0547 192.478 32.2147 192.307 32.332C192.147 32.46 191.95 32.5507 191.715 32.604C191.48 32.668 191.203 32.7 190.883 32.7H189.875V31.276H191.283L191.763 29.868L188.739 21.18H190.483L192.147 26.076L192.627 27.884H192.707L193.235 26.076L194.899 21.18ZM200.606 29.692C199.774 29.692 199.091 29.5533 198.558 29.276C198.024 28.9987 197.566 28.604 197.182 28.092L198.318 27.052C198.574 27.4253 198.888 27.7187 199.262 27.932C199.646 28.1453 200.094 28.252 200.606 28.252C201.203 28.252 201.64 28.1453 201.918 27.932C202.206 27.7187 202.35 27.4413 202.35 27.1V26.908C202.35 26.5667 202.232 26.3107 201.998 26.14C201.774 25.9587 201.448 25.868 201.022 25.868H199.23V24.588H200.846C201.272 24.588 201.598 24.508 201.822 24.348C202.056 24.1773 202.174 23.932 202.174 23.612V23.436C202.174 23.1267 202.046 22.8813 201.79 22.7C201.534 22.5187 201.128 22.428 200.574 22.428C200.072 22.428 199.646 22.5293 199.294 22.732C198.942 22.9347 198.659 23.2067 198.446 23.548L197.358 22.604C197.678 22.1133 198.104 21.724 198.638 21.436C199.182 21.1373 199.864 20.988 200.686 20.988C201.795 20.988 202.616 21.196 203.15 21.612C203.694 22.0173 203.966 22.5613 203.966 23.244C203.966 23.7773 203.827 24.1933 203.55 24.492C203.272 24.78 202.856 24.9773 202.302 25.084V25.164C202.91 25.2387 203.368 25.4413 203.678 25.772C203.998 26.1027 204.158 26.5293 204.158 27.052C204.158 27.8733 203.838 28.5187 203.198 28.988C202.568 29.4573 201.704 29.692 200.606 29.692ZM209.496 29.692C208.92 29.692 208.392 29.5907 207.912 29.388C207.443 29.1853 207.043 28.8973 206.712 28.524C206.382 28.14 206.126 27.6813 205.944 27.148C205.763 26.604 205.672 26.0013 205.672 25.34C205.672 24.6787 205.763 24.0813 205.944 23.548C206.126 23.004 206.382 22.5453 206.712 22.172C207.043 21.788 207.443 21.4947 207.912 21.292C208.392 21.0893 208.92 20.988 209.496 20.988C210.072 20.988 210.595 21.0893 211.064 21.292C211.544 21.4947 211.95 21.788 212.28 22.172C212.611 22.5453 212.867 23.004 213.048 23.548C213.23 24.0813 213.32 24.6787 213.32 25.34C213.32 26.0013 213.23 26.604 213.048 27.148C212.867 27.6813 212.611 28.14 212.28 28.524C211.95 28.8973 211.544 29.1853 211.064 29.388C210.595 29.5907 210.072 29.692 209.496 29.692ZM209.496 28.252C210.094 28.252 210.574 28.0707 210.936 27.708C211.299 27.3347 211.48 26.78 211.48 26.044V24.636C211.48 23.9 211.299 23.3507 210.936 22.988C210.574 22.6147 210.094 22.428 209.496 22.428C208.899 22.428 208.419 22.6147 208.056 22.988C207.694 23.3507 207.512 23.9 207.512 24.636V26.044C207.512 26.78 207.694 27.3347 208.056 27.708C208.419 28.0707 208.899 28.252 209.496 28.252ZM215.264 21.18H219.696C220.41 21.18 220.96 21.372 221.344 21.756C221.738 22.14 221.936 22.652 221.936 23.292C221.936 24.3373 221.376 24.9293 220.256 25.068V25.148C220.928 25.2013 221.424 25.3987 221.744 25.74C222.074 26.0707 222.24 26.508 222.24 27.052C222.24 27.404 222.181 27.7293 222.064 28.028C221.957 28.3267 221.797 28.588 221.584 28.812C221.381 29.0253 221.13 29.196 220.832 29.324C220.533 29.4413 220.197 29.5 219.824 29.5H215.264V21.18ZM219.424 28.172C219.733 28.172 219.978 28.092 220.16 27.932C220.341 27.772 220.432 27.5373 220.432 27.228V26.796C220.432 26.4867 220.341 26.252 220.16 26.092C219.978 25.9213 219.733 25.836 219.424 25.836H216.976V28.172H219.424ZM219.2 24.636C219.498 24.636 219.728 24.5613 219.888 24.412C220.048 24.2627 220.128 24.0493 220.128 23.772V23.372C220.128 23.0947 220.048 22.8813 219.888 22.732C219.728 22.5827 219.498 22.508 219.2 22.508H216.976V24.636H219.2ZM224.326 21.18H226.07V23.964H228.198C228.614 23.964 228.993 24.028 229.334 24.156C229.675 24.2733 229.969 24.4547 230.214 24.7C230.459 24.9347 230.651 25.2227 230.79 25.564C230.929 25.9053 230.998 26.2947 230.998 26.732C230.998 27.6173 230.742 28.3 230.23 28.78C229.718 29.26 229.046 29.5 228.214 29.5H224.326V21.18ZM227.878 28.14C228.283 28.14 228.603 28.0547 228.838 27.884C229.073 27.7027 229.19 27.4253 229.19 27.052V26.396C229.19 26.0227 229.073 25.7507 228.838 25.58C228.603 25.4093 228.283 25.324 227.878 25.324H226.07V28.14H227.878ZM232.246 21.18H233.99V29.5H232.246V21.18ZM239.746 29.692C239.149 29.692 238.616 29.5907 238.146 29.388C237.677 29.1853 237.277 28.8973 236.946 28.524C236.616 28.14 236.36 27.6813 236.178 27.148C236.008 26.604 235.922 26.0013 235.922 25.34C235.922 24.6787 236.008 24.0813 236.178 23.548C236.36 23.004 236.616 22.5453 236.946 22.172C237.277 21.788 237.677 21.4947 238.146 21.292C238.616 21.0893 239.149 20.988 239.746 20.988C240.354 20.988 240.888 21.0947 241.346 21.308C241.816 21.5213 242.205 21.82 242.514 22.204C242.824 22.5773 243.053 23.0147 243.202 23.516C243.362 24.0173 243.442 24.556 243.442 25.132V25.788H237.73V26.06C237.73 26.7 237.917 27.228 238.29 27.644C238.674 28.0493 239.218 28.252 239.922 28.252C240.434 28.252 240.866 28.14 241.218 27.916C241.57 27.692 241.869 27.388 242.114 27.004L243.138 28.012C242.829 28.524 242.381 28.9347 241.794 29.244C241.208 29.5427 240.525 29.692 239.746 29.692ZM239.746 22.348C239.448 22.348 239.17 22.4013 238.914 22.508C238.669 22.6147 238.456 22.764 238.274 22.956C238.104 23.148 237.97 23.3773 237.874 23.644C237.778 23.9107 237.73 24.204 237.73 24.524V24.636H241.602V24.476C241.602 23.836 241.437 23.324 241.106 22.94C240.776 22.5453 240.322 22.348 239.746 22.348Z" fill="#4C65BD"/>
<rect width="115" height="48" transform="translate(261)" fill="#E5E5E5"/>
<rect width="115" height="47" transform="translate(261)" fill="white"/>
<path d="M286.92 20.956H286.84L285.96 22.764L283.512 27.228L281.064 22.764L280.184 20.956H280.104V29.5H278.376V18.332H280.52L283.512 24.012H283.608L286.6 18.332H288.648V29.5H286.92V20.956ZM294.543 29.692C293.967 29.692 293.439 29.5907 292.959 29.388C292.49 29.1853 292.09 28.8973 291.759 28.524C291.429 28.14 291.173 27.6813 290.991 27.148C290.81 26.604 290.719 26.0013 290.719 25.34C290.719 24.6787 290.81 24.0813 290.991 23.548C291.173 23.004 291.429 22.5453 291.759 22.172C292.09 21.788 292.49 21.4947 292.959 21.292C293.439 21.0893 293.967 20.988 294.543 20.988C295.119 20.988 295.642 21.0893 296.111 21.292C296.591 21.4947 296.997 21.788 297.327 22.172C297.658 22.5453 297.914 23.004 298.095 23.548C298.277 24.0813 298.367 24.6787 298.367 25.34C298.367 26.0013 298.277 26.604 298.095 27.148C297.914 27.6813 297.658 28.14 297.327 28.524C296.997 28.8973 296.591 29.1853 296.111 29.388C295.642 29.5907 295.119 29.692 294.543 29.692ZM294.543 28.252C295.141 28.252 295.621 28.0707 295.983 27.708C296.346 27.3347 296.527 26.78 296.527 26.044V24.636C296.527 23.9 296.346 23.3507 295.983 22.988C295.621 22.6147 295.141 22.428 294.543 22.428C293.946 22.428 293.466 22.6147 293.103 22.988C292.741 23.3507 292.559 23.9 292.559 24.636V26.044C292.559 26.78 292.741 27.3347 293.103 27.708C293.466 28.0707 293.946 28.252 294.543 28.252ZM301.882 22.604H299.226V21.18H306.282V22.604H303.626V29.5H301.882V22.604ZM310.965 29.692C310.389 29.692 309.861 29.5907 309.381 29.388C308.912 29.1853 308.512 28.8973 308.181 28.524C307.85 28.14 307.594 27.6813 307.413 27.148C307.232 26.604 307.141 26.0013 307.141 25.34C307.141 24.6787 307.232 24.0813 307.413 23.548C307.594 23.004 307.85 22.5453 308.181 22.172C308.512 21.788 308.912 21.4947 309.381 21.292C309.861 21.0893 310.389 20.988 310.965 20.988C311.541 20.988 312.064 21.0893 312.533 21.292C313.013 21.4947 313.418 21.788 313.749 22.172C314.08 22.5453 314.336 23.004 314.517 23.548C314.698 24.0813 314.789 24.6787 314.789 25.34C314.789 26.0013 314.698 26.604 314.517 27.148C314.336 27.6813 314.08 28.14 313.749 28.524C313.418 28.8973 313.013 29.1853 312.533 29.388C312.064 29.5907 311.541 29.692 310.965 29.692ZM310.965 28.252C311.562 28.252 312.042 28.0707 312.405 27.708C312.768 27.3347 312.949 26.78 312.949 26.044V24.636C312.949 23.9 312.768 23.3507 312.405 22.988C312.042 22.6147 311.562 22.428 310.965 22.428C310.368 22.428 309.888 22.6147 309.525 22.988C309.162 23.3507 308.981 23.9 308.981 24.636V26.044C308.981 26.78 309.162 27.3347 309.525 27.708C309.888 28.0707 310.368 28.252 310.965 28.252ZM316.732 21.18H318.476V28.076H321.148V21.18H322.892V28.076H325.564V21.18H327.308V29.5H316.732V21.18ZM329.811 21.18H331.523V25.244L331.363 27.212H331.427L332.419 25.436L335.299 21.18H336.883V29.5H335.171V25.436L335.331 23.468H335.267L334.275 25.244L331.395 29.5H329.811V21.18ZM339.373 21.18H341.117V24.524H344.701V21.18H346.445V29.5H344.701V25.948H341.117V29.5H339.373V21.18ZM348.936 21.18H350.68V23.964H352.808C353.224 23.964 353.602 24.028 353.944 24.156C354.285 24.2733 354.578 24.4547 354.824 24.7C355.069 24.9347 355.261 25.2227 355.4 25.564C355.538 25.9053 355.608 26.2947 355.608 26.732C355.608 27.6173 355.352 28.3 354.84 28.78C354.328 29.26 353.656 29.5 352.824 29.5H348.936V21.18ZM352.488 28.14C352.893 28.14 353.213 28.0547 353.448 27.884C353.682 27.7027 353.8 27.4253 353.8 27.052V26.396C353.8 26.0227 353.682 25.7507 353.448 25.58C353.213 25.4093 352.893 25.324 352.488 25.324H350.68V28.14H352.488ZM356.856 21.18H358.6V29.5H356.856V21.18Z" fill="#4C65BD"/>
</svg>
