<svg width="768" height="265" viewBox="0 0 768 265" fill="none" xmlns="http://www.w3.org/2000/svg">
<path fill-rule="evenodd" clip-rule="evenodd" d="M100 265C91.1634 265 84 257.837 84 249V209C84 204.582 80.4183 201 76 201H8C3.58172 201 0 197.418 0 193V72C0 67.5817 3.58172 64 8 64H76C80.4183 64 84 60.4183 84 56V16C84 7.16345 91.1634 0 100 0H668C676.837 0 684 7.16345 684 16V56C684 60.4183 687.582 64 692 64H760C764.418 64 768 67.5817 768 72V193C768 197.418 764.418 201 760 201H692C687.582 201 684 204.582 684 209V249C684 257.837 676.837 265 668 265H100Z" fill="white"/>
</svg>
