<svg width="16" height="16" viewBox="0 0 16 16" fill="none" xmlns="http://www.w3.org/2000/svg">
<path d="M15.8574 11.1427C15.8144 11.0707 15.5484 10.4926 14.2683 9.30455C12.9282 8.06046 13.1082 8.26248 14.7223 6.11132C15.7054 4.80122 16.0984 4.00116 15.9754 3.65913C15.8584 3.33311 15.1354 3.41912 15.1354 3.41912L12.7312 3.43312C12.7312 3.43312 12.5532 3.40912 12.4202 3.48812C12.2911 3.56613 12.2081 3.74614 12.2081 3.74614C12.2081 3.74614 11.8271 4.76022 11.3191 5.62228C10.248 7.44141 9.81896 7.53742 9.64395 7.42441C9.23692 7.16139 9.33892 6.36633 9.33892 5.80229C9.33892 4.03916 9.60594 3.30411 8.81789 3.11409C8.55587 3.05109 8.36385 3.00909 7.6948 3.00208C6.83674 2.99308 6.10968 3.00509 5.69865 3.2061C5.42463 3.34011 5.21361 3.63913 5.34262 3.65613C5.50164 3.67714 5.86166 3.75314 6.05268 4.01316C6.2997 4.34819 6.2907 5.10224 6.2907 5.10224C6.2907 5.10224 6.43271 7.17739 5.95967 7.43541C5.63465 7.61243 5.18961 7.2514 4.23454 5.60028C3.7455 4.75522 3.37548 3.82015 3.37548 3.82015C3.37548 3.82015 3.30447 3.64613 3.17746 3.55313C3.02345 3.44012 2.80743 3.40411 2.80743 3.40411L0.521262 3.41812C0.521262 3.41812 0.178237 3.42812 0.0522272 3.57713C-0.0597812 3.71014 0.0432265 3.98416 0.0432265 3.98416C0.0432265 3.98416 1.83336 8.17147 3.85951 10.2826C5.71865 12.2178 7.82881 12.0908 7.82881 12.0908H8.78488C8.78488 12.0908 9.0739 12.0588 9.22092 11.8997C9.35693 11.7537 9.35193 11.4797 9.35193 11.4797C9.35193 11.4797 9.33292 10.1966 9.92897 10.0076C10.516 9.82159 11.2701 11.2477 12.0691 11.7967C12.6732 12.2118 13.1322 12.1208 13.1322 12.1208L15.2694 12.0908C15.2694 12.0908 16.3875 12.0218 15.8574 11.1427Z" fill="#FF7E00"/>
</svg>
