<svg width="16" height="16" viewBox="0 0 16 16" fill="none" xmlns="http://www.w3.org/2000/svg">
<path fill-rule="evenodd" clip-rule="evenodd" d="M12.9602 3.03455C11.6442 1.72324 9.8939 1.00077 8.02928 1C4.18704 1 1.06002 4.11197 1.05847 7.93685C1.05796 9.15955 1.3789 10.3531 1.98894 11.4052L1 15L4.69533 14.0353C5.71355 14.588 6.85986 14.8793 8.02645 14.8797H8.02936C11.8712 14.8797 14.9985 11.7675 15 7.94241C15.0008 6.08867 14.2764 4.34576 12.9602 3.03455ZM8.02928 13.7081H8.02687C6.98728 13.7077 5.96769 13.4296 5.07801 12.9044L4.86654 12.7793L2.67367 13.3519L3.25898 11.2241L3.12117 11.0059C2.54119 10.0879 2.23493 9.02676 2.23544 7.93728C2.23664 4.75814 4.8358 2.17168 8.0316 2.17168C9.57914 2.17219 11.0339 2.77273 12.1277 3.86263C13.2216 4.95254 13.8236 6.40125 13.8231 7.94198C13.8217 11.1214 11.2228 13.7081 8.02928 13.7081ZM11.2073 9.38958C11.0332 9.30276 10.1768 8.88354 10.0171 8.82561C9.85758 8.76776 9.74133 8.73896 9.62533 8.91243C9.50916 9.08589 9.17542 9.47639 9.07377 9.592C8.97211 9.7077 8.87062 9.72223 8.69641 9.63541C8.5222 9.54868 7.96102 9.36556 7.29569 8.77502C6.77795 8.31539 6.42842 7.74775 6.32676 7.57429C6.22527 7.40066 6.3259 7.31589 6.40317 7.22053C6.59172 6.98751 6.78053 6.74321 6.83857 6.6276C6.8967 6.5119 6.86759 6.41064 6.82397 6.32391C6.78053 6.23718 6.4322 5.38397 6.28709 5.03679C6.14559 4.69893 6.00212 4.74456 5.89514 4.73926C5.79365 4.73422 5.67749 4.73319 5.56132 4.73319C5.44523 4.73319 5.25651 4.77651 5.09681 4.95015C4.9372 5.12369 4.48729 5.54299 4.48729 6.3962C4.48729 7.24941 5.11141 8.07366 5.19847 8.18936C5.28553 8.30505 6.4267 10.0559 8.17387 10.8067C8.58943 10.9854 8.91381 11.092 9.16684 11.1719C9.58412 11.3038 9.96371 11.2852 10.2639 11.2406C10.5986 11.1908 11.2943 10.8212 11.4396 10.4163C11.5847 10.0114 11.5847 9.66438 11.541 9.592C11.4976 9.51971 11.3814 9.47639 11.2073 9.38958Z" fill="#FF7E00"/>
</svg>
