<svg width="1224" height="496" viewBox="0 0 1224 496" fill="none" xmlns="http://www.w3.org/2000/svg">
<rect x="1" y="1" width="1222" height="494" fill="white" stroke="#FF7E00" stroke-width="2"/>
<path d="M239.792 151.829C239.833 151.808 239.872 151.785 239.912 151.763C239.946 151.743 239.981 151.726 240.014 151.705C240.052 151.681 240.089 151.655 240.126 151.629C240.159 151.606 240.192 151.585 240.224 151.56C240.258 151.533 240.29 151.505 240.323 151.477C240.355 151.45 240.388 151.424 240.419 151.395C240.449 151.366 240.477 151.335 240.507 151.305C240.537 151.274 240.568 151.244 240.596 151.211C240.627 151.176 240.654 151.14 240.683 151.103C240.707 151.073 240.732 151.043 240.755 151.011C240.797 150.952 240.836 150.891 240.873 150.828C240.88 150.817 240.888 150.807 240.894 150.796C240.901 150.784 240.906 150.771 240.913 150.759C240.948 150.697 240.981 150.633 241.011 150.568C241.028 150.529 241.042 150.49 241.057 150.451C241.073 150.411 241.091 150.372 241.104 150.331C241.119 150.287 241.131 150.242 241.143 150.198C241.154 150.161 241.166 150.124 241.175 150.086C241.185 150.042 241.192 149.997 241.2 149.953C241.207 149.914 241.215 149.875 241.221 149.835C241.226 149.792 241.229 149.749 241.232 149.706C241.236 149.664 241.24 149.623 241.242 149.58C241.243 149.538 241.241 149.495 241.24 149.452C241.239 149.41 241.24 149.368 241.237 149.326C241.234 149.276 241.227 149.227 241.221 149.178C241.217 149.143 241.214 149.108 241.208 149.074C241.194 148.988 241.176 148.903 241.154 148.819L226.757 95.0899C226.385 93.7014 224.959 92.8777 223.57 93.2498L144.387 114.467C144.365 114.473 144.345 114.481 144.323 114.488C144.275 114.502 144.228 114.517 144.182 114.533C144.144 114.546 144.108 114.561 144.072 114.576C144.03 114.593 143.99 114.611 143.949 114.63C143.911 114.647 143.874 114.666 143.837 114.686C143.8 114.706 143.762 114.727 143.726 114.749C143.69 114.77 143.654 114.793 143.62 114.816C143.584 114.84 143.548 114.864 143.514 114.89C143.481 114.914 143.449 114.939 143.418 114.964C143.383 114.992 143.349 115.022 143.316 115.052C143.287 115.078 143.259 115.104 143.232 115.131C143.199 115.164 143.167 115.198 143.136 115.232C143.11 115.26 143.085 115.289 143.061 115.319C143.032 115.353 143.004 115.389 142.976 115.426C142.952 115.459 142.928 115.493 142.904 115.528C142.881 115.562 142.859 115.597 142.837 115.633C142.812 115.674 142.789 115.715 142.767 115.757C142.756 115.778 142.743 115.797 142.732 115.819C142.726 115.831 142.722 115.844 142.716 115.856C142.694 115.901 142.675 115.948 142.656 115.994C142.642 116.028 142.627 116.062 142.615 116.096C142.599 116.141 142.585 116.186 142.571 116.231C142.56 116.268 142.548 116.305 142.539 116.343C142.528 116.386 142.519 116.429 142.511 116.473C142.503 116.513 142.494 116.553 142.488 116.593C142.482 116.635 142.478 116.678 142.474 116.721C142.469 116.762 142.465 116.804 142.462 116.845C142.46 116.887 142.461 116.929 142.461 116.971C142.461 117.014 142.46 117.057 142.462 117.1C142.464 117.14 142.468 117.18 142.472 117.22C142.476 117.266 142.48 117.312 142.487 117.357C142.492 117.394 142.5 117.431 142.507 117.469C142.516 117.517 142.526 117.564 142.538 117.612C142.541 117.626 142.543 117.64 142.547 117.653L146.7 133.155C147.073 134.544 148.499 135.368 149.888 134.996C151.276 134.623 152.1 133.197 151.728 131.808L149.07 121.889L176.721 135.688C176.626 135.801 176.539 135.922 176.462 136.054L160.345 163.969L155.919 147.45C155.547 146.061 154.12 145.238 152.731 145.61C151.343 145.982 150.519 147.408 150.891 148.797L151.714 151.868L138.727 155.348C137.338 155.72 136.514 157.147 136.886 158.536C137.259 159.924 138.685 160.748 140.074 160.376L153.061 156.896L156.944 171.385C157.316 172.774 158.743 173.597 160.131 173.225L239.314 152.009C239.396 151.986 239.478 151.96 239.558 151.93C239.596 151.916 239.631 151.898 239.667 151.883C239.709 151.865 239.751 151.849 239.792 151.829ZM234.501 144.1L206.585 127.983C206.567 127.973 206.549 127.965 206.531 127.956L219.32 109.478C220.138 108.296 219.843 106.676 218.661 105.857C217.48 105.04 215.859 105.334 215.04 106.517L193.188 138.089L152.366 117.718L222.403 98.9512L234.501 144.1ZM180.97 138.657C181.101 138.43 181.193 138.191 181.25 137.948L192.882 143.753C193.47 144.046 194.122 144.098 194.718 143.938C195.296 143.783 195.821 143.43 196.184 142.905L203.587 132.209C203.709 132.313 203.84 132.408 203.983 132.491L231.898 148.608L164.853 166.572L180.97 138.657Z" fill="#E5E5E5"/>
<path d="M120.357 151.589L162.811 140.214C164.2 139.842 165.023 138.415 164.651 137.026C164.279 135.638 162.853 134.814 161.464 135.186L119.01 146.562C117.621 146.934 116.798 148.36 117.17 149.749C117.542 151.138 118.968 151.961 120.357 151.589Z" fill="#E5E5E5"/>
<path d="M121.044 136.558L140.107 131.45C141.495 131.078 142.319 129.652 141.947 128.263C141.575 126.874 140.148 126.051 138.76 126.423L119.697 131.531C118.309 131.903 117.485 133.329 117.857 134.718C118.229 136.106 119.656 136.93 121.044 136.558Z" fill="#E5E5E5"/>
<path d="M143.805 165.364L125.371 170.303C123.983 170.675 123.159 172.102 123.531 173.49C123.903 174.879 125.33 175.703 126.718 175.33L145.152 170.391C146.541 170.019 147.365 168.592 146.993 167.204C146.62 165.815 145.194 164.992 143.805 165.364Z" fill="#E5E5E5"/>
<g clip-path="url(#clip0_104_19634)">
<path d="M996.757 311.94L1112 358.559V365.297L1078.99 375.487L1068.55 408.976L1060.22 408.975L1046.79 395.229L1018.43 416.06L1012.91 413.96L992 315.933L996.757 311.94ZM1018.65 407.172L1056 379.737L1060.16 385.404L1052.51 391.025L1063.38 401.944L1071.91 374.58L1022.51 345.083L1026.11 339.045L1076.24 368.976L1100.49 361.49L1000.26 320.943L1018.65 407.172Z" fill="#E5E5E5"/>
</g>
<defs>
<clipPath id="clip0_104_19634">
<rect width="120" height="120" fill="white" transform="matrix(-1 0 0 1 1112 304)"/>
</clipPath>
</defs>
</svg>
