<svg width="1224" height="496" viewBox="0 0 1224 496" fill="none" xmlns="http://www.w3.org/2000/svg">
<rect x="1" y="1" width="1222" height="494" fill="white" stroke="#FF7E00" stroke-width="2"/>
<path d="M239.792 151.829C239.833 151.808 239.872 151.785 239.912 151.763C239.946 151.743 239.981 151.726 240.014 151.705C240.052 151.681 240.089 151.655 240.126 151.629C240.159 151.606 240.192 151.585 240.224 151.56C240.258 151.533 240.29 151.505 240.323 151.477C240.355 151.45 240.388 151.424 240.419 151.395C240.449 151.366 240.477 151.335 240.507 151.305C240.537 151.274 240.568 151.244 240.596 151.211C240.627 151.176 240.654 151.14 240.683 151.103C240.707 151.073 240.732 151.043 240.755 151.011C240.797 150.952 240.836 150.891 240.873 150.828C240.88 150.817 240.888 150.807 240.894 150.796C240.901 150.784 240.906 150.771 240.913 150.759C240.948 150.697 240.981 150.633 241.011 150.568C241.028 150.529 241.042 150.49 241.057 150.451C241.073 150.411 241.091 150.372 241.104 150.331C241.119 150.287 241.131 150.242 241.143 150.198C241.154 150.161 241.166 150.124 241.175 150.086C241.185 150.042 241.192 149.997 241.2 149.953C241.207 149.914 241.215 149.875 241.221 149.835C241.226 149.792 241.229 149.749 241.232 149.706C241.236 149.664 241.24 149.623 241.242 149.58C241.243 149.538 241.241 149.495 241.24 149.452C241.239 149.41 241.24 149.368 241.237 149.326C241.234 149.276 241.227 149.227 241.221 149.178C241.217 149.143 241.214 149.108 241.208 149.074C241.194 148.988 241.176 148.903 241.154 148.819L226.757 95.0899C226.385 93.7014 224.959 92.8777 223.57 93.2498L144.387 114.467C144.365 114.473 144.345 114.481 144.323 114.488C144.275 114.502 144.228 114.517 144.182 114.533C144.144 114.546 144.108 114.561 144.072 114.576C144.03 114.593 143.99 114.611 143.949 114.63C143.911 114.647 143.874 114.666 143.837 114.686C143.8 114.706 143.762 114.727 143.726 114.749C143.69 114.77 143.654 114.793 143.62 114.816C143.584 114.84 143.548 114.864 143.514 114.89C143.481 114.914 143.449 114.939 143.418 114.964C143.383 114.992 143.349 115.022 143.316 115.052C143.287 115.078 143.259 115.104 143.232 115.131C143.199 115.164 143.167 115.198 143.136 115.232C143.11 115.26 143.085 115.289 143.061 115.319C143.032 115.353 143.004 115.389 142.976 115.426C142.952 115.459 142.928 115.493 142.904 115.528C142.881 115.562 142.859 115.597 142.837 115.633C142.812 115.674 142.789 115.715 142.767 115.757C142.756 115.778 142.743 115.797 142.732 115.819C142.726 115.831 142.722 115.844 142.716 115.856C142.694 115.901 142.675 115.948 142.656 115.994C142.642 116.028 142.627 116.062 142.615 116.096C142.599 116.141 142.585 116.186 142.571 116.231C142.56 116.268 142.548 116.305 142.539 116.343C142.528 116.386 142.519 116.429 142.511 116.473C142.503 116.513 142.494 116.553 142.488 116.593C142.482 116.635 142.478 116.678 142.474 116.721C142.469 116.762 142.465 116.804 142.462 116.845C142.46 116.887 142.461 116.929 142.461 116.971C142.461 117.014 142.46 117.057 142.462 117.1C142.464 117.14 142.468 117.18 142.472 117.22C142.476 117.266 142.48 117.312 142.487 117.357C142.492 117.394 142.5 117.431 142.507 117.469C142.516 117.517 142.526 117.564 142.538 117.612C142.541 117.626 142.543 117.64 142.547 117.653L146.7 133.155C147.073 134.544 148.499 135.368 149.888 134.996C151.276 134.623 152.1 133.197 151.728 131.808L149.07 121.889L176.721 135.688C176.626 135.801 176.539 135.922 176.462 136.054L160.345 163.969L155.919 147.45C155.547 146.061 154.12 145.238 152.731 145.61C151.343 145.982 150.519 147.408 150.891 148.797L151.714 151.868L138.727 155.348C137.338 155.72 136.514 157.147 136.886 158.536C137.259 159.924 138.685 160.748 140.074 160.376L153.061 156.896L156.944 171.385C157.316 172.774 158.743 173.597 160.131 173.225L239.314 152.009C239.396 151.986 239.478 151.96 239.558 151.93C239.596 151.916 239.631 151.898 239.667 151.883C239.709 151.865 239.751 151.849 239.792 151.829ZM234.501 144.1L206.585 127.983C206.567 127.973 206.549 127.965 206.531 127.956L219.32 109.478C220.138 108.296 219.843 106.676 218.661 105.857C217.48 105.04 215.859 105.334 215.04 106.517L193.188 138.089L152.366 117.718L222.403 98.9512L234.501 144.1ZM180.97 138.657C181.101 138.43 181.193 138.191 181.25 137.948L192.882 143.753C193.47 144.046 194.122 144.098 194.718 143.938C195.296 143.783 195.821 143.43 196.184 142.905L203.587 132.209C203.709 132.313 203.84 132.408 203.983 132.491L231.898 148.608L164.853 166.572L180.97 138.657Z" fill="#E5E5E5"/>
<path d="M120.357 151.589L162.811 140.214C164.2 139.842 165.023 138.415 164.651 137.026C164.279 135.638 162.853 134.814 161.464 135.186L119.01 146.562C117.621 146.934 116.798 148.36 117.17 149.749C117.542 151.138 118.968 151.961 120.357 151.589Z" fill="#E5E5E5"/>
<path d="M121.044 136.558L140.107 131.45C141.495 131.078 142.319 129.652 141.947 128.263C141.575 126.874 140.148 126.051 138.76 126.423L119.697 131.531C118.309 131.903 117.485 133.329 117.857 134.718C118.229 136.106 119.656 136.93 121.044 136.558Z" fill="#E5E5E5"/>
<path d="M143.805 165.364L125.371 170.303C123.983 170.675 123.159 172.102 123.531 173.49C123.903 174.879 125.33 175.703 126.718 175.33L145.152 170.391C146.541 170.019 147.365 168.592 146.993 167.204C146.62 165.815 145.194 164.992 143.805 165.364Z" fill="#E5E5E5"/>
<g clip-path="url(#clip0_104_19634)">
<path d="M996.757 311.94L1112 358.559V365.297L1078.99 375.487L1068.55 408.976L1060.22 408.975L1046.79 395.229L1018.43 416.06L1012.91 413.96L992 315.933L996.757 311.94ZM1018.65 407.172L1056 379.737L1060.16 385.404L1052.51 391.025L1063.38 401.944L1071.91 374.58L1022.51 345.083L1026.11 339.045L1076.24 368.976L1100.49 361.49L1000.26 320.943L1018.65 407.172Z" fill="#E5E5E5"/>
</g>
<path d="M334.702 71V43.08H346.702C349.288 43.08 351.288 43.84 352.702 45.36C354.115 46.88 354.822 48.92 354.822 51.48C354.822 54.04 354.115 56.08 352.702 57.6C351.288 59.12 349.288 59.88 346.702 59.88H339.222V71H334.702ZM339.222 55.92H346.422C347.568 55.92 348.462 55.6267 349.102 55.04C349.742 54.4267 350.062 53.56 350.062 52.44V50.52C350.062 49.4 349.742 48.5467 349.102 47.96C348.462 47.3467 347.568 47.04 346.422 47.04H339.222V55.92ZM374.231 71C373.084 71 372.204 70.68 371.591 70.04C370.978 69.3733 370.604 68.5333 370.471 67.52H370.271C369.871 68.8267 369.138 69.8133 368.071 70.48C367.004 71.1467 365.711 71.48 364.191 71.48C362.031 71.48 360.364 70.92 359.191 69.8C358.044 68.68 357.471 67.1733 357.471 65.28C357.471 63.2 358.218 61.64 359.711 60.6C361.231 59.56 363.444 59.04 366.351 59.04H370.111V57.28C370.111 56 369.764 55.0133 369.071 54.32C368.378 53.6267 367.298 53.28 365.831 53.28C364.604 53.28 363.604 53.5467 362.831 54.08C362.058 54.6133 361.404 55.2933 360.871 56.12L358.271 53.76C358.964 52.5867 359.938 51.6267 361.191 50.88C362.444 50.1067 364.084 49.72 366.111 49.72C368.804 49.72 370.871 50.3467 372.311 51.6C373.751 52.8533 374.471 54.6533 374.471 57V67.44H376.671V71H374.231ZM365.431 68.16C366.791 68.16 367.911 67.8667 368.791 67.28C369.671 66.6667 370.111 65.8533 370.111 64.84V61.84H366.431C363.418 61.84 361.911 62.7733 361.911 64.64V65.36C361.911 66.2933 362.218 67 362.831 67.48C363.471 67.9333 364.338 68.16 365.431 68.16ZM388.984 71.48C387.491 71.48 386.158 71.2267 384.984 70.72C383.811 70.2133 382.824 69.4933 382.024 68.56C381.224 67.6 380.611 66.4533 380.184 65.12C379.758 63.76 379.544 62.2533 379.544 60.6C379.544 58.9467 379.758 57.4533 380.184 56.12C380.611 54.76 381.224 53.6133 382.024 52.68C382.824 51.72 383.811 50.9867 384.984 50.48C386.158 49.9733 387.491 49.72 388.984 49.72C391.064 49.72 392.771 50.1867 394.104 51.12C395.438 52.0533 396.411 53.2933 397.024 54.84L393.424 56.52C393.131 55.56 392.611 54.8 391.864 54.24C391.144 53.6533 390.184 53.36 388.984 53.36C387.384 53.36 386.171 53.8667 385.344 54.88C384.544 55.8667 384.144 57.16 384.144 58.76V62.48C384.144 64.08 384.544 65.3867 385.344 66.4C386.171 67.3867 387.384 67.88 388.984 67.88C390.264 67.88 391.278 67.5733 392.024 66.96C392.798 66.32 393.411 65.48 393.864 64.44L397.184 66.2C396.491 67.9067 395.451 69.2133 394.064 70.12C392.678 71.0267 390.984 71.48 388.984 71.48ZM409.14 71.48C407.647 71.48 406.314 71.2267 405.14 70.72C403.967 70.2133 402.98 69.4933 402.18 68.56C401.38 67.6 400.767 66.4533 400.34 65.12C399.914 63.76 399.7 62.2533 399.7 60.6C399.7 58.9467 399.914 57.4533 400.34 56.12C400.767 54.76 401.38 53.6133 402.18 52.68C402.98 51.72 403.967 50.9867 405.14 50.48C406.314 49.9733 407.647 49.72 409.14 49.72C411.22 49.72 412.927 50.1867 414.26 51.12C415.594 52.0533 416.567 53.2933 417.18 54.84L413.58 56.52C413.287 55.56 412.767 54.8 412.02 54.24C411.3 53.6533 410.34 53.36 409.14 53.36C407.54 53.36 406.327 53.8667 405.5 54.88C404.7 55.8667 404.3 57.16 404.3 58.76V62.48C404.3 64.08 404.7 65.3867 405.5 66.4C406.327 67.3867 407.54 67.88 409.14 67.88C410.42 67.88 411.434 67.5733 412.18 66.96C412.954 66.32 413.567 65.48 414.02 64.44L417.34 66.2C416.647 67.9067 415.607 69.2133 414.22 70.12C412.834 71.0267 411.14 71.48 409.14 71.48ZM421.491 50.2H425.851V58.6H429.531L432.971 52.8C433.558 51.8133 434.144 51.1333 434.731 50.76C435.318 50.3867 436.064 50.2 436.971 50.2H439.091V53.76H436.771L434.131 58.16C433.731 58.8533 433.371 59.3333 433.051 59.6C432.758 59.8667 432.358 60.0667 431.851 60.2V60.36C432.384 60.4667 432.851 60.6667 433.251 60.96C433.651 61.2267 434.038 61.7067 434.411 62.4L437.211 67.44H439.491V71H437.011C436.131 71 435.371 70.8 434.731 70.4C434.118 70 433.531 69.2933 432.971 68.28L429.531 62.12H425.851V71H421.491V50.2ZM459.075 71C457.928 71 457.048 70.68 456.435 70.04C455.822 69.3733 455.448 68.5333 455.315 67.52H455.115C454.715 68.8267 453.982 69.8133 452.915 70.48C451.848 71.1467 450.555 71.48 449.035 71.48C446.875 71.48 445.208 70.92 444.035 69.8C442.888 68.68 442.315 67.1733 442.315 65.28C442.315 63.2 443.062 61.64 444.555 60.6C446.075 59.56 448.288 59.04 451.195 59.04H454.955V57.28C454.955 56 454.608 55.0133 453.915 54.32C453.222 53.6267 452.142 53.28 450.675 53.28C449.448 53.28 448.448 53.5467 447.675 54.08C446.902 54.6133 446.248 55.2933 445.715 56.12L443.115 53.76C443.808 52.5867 444.782 51.6267 446.035 50.88C447.288 50.1067 448.928 49.72 450.955 49.72C453.648 49.72 455.715 50.3467 457.155 51.6C458.595 52.8533 459.315 54.6533 459.315 57V67.44H461.515V71H459.075ZM450.275 68.16C451.635 68.16 452.755 67.8667 453.635 67.28C454.515 66.6667 454.955 65.8533 454.955 64.84V61.84H451.275C448.262 61.84 446.755 62.7733 446.755 64.64V65.36C446.755 66.2933 447.062 67 447.675 67.48C448.315 67.9333 449.182 68.16 450.275 68.16ZM464.228 67.44H466.548L468.828 62.4C469.121 61.7867 469.468 61.32 469.868 61C470.295 60.68 470.761 60.4667 471.268 60.36V60.2C470.255 59.9067 469.468 59.1867 468.908 58.04L466.948 53.76H464.628V50.2H466.748C467.681 50.2 468.468 50.4133 469.108 50.84C469.775 51.2667 470.335 51.96 470.788 52.92L473.468 58.6H476.708V50.2H481.068V58.6H484.308L486.988 52.92C487.441 51.96 487.988 51.2667 488.628 50.84C489.295 50.4133 490.095 50.2 491.028 50.2H493.148V53.76H490.828L488.868 58.04C488.308 59.1867 487.521 59.9067 486.508 60.2V60.36C487.015 60.4667 487.468 60.68 487.868 61C488.295 61.32 488.655 61.7867 488.948 62.4L491.228 67.44H493.548V71H491.068C490.161 71 489.388 70.8 488.748 70.4C488.108 69.9733 487.535 69.2133 487.028 68.12L484.308 62.12H481.068V71H476.708V62.12H473.468L470.748 68.12C470.241 69.2133 469.668 69.9733 469.028 70.4C468.388 70.8 467.615 71 466.708 71H464.228V67.44ZM498.21 50.2H502.49V60.36L502.09 65.28H502.25L504.73 60.84L511.93 50.2H515.89V71H511.61V60.84L512.01 55.92H511.85L509.37 60.36L502.17 71H498.21V50.2ZM526.436 53.76H519.796V50.2H537.436V53.76H530.796V71H526.436V53.76ZM549.143 71.48C547.65 71.48 546.317 71.2267 545.143 70.72C543.97 70.2133 542.97 69.4933 542.143 68.56C541.317 67.6 540.677 66.4533 540.223 65.12C539.797 63.76 539.583 62.2533 539.583 60.6C539.583 58.9467 539.797 57.4533 540.223 56.12C540.677 54.76 541.317 53.6133 542.143 52.68C542.97 51.72 543.97 50.9867 545.143 50.48C546.317 49.9733 547.65 49.72 549.143 49.72C550.663 49.72 551.997 49.9867 553.143 50.52C554.317 51.0533 555.29 51.8 556.063 52.76C556.837 53.6933 557.41 54.7867 557.783 56.04C558.183 57.2933 558.383 58.64 558.383 60.08V61.72H544.103V62.4C544.103 64 544.57 65.32 545.503 66.36C546.463 67.3733 547.823 67.88 549.583 67.88C550.863 67.88 551.943 67.6 552.823 67.04C553.703 66.48 554.45 65.72 555.063 64.76L557.623 67.28C556.85 68.56 555.73 69.5867 554.263 70.36C552.797 71.1067 551.09 71.48 549.143 71.48ZM549.143 53.12C548.397 53.12 547.703 53.2533 547.063 53.52C546.45 53.7867 545.917 54.16 545.463 54.64C545.037 55.12 544.703 55.6933 544.463 56.36C544.223 57.0267 544.103 57.76 544.103 58.56V58.84H553.783V58.44C553.783 56.84 553.37 55.56 552.543 54.6C551.717 53.6133 550.583 53.12 549.143 53.12ZM572.663 50.2H577.023V58.56H585.983V50.2H590.343V71H585.983V62.12H577.023V71H572.663V50.2ZM611.809 71C610.663 71 609.783 70.68 609.169 70.04C608.556 69.3733 608.183 68.5333 608.049 67.52H607.849C607.449 68.8267 606.716 69.8133 605.649 70.48C604.583 71.1467 603.289 71.48 601.769 71.48C599.609 71.48 597.943 70.92 596.769 69.8C595.623 68.68 595.049 67.1733 595.049 65.28C595.049 63.2 595.796 61.64 597.289 60.6C598.809 59.56 601.023 59.04 603.929 59.04H607.689V57.28C607.689 56 607.343 55.0133 606.649 54.32C605.956 53.6267 604.876 53.28 603.409 53.28C602.183 53.28 601.183 53.5467 600.409 54.08C599.636 54.6133 598.983 55.2933 598.449 56.12L595.849 53.76C596.543 52.5867 597.516 51.6267 598.769 50.88C600.023 50.1067 601.663 49.72 603.689 49.72C606.383 49.72 608.449 50.3467 609.889 51.6C611.329 52.8533 612.049 54.6533 612.049 57V67.44H614.249V71H611.809ZM603.009 68.16C604.369 68.16 605.489 67.8667 606.369 67.28C607.249 66.6667 607.689 65.8533 607.689 64.84V61.84H604.009C600.996 61.84 599.489 62.7733 599.489 64.64V65.36C599.489 66.2933 599.796 67 600.409 67.48C601.049 67.9333 601.916 68.16 603.009 68.16ZM618.522 50.2H623.802L629.682 60.04H629.762L635.642 50.2H640.682V71H636.402V55.56H636.242L634.882 58.12L629.602 66.92L624.322 58.12L622.962 55.56H622.802V71H618.522V50.2ZM664.534 71.48C663.094 71.48 661.774 71.2267 660.574 70.72C659.401 70.2133 658.401 69.4933 657.574 68.56C656.747 67.6 656.107 66.4533 655.654 65.12C655.201 63.76 654.974 62.2533 654.974 60.6C654.974 58.9467 655.201 57.4533 655.654 56.12C656.107 54.76 656.747 53.6133 657.574 52.68C658.401 51.72 659.401 50.9867 660.574 50.48C661.774 49.9733 663.094 49.72 664.534 49.72C665.974 49.72 667.281 49.9733 668.454 50.48C669.654 50.9867 670.667 51.72 671.494 52.68C672.321 53.6133 672.961 54.76 673.414 56.12C673.867 57.4533 674.094 58.9467 674.094 60.6C674.094 62.2533 673.867 63.76 673.414 65.12C672.961 66.4533 672.321 67.6 671.494 68.56C670.667 69.4933 669.654 70.2133 668.454 70.72C667.281 71.2267 665.974 71.48 664.534 71.48ZM664.534 67.88C666.027 67.88 667.227 67.4267 668.134 66.52C669.041 65.5867 669.494 64.2 669.494 62.36V58.84C669.494 57 669.041 55.6267 668.134 54.72C667.227 53.7867 666.027 53.32 664.534 53.32C663.041 53.32 661.841 53.7867 660.934 54.72C660.027 55.6267 659.574 57 659.574 58.84V62.36C659.574 64.2 660.027 65.5867 660.934 66.52C661.841 67.4267 663.041 67.88 664.534 67.88ZM688.405 50.2H705.485V71H701.125V53.76H692.765V71H688.405V50.2ZM711.725 50.2H716.085V53.64H716.285C716.739 52.3867 717.472 51.4267 718.485 50.76C719.525 50.0667 720.739 49.72 722.125 49.72C724.765 49.72 726.805 50.68 728.245 52.6C729.685 54.4933 730.405 57.16 730.405 60.6C730.405 64.04 729.685 66.72 728.245 68.64C726.805 70.5333 724.765 71.48 722.125 71.48C720.739 71.48 719.525 71.1333 718.485 70.44C717.472 69.7467 716.739 68.7867 716.285 67.56H716.085V79H711.725V50.2ZM720.805 67.72C722.325 67.72 723.539 67.24 724.445 66.28C725.352 65.2933 725.805 64 725.805 62.4V58.8C725.805 57.2 725.352 55.92 724.445 54.96C723.539 53.9733 722.325 53.48 720.805 53.48C719.472 53.48 718.352 53.8133 717.445 54.48C716.539 55.12 716.085 55.9733 716.085 57.04V64.16C716.085 65.2267 716.539 66.0933 717.445 66.76C718.352 67.4 719.472 67.72 720.805 67.72ZM743.557 71.48C742.117 71.48 740.797 71.2267 739.597 70.72C738.424 70.2133 737.424 69.4933 736.597 68.56C735.771 67.6 735.131 66.4533 734.677 65.12C734.224 63.76 733.997 62.2533 733.997 60.6C733.997 58.9467 734.224 57.4533 734.677 56.12C735.131 54.76 735.771 53.6133 736.597 52.68C737.424 51.72 738.424 50.9867 739.597 50.48C740.797 49.9733 742.117 49.72 743.557 49.72C744.997 49.72 746.304 49.9733 747.477 50.48C748.677 50.9867 749.691 51.72 750.517 52.68C751.344 53.6133 751.984 54.76 752.437 56.12C752.891 57.4533 753.117 58.9467 753.117 60.6C753.117 62.2533 752.891 63.76 752.437 65.12C751.984 66.4533 751.344 67.6 750.517 68.56C749.691 69.4933 748.677 70.2133 747.477 70.72C746.304 71.2267 744.997 71.48 743.557 71.48ZM743.557 67.88C745.051 67.88 746.251 67.4267 747.157 66.52C748.064 65.5867 748.517 64.2 748.517 62.36V58.84C748.517 57 748.064 55.6267 747.157 54.72C746.251 53.7867 745.051 53.32 743.557 53.32C742.064 53.32 740.864 53.7867 739.957 54.72C739.051 55.6267 738.597 57 738.597 58.84V62.36C738.597 64.2 739.051 65.5867 739.957 66.52C740.864 67.4267 742.064 67.88 743.557 67.88ZM766.413 71.48C764.919 71.48 763.586 71.24 762.413 70.76C761.239 70.2533 760.239 69.4667 759.413 68.4C758.586 67.3333 757.946 65.9867 757.493 64.36C757.066 62.7067 756.853 60.72 756.853 58.4C756.853 55.5733 757.053 53.1467 757.453 51.12C757.879 49.0667 758.533 47.3733 759.413 46.04C760.319 44.68 761.453 43.64 762.813 42.92C764.199 42.2 765.853 41.76 767.773 41.6L774.413 41V45.28L767.533 45.92C766.439 46.0267 765.519 46.24 764.773 46.56C764.053 46.88 763.453 47.3733 762.973 48.04C762.519 48.68 762.173 49.5467 761.933 50.64C761.693 51.7067 761.519 53.04 761.413 54.64H761.613C762.146 53.2533 762.866 52.2133 763.773 51.52C764.706 50.8267 765.959 50.48 767.533 50.48C768.759 50.48 769.879 50.72 770.893 51.2C771.933 51.6533 772.826 52.32 773.573 53.2C774.319 54.08 774.893 55.16 775.293 56.44C775.719 57.6933 775.933 59.1333 775.933 60.76C775.933 62.3867 775.706 63.8667 775.253 65.2C774.799 66.5067 774.159 67.6267 773.333 68.56C772.506 69.4933 771.506 70.2133 770.333 70.72C769.159 71.2267 767.853 71.48 766.413 71.48ZM766.413 67.88C767.933 67.88 769.133 67.4133 770.013 66.48C770.893 65.52 771.333 64.12 771.333 62.28V59.68C771.333 57.84 770.893 56.4533 770.013 55.52C769.133 54.56 767.933 54.08 766.413 54.08C764.813 54.08 763.586 54.5067 762.733 55.36C761.906 56.2133 761.493 57.36 761.493 58.8V62.28C761.493 64.12 761.933 65.52 762.813 66.48C763.693 67.4133 764.893 67.88 766.413 67.88ZM777.874 67.44H780.594C780.914 67.0133 781.194 66.5067 781.434 65.92C781.674 65.3067 781.874 64.56 782.034 63.68C782.194 62.8 782.314 61.7733 782.394 60.6C782.5 59.4 782.554 58 782.554 56.4V50.2H797.674V71H793.314V53.76H786.754V56.6C786.754 58.52 786.674 60.2 786.514 61.64C786.38 63.08 786.18 64.32 785.914 65.36C785.674 66.4 785.367 67.2667 784.994 67.96C784.647 68.6267 784.274 69.16 783.874 69.56C783.314 70.12 782.674 70.52 781.954 70.76C781.234 71 780.367 71.12 779.354 71.12H777.874V67.44ZM812.112 71.48C810.619 71.48 809.285 71.2267 808.112 70.72C806.939 70.2133 805.939 69.4933 805.112 68.56C804.285 67.6 803.645 66.4533 803.192 65.12C802.765 63.76 802.552 62.2533 802.552 60.6C802.552 58.9467 802.765 57.4533 803.192 56.12C803.645 54.76 804.285 53.6133 805.112 52.68C805.939 51.72 806.939 50.9867 808.112 50.48C809.285 49.9733 810.619 49.72 812.112 49.72C813.632 49.72 814.965 49.9867 816.112 50.52C817.285 51.0533 818.259 51.8 819.032 52.76C819.805 53.6933 820.379 54.7867 820.752 56.04C821.152 57.2933 821.352 58.64 821.352 60.08V61.72H807.072V62.4C807.072 64 807.539 65.32 808.472 66.36C809.432 67.3733 810.792 67.88 812.552 67.88C813.832 67.88 814.912 67.6 815.792 67.04C816.672 66.48 817.419 65.72 818.032 64.76L820.592 67.28C819.819 68.56 818.699 69.5867 817.232 70.36C815.765 71.1067 814.059 71.48 812.112 71.48ZM812.112 53.12C811.365 53.12 810.672 53.2533 810.032 53.52C809.419 53.7867 808.885 54.16 808.432 54.64C808.005 55.12 807.672 55.6933 807.432 56.36C807.192 57.0267 807.072 57.76 807.072 58.56V58.84H816.752V58.44C816.752 56.84 816.339 55.56 815.512 54.6C814.685 53.6133 813.552 53.12 812.112 53.12ZM826.179 50.2H831.459L837.339 60.04H837.419L843.299 50.2H848.339V71H844.059V55.56H843.899L842.539 58.12L837.259 66.92L831.979 58.12L830.619 55.56H830.459V71H826.179V50.2ZM869.817 71C868.67 71 867.79 70.68 867.177 70.04C866.564 69.3733 866.19 68.5333 866.057 67.52H865.857C865.457 68.8267 864.724 69.8133 863.657 70.48C862.59 71.1467 861.297 71.48 859.777 71.48C857.617 71.48 855.95 70.92 854.777 69.8C853.63 68.68 853.057 67.1733 853.057 65.28C853.057 63.2 853.804 61.64 855.297 60.6C856.817 59.56 859.03 59.04 861.937 59.04H865.697V57.28C865.697 56 865.35 55.0133 864.657 54.32C863.964 53.6267 862.884 53.28 861.417 53.28C860.19 53.28 859.19 53.5467 858.417 54.08C857.644 54.6133 856.99 55.2933 856.457 56.12L853.857 53.76C854.55 52.5867 855.524 51.6267 856.777 50.88C858.03 50.1067 859.67 49.72 861.697 49.72C864.39 49.72 866.457 50.3467 867.897 51.6C869.337 52.8533 870.057 54.6533 870.057 57V67.44H872.257V71H869.817ZM861.017 68.16C862.377 68.16 863.497 67.8667 864.377 67.28C865.257 66.6667 865.697 65.8533 865.697 64.84V61.84H862.017C859.004 61.84 857.497 62.7733 857.497 64.64V65.36C857.497 66.2933 857.804 67 858.417 67.48C859.057 67.9333 859.924 68.16 861.017 68.16ZM874.327 71L881.647 60.48L874.527 50.2H879.567L884.247 57.44H884.367L889.167 50.2H893.807L886.687 60.44L893.927 71H888.887L884.087 63.44H883.967L878.967 71H874.327Z" fill="#1A1E29"/>
<rect x="416.5" y="104.5" width="391" height="39" rx="1.5" fill="white" stroke="#E5E5E5"/>
<path d="M433.302 119.228H437.32C438.132 119.228 438.767 119.457 439.224 119.914C439.691 120.371 439.924 120.983 439.924 121.748C439.924 122.112 439.873 122.42 439.77 122.672C439.667 122.924 439.537 123.134 439.378 123.302C439.219 123.461 439.047 123.582 438.86 123.666C438.673 123.741 438.501 123.792 438.342 123.82V123.904C438.519 123.913 438.715 123.96 438.93 124.044C439.154 124.128 439.364 124.263 439.56 124.45C439.756 124.627 439.919 124.861 440.05 125.15C440.19 125.43 440.26 125.771 440.26 126.172C440.26 126.573 440.195 126.947 440.064 127.292C439.943 127.637 439.77 127.936 439.546 128.188C439.322 128.44 439.056 128.641 438.748 128.79C438.44 128.93 438.104 129 437.74 129H433.302V119.228ZM434.478 127.964H437.376C437.88 127.964 438.277 127.838 438.566 127.586C438.855 127.325 439 126.947 439 126.452V125.976C439 125.481 438.855 125.108 438.566 124.856C438.277 124.595 437.88 124.464 437.376 124.464H434.478V127.964ZM434.478 123.456H437.18C437.647 123.456 438.011 123.339 438.272 123.106C438.533 122.873 438.664 122.537 438.664 122.098V121.622C438.664 121.183 438.533 120.847 438.272 120.614C438.011 120.381 437.647 120.264 437.18 120.264H434.478V123.456ZM447.586 129C447.166 129 446.863 128.888 446.676 128.664C446.499 128.44 446.387 128.16 446.34 127.824H446.27C446.112 128.272 445.85 128.608 445.486 128.832C445.122 129.056 444.688 129.168 444.184 129.168C443.419 129.168 442.822 128.972 442.392 128.58C441.972 128.188 441.762 127.656 441.762 126.984C441.762 126.303 442.01 125.78 442.504 125.416C443.008 125.052 443.788 124.87 444.842 124.87H446.27V124.156C446.27 123.643 446.13 123.251 445.85 122.98C445.57 122.709 445.141 122.574 444.562 122.574C444.124 122.574 443.755 122.672 443.456 122.868C443.167 123.064 442.924 123.325 442.728 123.652L442.056 123.022C442.252 122.63 442.565 122.299 442.994 122.028C443.424 121.748 443.965 121.608 444.618 121.608C445.496 121.608 446.177 121.823 446.662 122.252C447.148 122.681 447.39 123.279 447.39 124.044V128.02H448.216V129H447.586ZM444.366 128.216C444.646 128.216 444.903 128.183 445.136 128.118C445.37 128.053 445.57 127.959 445.738 127.838C445.906 127.717 446.037 127.577 446.13 127.418C446.224 127.259 446.27 127.087 446.27 126.9V125.71H444.786C444.142 125.71 443.671 125.803 443.372 125.99C443.083 126.177 442.938 126.447 442.938 126.802V127.096C442.938 127.451 443.064 127.726 443.316 127.922C443.578 128.118 443.928 128.216 444.366 128.216ZM449.815 121.776H450.935V128.02H453.651V121.776H454.771V128.02H457.487V121.776H458.607V129H449.815V121.776ZM463.701 129.168C463.206 129.168 462.758 129.079 462.357 128.902C461.965 128.725 461.624 128.473 461.335 128.146C461.055 127.81 460.836 127.413 460.677 126.956C460.528 126.489 460.453 125.967 460.453 125.388C460.453 124.819 460.528 124.301 460.677 123.834C460.836 123.367 461.055 122.971 461.335 122.644C461.624 122.308 461.965 122.051 462.357 121.874C462.758 121.697 463.206 121.608 463.701 121.608C464.186 121.608 464.62 121.697 465.003 121.874C465.386 122.051 465.712 122.299 465.983 122.616C466.254 122.924 466.459 123.293 466.599 123.722C466.748 124.151 466.823 124.623 466.823 125.136V125.668H461.629V126.004C461.629 126.312 461.676 126.601 461.769 126.872C461.872 127.133 462.012 127.362 462.189 127.558C462.376 127.754 462.6 127.908 462.861 128.02C463.132 128.132 463.435 128.188 463.771 128.188C464.228 128.188 464.625 128.081 464.961 127.866C465.306 127.651 465.572 127.343 465.759 126.942L466.557 127.516C466.324 128.011 465.96 128.412 465.465 128.72C464.97 129.019 464.382 129.168 463.701 129.168ZM463.701 122.546C463.393 122.546 463.113 122.602 462.861 122.714C462.609 122.817 462.39 122.966 462.203 123.162C462.026 123.358 461.886 123.591 461.783 123.862C461.68 124.123 461.629 124.413 461.629 124.73V124.828H465.619V124.674C465.619 124.03 465.442 123.517 465.087 123.134C464.742 122.742 464.28 122.546 463.701 122.546ZM471.977 121.776H473.069V125.78L472.957 127.516H473.013L473.909 125.976L476.793 121.776H477.829V129H476.737V124.996L476.849 123.26H476.793L475.897 124.8L473.013 129H471.977V121.776ZM480.208 121.776H481.678L483.876 125.528H483.932L486.116 121.776H487.572V129H486.48V123.12H486.41L486.004 123.904L483.89 127.488L481.776 123.904L481.37 123.12H481.3V129H480.208V121.776ZM489.312 128.02H490.11L490.572 126.956C490.674 126.713 490.8 126.531 490.95 126.41C491.099 126.279 491.267 126.2 491.454 126.172V126.116C490.81 126.06 490.324 125.85 489.998 125.486C489.671 125.122 489.508 124.632 489.508 124.016C489.508 123.316 489.718 122.77 490.138 122.378C490.558 121.977 491.136 121.776 491.874 121.776H495.066V129H493.946V126.228H492.07L491.314 128.006C491.146 128.398 490.959 128.664 490.754 128.804C490.558 128.935 490.334 129 490.082 129H489.312V128.02ZM493.946 125.276V122.756H492.042C491.622 122.756 491.295 122.835 491.062 122.994C490.828 123.153 490.712 123.419 490.712 123.792V124.254C490.712 124.627 490.828 124.893 491.062 125.052C491.295 125.201 491.622 125.276 492.042 125.276H493.946Z" fill="#1A1E29"/>
<rect x="416.5" y="160.5" width="391" height="39" rx="1.5" fill="white" stroke="#E5E5E5"/>
<path d="M436.592 176.264V185H435.416V176.264H432.308V175.228H439.7V176.264H436.592ZM443.002 185.168C442.507 185.168 442.059 185.079 441.658 184.902C441.266 184.725 440.925 184.473 440.636 184.146C440.356 183.81 440.136 183.413 439.978 182.956C439.828 182.489 439.754 181.967 439.754 181.388C439.754 180.819 439.828 180.301 439.978 179.834C440.136 179.367 440.356 178.971 440.636 178.644C440.925 178.308 441.266 178.051 441.658 177.874C442.059 177.697 442.507 177.608 443.002 177.608C443.487 177.608 443.921 177.697 444.304 177.874C444.686 178.051 445.013 178.299 445.284 178.616C445.554 178.924 445.76 179.293 445.9 179.722C446.049 180.151 446.124 180.623 446.124 181.136V181.668H440.93V182.004C440.93 182.312 440.976 182.601 441.07 182.872C441.172 183.133 441.312 183.362 441.49 183.558C441.676 183.754 441.9 183.908 442.162 184.02C442.432 184.132 442.736 184.188 443.072 184.188C443.529 184.188 443.926 184.081 444.262 183.866C444.607 183.651 444.873 183.343 445.06 182.942L445.858 183.516C445.624 184.011 445.26 184.412 444.766 184.72C444.271 185.019 443.683 185.168 443.002 185.168ZM443.002 178.546C442.694 178.546 442.414 178.602 442.162 178.714C441.91 178.817 441.69 178.966 441.504 179.162C441.326 179.358 441.186 179.591 441.084 179.862C440.981 180.123 440.93 180.413 440.93 180.73V180.828H444.92V180.674C444.92 180.03 444.742 179.517 444.388 179.134C444.042 178.742 443.58 178.546 443.002 178.546ZM446.891 184.02H447.843C447.965 183.852 448.072 183.651 448.165 183.418C448.259 183.185 448.338 182.905 448.403 182.578C448.469 182.251 448.52 181.864 448.557 181.416C448.595 180.968 448.613 180.441 448.613 179.834V177.776H453.499V185H452.379V178.756H449.677V179.862C449.677 180.562 449.649 181.173 449.593 181.696C449.547 182.219 449.477 182.667 449.383 183.04C449.299 183.413 449.197 183.721 449.075 183.964C448.954 184.197 448.823 184.384 448.683 184.524C448.506 184.701 448.31 184.827 448.095 184.902C447.881 184.967 447.624 185 447.325 185H446.891V184.02ZM458.601 185.168C458.107 185.168 457.659 185.079 457.257 184.902C456.865 184.725 456.525 184.473 456.235 184.146C455.955 183.81 455.736 183.413 455.577 182.956C455.428 182.489 455.353 181.967 455.353 181.388C455.353 180.819 455.428 180.301 455.577 179.834C455.736 179.367 455.955 178.971 456.235 178.644C456.525 178.308 456.865 178.051 457.257 177.874C457.659 177.697 458.107 177.608 458.601 177.608C459.087 177.608 459.521 177.697 459.903 177.874C460.286 178.051 460.613 178.299 460.883 178.616C461.154 178.924 461.359 179.293 461.499 179.722C461.649 180.151 461.723 180.623 461.723 181.136V181.668H456.529V182.004C456.529 182.312 456.576 182.601 456.669 182.872C456.772 183.133 456.912 183.362 457.089 183.558C457.276 183.754 457.5 183.908 457.761 184.02C458.032 184.132 458.335 184.188 458.671 184.188C459.129 184.188 459.525 184.081 459.861 183.866C460.207 183.651 460.473 183.343 460.659 182.942L461.457 183.516C461.224 184.011 460.86 184.412 460.365 184.72C459.871 185.019 459.283 185.168 458.601 185.168ZM458.601 178.546C458.293 178.546 458.013 178.602 457.761 178.714C457.509 178.817 457.29 178.966 457.103 179.162C456.926 179.358 456.786 179.591 456.683 179.862C456.581 180.123 456.529 180.413 456.529 180.73V180.828H460.519V180.674C460.519 180.03 460.342 179.517 459.987 179.134C459.642 178.742 459.18 178.546 458.601 178.546ZM467.069 184.244H467.027C466.84 184.524 466.626 184.748 466.383 184.916C466.14 185.084 465.842 185.168 465.487 185.168C464.675 185.168 464.073 184.865 463.681 184.258C463.289 183.642 463.093 182.685 463.093 181.388C463.093 180.091 463.289 179.139 463.681 178.532C464.073 177.916 464.675 177.608 465.487 177.608C465.842 177.608 466.14 177.692 466.383 177.86C466.626 178.028 466.84 178.252 467.027 178.532H467.069V175.06H468.189V178.532H468.231C468.418 178.252 468.632 178.028 468.875 177.86C469.118 177.692 469.416 177.608 469.771 177.608C470.583 177.608 471.185 177.916 471.577 178.532C471.969 179.139 472.165 180.091 472.165 181.388C472.165 182.685 471.969 183.642 471.577 184.258C471.185 184.865 470.583 185.168 469.771 185.168C469.416 185.168 469.118 185.084 468.875 184.916C468.632 184.748 468.418 184.524 468.231 184.244H468.189V187.8H467.069V184.244ZM465.781 184.174C466.649 184.174 467.083 183.847 467.083 183.194V179.582C467.083 178.929 466.649 178.602 465.781 178.602C465.258 178.602 464.88 178.77 464.647 179.106C464.414 179.433 464.297 179.988 464.297 180.772V182.004C464.297 182.788 464.414 183.348 464.647 183.684C464.88 184.011 465.258 184.174 465.781 184.174ZM469.477 184.174C469.99 184.174 470.364 184.011 470.597 183.684C470.84 183.348 470.961 182.788 470.961 182.004V180.772C470.961 179.988 470.84 179.433 470.597 179.106C470.364 178.77 469.99 178.602 469.477 178.602C468.609 178.602 468.175 178.929 468.175 179.582V183.194C468.175 183.847 468.609 184.174 469.477 184.174ZM476.826 185.168C476.341 185.168 475.898 185.079 475.496 184.902C475.095 184.725 474.75 184.473 474.46 184.146C474.18 183.81 473.961 183.413 473.802 182.956C473.644 182.489 473.564 181.967 473.564 181.388C473.564 180.819 473.644 180.301 473.802 179.834C473.961 179.367 474.18 178.971 474.46 178.644C474.75 178.308 475.095 178.051 475.496 177.874C475.898 177.697 476.341 177.608 476.826 177.608C477.312 177.608 477.75 177.697 478.142 177.874C478.544 178.051 478.889 178.308 479.178 178.644C479.468 178.971 479.692 179.367 479.85 179.834C480.009 180.301 480.088 180.819 480.088 181.388C480.088 181.967 480.009 182.489 479.85 182.956C479.692 183.413 479.468 183.81 479.178 184.146C478.889 184.473 478.544 184.725 478.142 184.902C477.75 185.079 477.312 185.168 476.826 185.168ZM476.826 184.174C477.433 184.174 477.928 183.987 478.31 183.614C478.693 183.241 478.884 182.671 478.884 181.906V180.87C478.884 180.105 478.693 179.535 478.31 179.162C477.928 178.789 477.433 178.602 476.826 178.602C476.22 178.602 475.725 178.789 475.342 179.162C474.96 179.535 474.768 180.105 474.768 180.87V181.906C474.768 182.671 474.96 183.241 475.342 183.614C475.725 183.987 476.22 184.174 476.826 184.174ZM481.93 177.776H483.05V180.786H486.662V177.776H487.782V185H486.662V181.766H483.05V185H481.93V177.776ZM492.391 184.02H493.217C493.507 183.553 493.74 182.97 493.917 182.27C494.095 181.57 494.183 180.767 494.183 179.862V177.776H499.069V184.02H500.273V186.96H499.251V185H493.413V186.96H492.391V184.02ZM497.949 184.02V178.756H495.247V179.918C495.247 180.879 495.163 181.701 494.995 182.382C494.837 183.054 494.645 183.6 494.421 184.02H497.949ZM500.827 184.02H501.779C501.9 183.852 502.008 183.651 502.101 183.418C502.194 183.185 502.274 182.905 502.339 182.578C502.404 182.251 502.456 181.864 502.493 181.416C502.53 180.968 502.549 180.441 502.549 179.834V177.776H507.435V185H506.315V178.756H503.613V179.862C503.613 180.562 503.585 181.173 503.529 181.696C503.482 182.219 503.412 182.667 503.319 183.04C503.235 183.413 503.132 183.721 503.011 183.964C502.89 184.197 502.759 184.384 502.619 184.524C502.442 184.701 502.246 184.827 502.031 184.902C501.816 184.967 501.56 185 501.261 185H500.827V184.02ZM509.177 184.02H509.975L510.437 182.956C510.54 182.713 510.666 182.531 510.815 182.41C510.964 182.279 511.132 182.2 511.319 182.172V182.116C510.675 182.06 510.19 181.85 509.863 181.486C509.536 181.122 509.373 180.632 509.373 180.016C509.373 179.316 509.583 178.77 510.003 178.378C510.423 177.977 511.002 177.776 511.739 177.776H514.931V185H513.811V182.228H511.935L511.179 184.006C511.011 184.398 510.824 184.664 510.619 184.804C510.423 184.935 510.199 185 509.947 185H509.177V184.02ZM513.811 181.276V178.756H511.907C511.487 178.756 511.16 178.835 510.927 178.994C510.694 179.153 510.577 179.419 510.577 179.792V180.254C510.577 180.627 510.694 180.893 510.927 181.052C511.16 181.201 511.487 181.276 511.907 181.276H513.811ZM523.31 185.168C522.806 185.168 522.353 185.079 521.952 184.902C521.55 184.725 521.21 184.473 520.93 184.146C520.659 183.819 520.449 183.423 520.3 182.956C520.16 182.489 520.09 181.967 520.09 181.388C520.09 180.809 520.16 180.287 520.3 179.82C520.449 179.353 520.659 178.957 520.93 178.63C521.21 178.303 521.55 178.051 521.952 177.874C522.353 177.697 522.806 177.608 523.31 177.608C524.028 177.608 524.602 177.767 525.032 178.084C525.47 178.392 525.797 178.798 526.012 179.302L525.074 179.778C524.943 179.405 524.728 179.115 524.43 178.91C524.131 178.705 523.758 178.602 523.31 178.602C522.974 178.602 522.68 178.658 522.428 178.77C522.176 178.873 521.966 179.022 521.798 179.218C521.63 179.405 521.504 179.633 521.42 179.904C521.336 180.165 521.294 180.455 521.294 180.772V182.004C521.294 182.639 521.462 183.161 521.798 183.572C522.143 183.973 522.647 184.174 523.31 184.174C524.215 184.174 524.868 183.754 525.27 182.914L526.082 183.46C525.848 183.983 525.498 184.398 525.032 184.706C524.574 185.014 524 185.168 523.31 185.168ZM527.663 177.776H531.303C531.891 177.776 532.353 177.944 532.689 178.28C533.025 178.607 533.193 179.05 533.193 179.61C533.193 180.515 532.721 181.024 531.779 181.136V181.192C532.339 181.239 532.754 181.416 533.025 181.724C533.305 182.023 533.445 182.396 533.445 182.844C533.445 183.133 533.398 183.409 533.305 183.67C533.221 183.931 533.095 184.16 532.927 184.356C532.759 184.552 532.553 184.711 532.311 184.832C532.068 184.944 531.793 185 531.485 185H527.663V177.776ZM531.149 184.076C531.485 184.076 531.751 183.987 531.947 183.81C532.143 183.633 532.241 183.381 532.241 183.054V182.732C532.241 182.405 532.143 182.153 531.947 181.976C531.751 181.799 531.485 181.71 531.149 181.71H528.783V184.076H531.149ZM531.009 180.8C531.317 180.8 531.555 180.725 531.723 180.576C531.9 180.417 531.989 180.193 531.989 179.904V179.596C531.989 179.307 531.9 179.087 531.723 178.938C531.555 178.779 531.317 178.7 531.009 178.7H528.783V180.8H531.009ZM534.757 184.02H535.555L536.017 182.956C536.12 182.713 536.246 182.531 536.395 182.41C536.544 182.279 536.712 182.2 536.899 182.172V182.116C536.255 182.06 535.77 181.85 535.443 181.486C535.116 181.122 534.953 180.632 534.953 180.016C534.953 179.316 535.163 178.77 535.583 178.378C536.003 177.977 536.582 177.776 537.319 177.776H540.511V185H539.391V182.228H537.515L536.759 184.006C536.591 184.398 536.404 184.664 536.199 184.804C536.003 184.935 535.779 185 535.527 185H534.757V184.02ZM539.391 181.276V178.756H537.487C537.067 178.756 536.74 178.835 536.507 178.994C536.274 179.153 536.157 179.419 536.157 179.792V180.254C536.157 180.627 536.274 180.893 536.507 181.052C536.74 181.201 537.067 181.276 537.487 181.276H539.391ZM544.937 185.168C544.2 185.168 543.612 185.042 543.173 184.79C542.734 184.538 542.375 184.179 542.095 183.712L542.935 183.04C543.122 183.395 543.378 183.675 543.705 183.88C544.041 184.076 544.452 184.174 544.937 184.174C545.525 184.174 545.959 184.067 546.239 183.852C546.528 183.637 546.673 183.362 546.673 183.026V182.858C546.673 182.494 546.547 182.219 546.295 182.032C546.052 181.836 545.707 181.738 545.259 181.738H543.719V180.8H545.119C545.567 180.8 545.912 180.711 546.155 180.534C546.398 180.357 546.519 180.105 546.519 179.778V179.61C546.519 179.302 546.393 179.059 546.141 178.882C545.898 178.695 545.488 178.602 544.909 178.602C544.433 178.602 544.041 178.7 543.733 178.896C543.425 179.083 543.178 179.339 542.991 179.666L542.249 179.036C542.473 178.616 542.8 178.275 543.229 178.014C543.668 177.743 544.246 177.608 544.965 177.608C545.908 177.608 546.603 177.781 547.051 178.126C547.499 178.471 547.723 178.947 547.723 179.554C547.723 180.002 547.602 180.357 547.359 180.618C547.126 180.879 546.785 181.061 546.337 181.164V181.22C546.85 181.295 547.233 181.481 547.485 181.78C547.746 182.069 547.877 182.443 547.877 182.9C547.877 183.6 547.611 184.155 547.079 184.566C546.556 184.967 545.842 185.168 544.937 185.168ZM549.907 177.776H550.999V181.78L550.887 183.516H550.943L551.839 181.976L554.723 177.776H555.759V185H554.667V180.996L554.779 179.26H554.723L553.827 180.8L550.943 185H549.907V177.776Z" fill="#1A1E29"/>
<rect x="416.5" y="216.5" width="391" height="39" rx="1.5" fill="white" stroke="#E5E5E5"/>
<path d="M434.646 235.54H438.762V235.33C438.762 234.322 438.529 233.533 438.062 232.964C437.595 232.395 436.914 232.11 436.018 232.11C435.374 232.11 434.847 232.264 434.436 232.572C434.035 232.871 433.736 233.272 433.54 233.776L432.588 233.202C432.896 232.521 433.33 231.993 433.89 231.62C434.459 231.247 435.169 231.06 436.018 231.06C437.306 231.06 438.295 231.485 438.986 232.334C439.677 233.174 440.022 234.415 440.022 236.058C440.022 237.701 439.677 238.965 438.986 239.852C438.295 240.729 437.306 241.168 436.018 241.168C435.15 241.168 434.427 240.972 433.848 240.58C433.269 240.179 432.826 239.633 432.518 238.942L433.456 238.354C433.652 238.886 433.96 239.315 434.38 239.642C434.8 239.959 435.346 240.118 436.018 240.118C436.466 240.118 436.858 240.039 437.194 239.88C437.539 239.721 437.824 239.497 438.048 239.208C438.281 238.909 438.459 238.555 438.58 238.144C438.701 237.733 438.762 237.276 438.762 236.772V236.576H434.646V235.54ZM440.807 240.02H441.759C441.881 239.852 441.988 239.651 442.081 239.418C442.175 239.185 442.254 238.905 442.319 238.578C442.385 238.251 442.436 237.864 442.473 237.416C442.511 236.968 442.529 236.441 442.529 235.834V233.776H447.415V241H446.295V234.756H443.593V235.862C443.593 236.562 443.565 237.173 443.509 237.696C443.463 238.219 443.393 238.667 443.299 239.04C443.215 239.413 443.113 239.721 442.991 239.964C442.87 240.197 442.739 240.384 442.599 240.524C442.422 240.701 442.226 240.827 442.011 240.902C441.797 240.967 441.54 241 441.241 241H440.807V240.02ZM452.517 241.168C452.023 241.168 451.575 241.079 451.173 240.902C450.781 240.725 450.441 240.473 450.151 240.146C449.871 239.81 449.652 239.413 449.493 238.956C449.344 238.489 449.269 237.967 449.269 237.388C449.269 236.819 449.344 236.301 449.493 235.834C449.652 235.367 449.871 234.971 450.151 234.644C450.441 234.308 450.781 234.051 451.173 233.874C451.575 233.697 452.023 233.608 452.517 233.608C453.003 233.608 453.437 233.697 453.819 233.874C454.202 234.051 454.529 234.299 454.799 234.616C455.07 234.924 455.275 235.293 455.415 235.722C455.565 236.151 455.639 236.623 455.639 237.136V237.668H450.445V238.004C450.445 238.312 450.492 238.601 450.585 238.872C450.688 239.133 450.828 239.362 451.005 239.558C451.192 239.754 451.416 239.908 451.677 240.02C451.948 240.132 452.251 240.188 452.587 240.188C453.045 240.188 453.441 240.081 453.777 239.866C454.123 239.651 454.389 239.343 454.575 238.942L455.373 239.516C455.14 240.011 454.776 240.412 454.281 240.72C453.787 241.019 453.199 241.168 452.517 241.168ZM452.517 234.546C452.209 234.546 451.929 234.602 451.677 234.714C451.425 234.817 451.206 234.966 451.019 235.162C450.842 235.358 450.702 235.591 450.599 235.862C450.497 236.123 450.445 236.413 450.445 236.73V236.828H454.435V236.674C454.435 236.03 454.258 235.517 453.903 235.134C453.558 234.742 453.096 234.546 452.517 234.546ZM457.485 233.776H458.605V236.8H460.047L461.447 234.588C461.55 234.42 461.648 234.285 461.741 234.182C461.834 234.07 461.928 233.986 462.021 233.93C462.114 233.874 462.212 233.837 462.315 233.818C462.418 233.79 462.534 233.776 462.665 233.776H463.323V234.756H462.455L461.321 236.548C461.246 236.669 461.181 236.767 461.125 236.842C461.069 236.917 461.013 236.982 460.957 237.038C460.901 237.085 460.84 237.127 460.775 237.164C460.71 237.192 460.63 237.22 460.537 237.248V237.304C460.733 237.332 460.901 237.397 461.041 237.5C461.19 237.593 461.344 237.78 461.503 238.06L462.609 240.02H463.435V241H462.623C462.38 241 462.156 240.939 461.951 240.818C461.755 240.687 461.564 240.454 461.377 240.118L460.047 237.752H458.605V241H457.485V233.776ZM466.736 234.756H464.272V233.776H470.32V234.756H467.856V241H466.736V234.756ZM471.786 233.776H472.906V234.952H472.962C473.148 234.495 473.419 234.159 473.774 233.944C474.138 233.72 474.572 233.608 475.076 233.608C475.524 233.608 475.93 233.697 476.294 233.874C476.658 234.051 476.966 234.303 477.218 234.63C477.479 234.957 477.675 235.353 477.806 235.82C477.946 236.287 478.016 236.809 478.016 237.388C478.016 237.967 477.946 238.489 477.806 238.956C477.675 239.423 477.479 239.819 477.218 240.146C476.966 240.473 476.658 240.725 476.294 240.902C475.93 241.079 475.524 241.168 475.076 241.168C474.096 241.168 473.391 240.72 472.962 239.824H472.906V243.8H471.786V233.776ZM474.768 240.16C475.402 240.16 475.902 239.964 476.266 239.572C476.63 239.171 476.812 238.648 476.812 238.004V236.772C476.812 236.128 476.63 235.61 476.266 235.218C475.902 234.817 475.402 234.616 474.768 234.616C474.516 234.616 474.273 234.653 474.04 234.728C473.816 234.793 473.62 234.887 473.452 235.008C473.284 235.129 473.148 235.279 473.046 235.456C472.952 235.624 472.906 235.806 472.906 236.002V238.69C472.906 238.923 472.952 239.133 473.046 239.32C473.148 239.497 473.284 239.651 473.452 239.782C473.62 239.903 473.816 239.997 474.04 240.062C474.273 240.127 474.516 240.16 474.768 240.16ZM482.637 241.168C482.151 241.168 481.708 241.079 481.307 240.902C480.905 240.725 480.56 240.473 480.271 240.146C479.991 239.81 479.771 239.413 479.613 238.956C479.454 238.489 479.375 237.967 479.375 237.388C479.375 236.819 479.454 236.301 479.613 235.834C479.771 235.367 479.991 234.971 480.271 234.644C480.56 234.308 480.905 234.051 481.307 233.874C481.708 233.697 482.151 233.608 482.637 233.608C483.122 233.608 483.561 233.697 483.953 233.874C484.354 234.051 484.699 234.308 484.989 234.644C485.278 234.971 485.502 235.367 485.661 235.834C485.819 236.301 485.899 236.819 485.899 237.388C485.899 237.967 485.819 238.489 485.661 238.956C485.502 239.413 485.278 239.81 484.989 240.146C484.699 240.473 484.354 240.725 483.953 240.902C483.561 241.079 483.122 241.168 482.637 241.168ZM482.637 240.174C483.243 240.174 483.738 239.987 484.121 239.614C484.503 239.241 484.695 238.671 484.695 237.906V236.87C484.695 236.105 484.503 235.535 484.121 235.162C483.738 234.789 483.243 234.602 482.637 234.602C482.03 234.602 481.535 234.789 481.153 235.162C480.77 235.535 480.579 236.105 480.579 236.87V237.906C480.579 238.671 480.77 239.241 481.153 239.614C481.535 239.987 482.03 240.174 482.637 240.174ZM487.741 233.776H488.861V236.786H492.473V233.776H493.593V241H492.473V237.766H488.861V241H487.741V233.776ZM495.971 233.776H497.091V236.786H500.703V233.776H501.823V241H500.703V237.766H497.091V241H495.971V233.776ZM509.452 241C509.032 241 508.728 240.888 508.542 240.664C508.364 240.44 508.252 240.16 508.206 239.824H508.136C507.977 240.272 507.716 240.608 507.352 240.832C506.988 241.056 506.554 241.168 506.05 241.168C505.284 241.168 504.687 240.972 504.258 240.58C503.838 240.188 503.628 239.656 503.628 238.984C503.628 238.303 503.875 237.78 504.37 237.416C504.874 237.052 505.653 236.87 506.708 236.87H508.136V236.156C508.136 235.643 507.996 235.251 507.716 234.98C507.436 234.709 507.006 234.574 506.428 234.574C505.989 234.574 505.62 234.672 505.322 234.868C505.032 235.064 504.79 235.325 504.594 235.652L503.922 235.022C504.118 234.63 504.43 234.299 504.86 234.028C505.289 233.748 505.83 233.608 506.484 233.608C507.361 233.608 508.042 233.823 508.528 234.252C509.013 234.681 509.256 235.279 509.256 236.044V240.02H510.082V241H509.452ZM506.232 240.216C506.512 240.216 506.768 240.183 507.002 240.118C507.235 240.053 507.436 239.959 507.604 239.838C507.772 239.717 507.902 239.577 507.996 239.418C508.089 239.259 508.136 239.087 508.136 238.9V237.71H506.652C506.008 237.71 505.536 237.803 505.238 237.99C504.948 238.177 504.804 238.447 504.804 238.802V239.096C504.804 239.451 504.93 239.726 505.182 239.922C505.443 240.118 505.793 240.216 506.232 240.216ZM511.036 240.02H511.834L512.296 238.956C512.399 238.713 512.525 238.531 512.674 238.41C512.824 238.279 512.992 238.2 513.178 238.172V238.116C512.534 238.06 512.049 237.85 511.722 237.486C511.396 237.122 511.232 236.632 511.232 236.016C511.232 235.316 511.442 234.77 511.862 234.378C512.282 233.977 512.861 233.776 513.598 233.776H516.79V241H515.67V238.228H513.794L513.038 240.006C512.87 240.398 512.684 240.664 512.478 240.804C512.282 240.935 512.058 241 511.806 241H511.036V240.02ZM515.67 237.276V234.756H513.766C513.346 234.756 513.02 234.835 512.786 234.994C512.553 235.153 512.436 235.419 512.436 235.792V236.254C512.436 236.627 512.553 236.893 512.786 237.052C513.02 237.201 513.346 237.276 513.766 237.276H515.67ZM522.481 233.776H528.123V241H527.003V234.756H523.601V241H522.481V233.776ZM533.236 241.168C532.751 241.168 532.308 241.079 531.906 240.902C531.505 240.725 531.16 240.473 530.87 240.146C530.59 239.81 530.371 239.413 530.212 238.956C530.054 238.489 529.974 237.967 529.974 237.388C529.974 236.819 530.054 236.301 530.212 235.834C530.371 235.367 530.59 234.971 530.87 234.644C531.16 234.308 531.505 234.051 531.906 233.874C532.308 233.697 532.751 233.608 533.236 233.608C533.722 233.608 534.16 233.697 534.552 233.874C534.954 234.051 535.299 234.308 535.588 234.644C535.878 234.971 536.102 235.367 536.26 235.834C536.419 236.301 536.498 236.819 536.498 237.388C536.498 237.967 536.419 238.489 536.26 238.956C536.102 239.413 535.878 239.81 535.588 240.146C535.299 240.473 534.954 240.725 534.552 240.902C534.16 241.079 533.722 241.168 533.236 241.168ZM533.236 240.174C533.843 240.174 534.338 239.987 534.72 239.614C535.103 239.241 535.294 238.671 535.294 237.906V236.87C535.294 236.105 535.103 235.535 534.72 235.162C534.338 234.789 533.843 234.602 533.236 234.602C532.63 234.602 532.135 234.789 531.752 235.162C531.37 235.535 531.178 236.105 531.178 236.87V237.906C531.178 238.671 531.37 239.241 531.752 239.614C532.135 239.987 532.63 240.174 533.236 240.174ZM542.372 237.682H542.302C542.078 237.934 541.803 238.144 541.476 238.312C541.15 238.471 540.72 238.55 540.188 238.55C539.451 238.55 538.877 238.368 538.466 238.004C538.056 237.631 537.85 237.071 537.85 236.324V233.776H538.97V236.226C538.97 237.103 539.488 237.542 540.524 237.542C541.056 237.542 541.495 237.472 541.84 237.332C542.195 237.183 542.372 236.959 542.372 236.66V233.776H543.492V241H542.372V237.682ZM547.428 234.756H544.964V233.776H551.012V234.756H548.548V241H547.428V234.756ZM557.549 241C557.129 241 556.826 240.888 556.639 240.664C556.462 240.44 556.35 240.16 556.303 239.824H556.233C556.075 240.272 555.813 240.608 555.449 240.832C555.085 241.056 554.651 241.168 554.147 241.168C553.382 241.168 552.785 240.972 552.355 240.58C551.935 240.188 551.725 239.656 551.725 238.984C551.725 238.303 551.973 237.78 552.467 237.416C552.971 237.052 553.751 236.87 554.805 236.87H556.233V236.156C556.233 235.643 556.093 235.251 555.813 234.98C555.533 234.709 555.104 234.574 554.525 234.574C554.087 234.574 553.718 234.672 553.419 234.868C553.13 235.064 552.887 235.325 552.691 235.652L552.019 235.022C552.215 234.63 552.528 234.299 552.957 234.028C553.387 233.748 553.928 233.608 554.581 233.608C555.459 233.608 556.14 233.823 556.625 234.252C557.111 234.681 557.353 235.279 557.353 236.044V240.02H558.179V241H557.549ZM554.329 240.216C554.609 240.216 554.866 240.183 555.099 240.118C555.333 240.053 555.533 239.959 555.701 239.838C555.869 239.717 556 239.577 556.093 239.418C556.187 239.259 556.233 239.087 556.233 238.9V237.71H554.749C554.105 237.71 553.634 237.803 553.335 237.99C553.046 238.177 552.901 238.447 552.901 238.802V239.096C552.901 239.451 553.027 239.726 553.279 239.922C553.541 240.118 553.891 240.216 554.329 240.216ZM562.008 240.02H562.834C563.124 239.553 563.357 238.97 563.534 238.27C563.712 237.57 563.8 236.767 563.8 235.862V233.776H568.686V240.02H569.89V242.96H568.868V241H563.03V242.96H562.008V240.02ZM567.566 240.02V234.756H564.864V235.918C564.864 236.879 564.78 237.701 564.612 238.382C564.454 239.054 564.262 239.6 564.038 240.02H567.566ZM570.444 240.02H571.396C571.517 239.852 571.625 239.651 571.718 239.418C571.811 239.185 571.891 238.905 571.956 238.578C572.021 238.251 572.073 237.864 572.11 237.416C572.147 236.968 572.166 236.441 572.166 235.834V233.776H577.052V241H575.932V234.756H573.23V235.862C573.23 236.562 573.202 237.173 573.146 237.696C573.099 238.219 573.029 238.667 572.936 239.04C572.852 239.413 572.749 239.721 572.628 239.964C572.507 240.197 572.376 240.384 572.236 240.524C572.059 240.701 571.863 240.827 571.648 240.902C571.433 240.967 571.177 241 570.878 241H570.444V240.02ZM578.794 240.02H579.592L580.054 238.956C580.157 238.713 580.283 238.531 580.432 238.41C580.581 238.279 580.749 238.2 580.936 238.172V238.116C580.292 238.06 579.807 237.85 579.48 237.486C579.153 237.122 578.99 236.632 578.99 236.016C578.99 235.316 579.2 234.77 579.62 234.378C580.04 233.977 580.619 233.776 581.356 233.776H584.548V241H583.428V238.228H581.552L580.796 240.006C580.628 240.398 580.441 240.664 580.236 240.804C580.04 240.935 579.816 241 579.564 241H578.794V240.02ZM583.428 237.276V234.756H581.524C581.104 234.756 580.777 234.835 580.544 234.994C580.311 235.153 580.194 235.419 580.194 235.792V236.254C580.194 236.627 580.311 236.893 580.544 237.052C580.777 237.201 581.104 237.276 581.524 237.276H583.428ZM592.969 241.168C592.483 241.168 592.04 241.079 591.639 240.902C591.237 240.725 590.892 240.473 590.603 240.146C590.323 239.81 590.103 239.413 589.945 238.956C589.786 238.489 589.707 237.967 589.707 237.388C589.707 236.819 589.786 236.301 589.945 235.834C590.103 235.367 590.323 234.971 590.603 234.644C590.892 234.308 591.237 234.051 591.639 233.874C592.04 233.697 592.483 233.608 592.969 233.608C593.454 233.608 593.893 233.697 594.285 233.874C594.686 234.051 595.031 234.308 595.321 234.644C595.61 234.971 595.834 235.367 595.993 235.834C596.151 236.301 596.231 236.819 596.231 237.388C596.231 237.967 596.151 238.489 595.993 238.956C595.834 239.413 595.61 239.81 595.321 240.146C595.031 240.473 594.686 240.725 594.285 240.902C593.893 241.079 593.454 241.168 592.969 241.168ZM592.969 240.174C593.575 240.174 594.07 239.987 594.453 239.614C594.835 239.241 595.027 238.671 595.027 237.906V236.87C595.027 236.105 594.835 235.535 594.453 235.162C594.07 234.789 593.575 234.602 592.969 234.602C592.362 234.602 591.867 234.789 591.485 235.162C591.102 235.535 590.911 236.105 590.911 236.87V237.906C590.911 238.671 591.102 239.241 591.485 239.614C591.867 239.987 592.362 240.174 592.969 240.174ZM599.449 234.756H596.985V233.776H603.033V234.756H600.569V241H599.449V234.756ZM604.499 233.776H608.139C608.727 233.776 609.189 233.944 609.525 234.28C609.861 234.607 610.029 235.05 610.029 235.61C610.029 236.515 609.557 237.024 608.615 237.136V237.192C609.175 237.239 609.59 237.416 609.861 237.724C610.141 238.023 610.281 238.396 610.281 238.844C610.281 239.133 610.234 239.409 610.141 239.67C610.057 239.931 609.931 240.16 609.763 240.356C609.595 240.552 609.389 240.711 609.147 240.832C608.904 240.944 608.629 241 608.321 241H604.499V233.776ZM607.985 240.076C608.321 240.076 608.587 239.987 608.783 239.81C608.979 239.633 609.077 239.381 609.077 239.054V238.732C609.077 238.405 608.979 238.153 608.783 237.976C608.587 237.799 608.321 237.71 607.985 237.71H605.619V240.076H607.985ZM607.845 236.8C608.153 236.8 608.391 236.725 608.559 236.576C608.736 236.417 608.825 236.193 608.825 235.904V235.596C608.825 235.307 608.736 235.087 608.559 234.938C608.391 234.779 608.153 234.7 607.845 234.7H605.619V236.8H607.845ZM615.021 241.168C614.527 241.168 614.079 241.079 613.677 240.902C613.285 240.725 612.945 240.473 612.655 240.146C612.375 239.81 612.156 239.413 611.997 238.956C611.848 238.489 611.773 237.967 611.773 237.388C611.773 236.819 611.848 236.301 611.997 235.834C612.156 235.367 612.375 234.971 612.655 234.644C612.945 234.308 613.285 234.051 613.677 233.874C614.079 233.697 614.527 233.608 615.021 233.608C615.507 233.608 615.941 233.697 616.323 233.874C616.706 234.051 617.033 234.299 617.303 234.616C617.574 234.924 617.779 235.293 617.919 235.722C618.069 236.151 618.143 236.623 618.143 237.136V237.668H612.949V238.004C612.949 238.312 612.996 238.601 613.089 238.872C613.192 239.133 613.332 239.362 613.509 239.558C613.696 239.754 613.92 239.908 614.181 240.02C614.452 240.132 614.755 240.188 615.091 240.188C615.549 240.188 615.945 240.081 616.281 239.866C616.627 239.651 616.893 239.343 617.079 238.942L617.877 239.516C617.644 240.011 617.28 240.412 616.785 240.72C616.291 241.019 615.703 241.168 615.021 241.168ZM615.021 234.546C614.713 234.546 614.433 234.602 614.181 234.714C613.929 234.817 613.71 234.966 613.523 235.162C613.346 235.358 613.206 235.591 613.103 235.862C613.001 236.123 612.949 236.413 612.949 236.73V236.828H616.939V236.674C616.939 236.03 616.762 235.517 616.407 235.134C616.062 234.742 615.6 234.546 615.021 234.546ZM621.365 234.756H618.901V233.776H624.949V234.756H622.485V241H621.365V234.756ZM631.487 241C631.067 241 630.764 240.888 630.577 240.664C630.4 240.44 630.288 240.16 630.241 239.824H630.171C630.012 240.272 629.751 240.608 629.387 240.832C629.023 241.056 628.589 241.168 628.085 241.168C627.32 241.168 626.722 240.972 626.293 240.58C625.873 240.188 625.663 239.656 625.663 238.984C625.663 238.303 625.91 237.78 626.405 237.416C626.909 237.052 627.688 236.87 628.743 236.87H630.171V236.156C630.171 235.643 630.031 235.251 629.751 234.98C629.471 234.709 629.042 234.574 628.463 234.574C628.024 234.574 627.656 234.672 627.357 234.868C627.068 235.064 626.825 235.325 626.629 235.652L625.957 235.022C626.153 234.63 626.466 234.299 626.895 234.028C627.324 233.748 627.866 233.608 628.519 233.608C629.396 233.608 630.078 233.823 630.563 234.252C631.048 234.681 631.291 235.279 631.291 236.044V240.02H632.117V241H631.487ZM628.267 240.216C628.547 240.216 628.804 240.183 629.037 240.118C629.27 240.053 629.471 239.959 629.639 239.838C629.807 239.717 629.938 239.577 630.031 239.418C630.124 239.259 630.171 239.087 630.171 238.9V237.71H628.687C628.043 237.71 627.572 237.803 627.273 237.99C626.984 238.177 626.839 238.447 626.839 238.802V239.096C626.839 239.451 626.965 239.726 627.217 239.922C627.478 240.118 627.828 240.216 628.267 240.216Z" fill="#1A1E29"/>
<rect x="416.5" y="272.5" width="391" height="119" rx="1.5" fill="white" stroke="#E5E5E5"/>
<path d="M433.302 287.228H437.32C438.132 287.228 438.767 287.457 439.224 287.914C439.691 288.371 439.924 288.983 439.924 289.748C439.924 290.112 439.873 290.42 439.77 290.672C439.667 290.924 439.537 291.134 439.378 291.302C439.219 291.461 439.047 291.582 438.86 291.666C438.673 291.741 438.501 291.792 438.342 291.82V291.904C438.519 291.913 438.715 291.96 438.93 292.044C439.154 292.128 439.364 292.263 439.56 292.45C439.756 292.627 439.919 292.861 440.05 293.15C440.19 293.43 440.26 293.771 440.26 294.172C440.26 294.573 440.195 294.947 440.064 295.292C439.943 295.637 439.77 295.936 439.546 296.188C439.322 296.44 439.056 296.641 438.748 296.79C438.44 296.93 438.104 297 437.74 297H433.302V287.228ZM434.478 295.964H437.376C437.88 295.964 438.277 295.838 438.566 295.586C438.855 295.325 439 294.947 439 294.452V293.976C439 293.481 438.855 293.108 438.566 292.856C438.277 292.595 437.88 292.464 437.376 292.464H434.478V295.964ZM434.478 291.456H437.18C437.647 291.456 438.011 291.339 438.272 291.106C438.533 290.873 438.664 290.537 438.664 290.098V289.622C438.664 289.183 438.533 288.847 438.272 288.614C438.011 288.381 437.647 288.264 437.18 288.264H434.478V291.456ZM447.586 297C447.166 297 446.863 296.888 446.676 296.664C446.499 296.44 446.387 296.16 446.34 295.824H446.27C446.112 296.272 445.85 296.608 445.486 296.832C445.122 297.056 444.688 297.168 444.184 297.168C443.419 297.168 442.822 296.972 442.392 296.58C441.972 296.188 441.762 295.656 441.762 294.984C441.762 294.303 442.01 293.78 442.504 293.416C443.008 293.052 443.788 292.87 444.842 292.87H446.27V292.156C446.27 291.643 446.13 291.251 445.85 290.98C445.57 290.709 445.141 290.574 444.562 290.574C444.124 290.574 443.755 290.672 443.456 290.868C443.167 291.064 442.924 291.325 442.728 291.652L442.056 291.022C442.252 290.63 442.565 290.299 442.994 290.028C443.424 289.748 443.965 289.608 444.618 289.608C445.496 289.608 446.177 289.823 446.662 290.252C447.148 290.681 447.39 291.279 447.39 292.044V296.02H448.216V297H447.586ZM444.366 296.216C444.646 296.216 444.903 296.183 445.136 296.118C445.37 296.053 445.57 295.959 445.738 295.838C445.906 295.717 446.037 295.577 446.13 295.418C446.224 295.259 446.27 295.087 446.27 294.9V293.71H444.786C444.142 293.71 443.671 293.803 443.372 293.99C443.083 294.177 442.938 294.447 442.938 294.802V295.096C442.938 295.451 443.064 295.726 443.316 295.922C443.578 296.118 443.928 296.216 444.366 296.216ZM449.815 289.776H450.935V296.02H453.651V289.776H454.771V296.02H457.487V289.776H458.607V297H449.815V289.776ZM463.701 297.168C463.206 297.168 462.758 297.079 462.357 296.902C461.965 296.725 461.624 296.473 461.335 296.146C461.055 295.81 460.836 295.413 460.677 294.956C460.528 294.489 460.453 293.967 460.453 293.388C460.453 292.819 460.528 292.301 460.677 291.834C460.836 291.367 461.055 290.971 461.335 290.644C461.624 290.308 461.965 290.051 462.357 289.874C462.758 289.697 463.206 289.608 463.701 289.608C464.186 289.608 464.62 289.697 465.003 289.874C465.386 290.051 465.712 290.299 465.983 290.616C466.254 290.924 466.459 291.293 466.599 291.722C466.748 292.151 466.823 292.623 466.823 293.136V293.668H461.629V294.004C461.629 294.312 461.676 294.601 461.769 294.872C461.872 295.133 462.012 295.362 462.189 295.558C462.376 295.754 462.6 295.908 462.861 296.02C463.132 296.132 463.435 296.188 463.771 296.188C464.228 296.188 464.625 296.081 464.961 295.866C465.306 295.651 465.572 295.343 465.759 294.942L466.557 295.516C466.324 296.011 465.96 296.412 465.465 296.72C464.97 297.019 464.382 297.168 463.701 297.168ZM463.701 290.546C463.393 290.546 463.113 290.602 462.861 290.714C462.609 290.817 462.39 290.966 462.203 291.162C462.026 291.358 461.886 291.591 461.783 291.862C461.68 292.123 461.629 292.413 461.629 292.73V292.828H465.619V292.674C465.619 292.03 465.442 291.517 465.087 291.134C464.742 290.742 464.28 290.546 463.701 290.546ZM474.665 297.168C474.161 297.168 473.708 297.079 473.307 296.902C472.906 296.725 472.565 296.473 472.285 296.146C472.014 295.819 471.804 295.423 471.655 294.956C471.515 294.489 471.445 293.967 471.445 293.388C471.445 292.809 471.515 292.287 471.655 291.82C471.804 291.353 472.014 290.957 472.285 290.63C472.565 290.303 472.906 290.051 473.307 289.874C473.708 289.697 474.161 289.608 474.665 289.608C475.384 289.608 475.958 289.767 476.387 290.084C476.826 290.392 477.152 290.798 477.367 291.302L476.429 291.778C476.298 291.405 476.084 291.115 475.785 290.91C475.486 290.705 475.113 290.602 474.665 290.602C474.329 290.602 474.035 290.658 473.783 290.77C473.531 290.873 473.321 291.022 473.153 291.218C472.985 291.405 472.859 291.633 472.775 291.904C472.691 292.165 472.649 292.455 472.649 292.772V294.004C472.649 294.639 472.817 295.161 473.153 295.572C473.498 295.973 474.002 296.174 474.665 296.174C475.57 296.174 476.224 295.754 476.625 294.914L477.437 295.46C477.204 295.983 476.854 296.398 476.387 296.706C475.93 297.014 475.356 297.168 474.665 297.168ZM481.666 297.168C481.181 297.168 480.737 297.079 480.336 296.902C479.935 296.725 479.589 296.473 479.3 296.146C479.02 295.81 478.801 295.413 478.642 294.956C478.483 294.489 478.404 293.967 478.404 293.388C478.404 292.819 478.483 292.301 478.642 291.834C478.801 291.367 479.02 290.971 479.3 290.644C479.589 290.308 479.935 290.051 480.336 289.874C480.737 289.697 481.181 289.608 481.666 289.608C482.151 289.608 482.59 289.697 482.982 289.874C483.383 290.051 483.729 290.308 484.018 290.644C484.307 290.971 484.531 291.367 484.69 291.834C484.849 292.301 484.928 292.819 484.928 293.388C484.928 293.967 484.849 294.489 484.69 294.956C484.531 295.413 484.307 295.81 484.018 296.146C483.729 296.473 483.383 296.725 482.982 296.902C482.59 297.079 482.151 297.168 481.666 297.168ZM481.666 296.174C482.273 296.174 482.767 295.987 483.15 295.614C483.533 295.241 483.724 294.671 483.724 293.906V292.87C483.724 292.105 483.533 291.535 483.15 291.162C482.767 290.789 482.273 290.602 481.666 290.602C481.059 290.602 480.565 290.789 480.182 291.162C479.799 291.535 479.608 292.105 479.608 292.87V293.906C479.608 294.671 479.799 295.241 480.182 295.614C480.565 295.987 481.059 296.174 481.666 296.174ZM489.5 297.168C489.015 297.168 488.571 297.079 488.17 296.902C487.769 296.725 487.423 296.473 487.134 296.146C486.854 295.81 486.635 295.413 486.476 294.956C486.317 294.489 486.238 293.967 486.238 293.388C486.238 292.819 486.317 292.301 486.476 291.834C486.635 291.367 486.854 290.971 487.134 290.644C487.423 290.308 487.769 290.051 488.17 289.874C488.571 289.697 489.015 289.608 489.5 289.608C489.985 289.608 490.424 289.697 490.816 289.874C491.217 290.051 491.563 290.308 491.852 290.644C492.141 290.971 492.365 291.367 492.524 291.834C492.683 292.301 492.762 292.819 492.762 293.388C492.762 293.967 492.683 294.489 492.524 294.956C492.365 295.413 492.141 295.81 491.852 296.146C491.563 296.473 491.217 296.725 490.816 296.902C490.424 297.079 489.985 297.168 489.5 297.168ZM489.5 296.174C490.107 296.174 490.601 295.987 490.984 295.614C491.367 295.241 491.558 294.671 491.558 293.906V292.87C491.558 292.105 491.367 291.535 490.984 291.162C490.601 290.789 490.107 290.602 489.5 290.602C488.893 290.602 488.399 290.789 488.016 291.162C487.633 291.535 487.442 292.105 487.442 292.87V293.906C487.442 294.671 487.633 295.241 488.016 295.614C488.399 295.987 488.893 296.174 489.5 296.174ZM497.458 297.168C496.954 297.168 496.502 297.084 496.1 296.916C495.699 296.748 495.358 296.487 495.078 296.132C494.798 295.777 494.579 295.32 494.42 294.76C494.271 294.191 494.196 293.505 494.196 292.702C494.196 291.666 494.262 290.779 494.392 290.042C494.532 289.305 494.752 288.698 495.05 288.222C495.349 287.746 495.727 287.391 496.184 287.158C496.651 286.915 497.216 286.766 497.878 286.71L500.146 286.528V287.662L497.738 287.858C497.328 287.895 496.982 287.975 496.702 288.096C496.422 288.217 496.189 288.409 496.002 288.67C495.825 288.922 495.685 289.258 495.582 289.678C495.489 290.098 495.419 290.621 495.372 291.246H495.428C495.643 290.751 495.918 290.383 496.254 290.14C496.6 289.897 497.052 289.776 497.612 289.776C498.07 289.776 498.49 289.86 498.872 290.028C499.255 290.196 499.582 290.439 499.852 290.756C500.123 291.064 500.333 291.451 500.482 291.918C500.641 292.375 500.72 292.898 500.72 293.486C500.72 294.037 500.641 294.536 500.482 294.984C500.324 295.432 500.1 295.819 499.81 296.146C499.521 296.473 499.176 296.725 498.774 296.902C498.382 297.079 497.944 297.168 497.458 297.168ZM497.514 296.174C497.804 296.174 498.07 296.127 498.312 296.034C498.555 295.941 498.765 295.801 498.942 295.614C499.12 295.427 499.26 295.199 499.362 294.928C499.465 294.657 499.516 294.34 499.516 293.976V293.094C499.516 292.31 499.325 291.727 498.942 291.344C498.56 290.961 498.046 290.77 497.402 290.77C496.73 290.77 496.226 290.938 495.89 291.274C495.564 291.601 495.4 292.03 495.4 292.562V293.85C495.4 294.634 495.592 295.217 495.974 295.6C496.357 295.983 496.87 296.174 497.514 296.174ZM511.549 297H502.575V289.776H503.695V296.02H506.411V289.776H507.531V296.02H510.247V289.776H511.367V296.02H512.571V298.96H511.549V297ZM516.844 297.168C516.349 297.168 515.901 297.079 515.5 296.902C515.108 296.725 514.767 296.473 514.478 296.146C514.198 295.81 513.978 295.413 513.82 294.956C513.67 294.489 513.596 293.967 513.596 293.388C513.596 292.819 513.67 292.301 513.82 291.834C513.978 291.367 514.198 290.971 514.478 290.644C514.767 290.308 515.108 290.051 515.5 289.874C515.901 289.697 516.349 289.608 516.844 289.608C517.329 289.608 517.763 289.697 518.146 289.874C518.528 290.051 518.855 290.299 519.126 290.616C519.396 290.924 519.602 291.293 519.742 291.722C519.891 292.151 519.966 292.623 519.966 293.136V293.668H514.772V294.004C514.772 294.312 514.818 294.601 514.912 294.872C515.014 295.133 515.154 295.362 515.332 295.558C515.518 295.754 515.742 295.908 516.004 296.02C516.274 296.132 516.578 296.188 516.914 296.188C517.371 296.188 517.768 296.081 518.104 295.866C518.449 295.651 518.715 295.343 518.902 294.942L519.7 295.516C519.466 296.011 519.102 296.412 518.608 296.72C518.113 297.019 517.525 297.168 516.844 297.168ZM516.844 290.546C516.536 290.546 516.256 290.602 516.004 290.714C515.752 290.817 515.532 290.966 515.346 291.162C515.168 291.358 515.028 291.591 514.926 291.862C514.823 292.123 514.772 292.413 514.772 292.73V292.828H518.762V292.674C518.762 292.03 518.584 291.517 518.23 291.134C517.884 290.742 517.422 290.546 516.844 290.546ZM521.811 289.776H522.931V292.786H526.543V289.776H527.663V297H526.543V293.766H522.931V297H521.811V289.776ZM530.042 289.776H531.134V293.78L531.022 295.516H531.078L531.974 293.976L534.858 289.776H535.894V297H534.802V292.996L534.914 291.26H534.858L533.962 292.8L531.078 297H530.042V289.776ZM540.988 297.168C540.493 297.168 540.045 297.079 539.644 296.902C539.252 296.725 538.911 296.473 538.622 296.146C538.342 295.81 538.123 295.413 537.964 294.956C537.815 294.489 537.74 293.967 537.74 293.388C537.74 292.819 537.815 292.301 537.964 291.834C538.123 291.367 538.342 290.971 538.622 290.644C538.911 290.308 539.252 290.051 539.644 289.874C540.045 289.697 540.493 289.608 540.988 289.608C541.473 289.608 541.907 289.697 542.29 289.874C542.673 290.051 542.999 290.299 543.27 290.616C543.541 290.924 543.746 291.293 543.886 291.722C544.035 292.151 544.11 292.623 544.11 293.136V293.668H538.916V294.004C538.916 294.312 538.963 294.601 539.056 294.872C539.159 295.133 539.299 295.362 539.476 295.558C539.663 295.754 539.887 295.908 540.148 296.02C540.419 296.132 540.722 296.188 541.058 296.188C541.515 296.188 541.912 296.081 542.248 295.866C542.593 295.651 542.859 295.343 543.046 294.942L543.844 295.516C543.611 296.011 543.247 296.412 542.752 296.72C542.257 297.019 541.669 297.168 540.988 297.168ZM540.988 290.546C540.68 290.546 540.4 290.602 540.148 290.714C539.896 290.817 539.677 290.966 539.49 291.162C539.313 291.358 539.173 291.591 539.07 291.862C538.967 292.123 538.916 292.413 538.916 292.73V292.828H542.906V292.674C542.906 292.03 542.729 291.517 542.374 291.134C542.029 290.742 541.567 290.546 540.988 290.546Z" fill="#1A1E29"/>
<path d="M416 418C416 416.895 416.895 416 418 416H806C807.105 416 808 416.895 808 418V454C808 455.105 807.105 456 806 456H418C416.895 456 416 455.105 416 454V418Z" fill="#FF7E00"/>
<path d="M541.984 441.168C541.349 441.168 540.771 441.061 540.248 440.846C539.735 440.622 539.291 440.3 538.918 439.88C538.554 439.451 538.269 438.923 538.064 438.298C537.868 437.663 537.77 436.935 537.77 436.114C537.77 435.293 537.868 434.569 538.064 433.944C538.269 433.309 538.554 432.782 538.918 432.362C539.291 431.933 539.735 431.611 540.248 431.396C540.771 431.172 541.349 431.06 541.984 431.06C542.619 431.06 543.193 431.172 543.706 431.396C544.229 431.611 544.672 431.933 545.036 432.362C545.409 432.782 545.694 433.309 545.89 433.944C546.095 434.569 546.198 435.293 546.198 436.114C546.198 436.935 546.095 437.663 545.89 438.298C545.694 438.923 545.409 439.451 545.036 439.88C544.672 440.3 544.229 440.622 543.706 440.846C543.193 441.061 542.619 441.168 541.984 441.168ZM541.984 439.754C542.357 439.754 542.698 439.689 543.006 439.558C543.323 439.427 543.589 439.241 543.804 438.998C544.028 438.746 544.201 438.443 544.322 438.088C544.443 437.733 544.504 437.332 544.504 436.884V435.344C544.504 434.896 544.443 434.495 544.322 434.14C544.201 433.785 544.028 433.487 543.804 433.244C543.589 432.992 543.323 432.801 543.006 432.67C542.698 432.539 542.357 432.474 541.984 432.474C541.601 432.474 541.256 432.539 540.948 432.67C540.64 432.801 540.374 432.992 540.15 433.244C539.935 433.487 539.767 433.785 539.646 434.14C539.525 434.495 539.464 434.896 539.464 435.344V436.884C539.464 437.332 539.525 437.733 539.646 438.088C539.767 438.443 539.935 438.746 540.15 438.998C540.374 439.241 540.64 439.427 540.948 439.558C541.256 439.689 541.601 439.754 541.984 439.754ZM549.571 434.966H547.247V433.72H553.421V434.966H551.097V441H549.571V434.966ZM554.799 433.72H560.777V441H559.251V434.966H556.325V441H554.799V433.72ZM562.961 433.72H564.487V434.924H564.557C564.716 434.485 564.972 434.149 565.327 433.916C565.691 433.673 566.116 433.552 566.601 433.552C567.525 433.552 568.239 433.888 568.743 434.56C569.247 435.223 569.499 436.156 569.499 437.36C569.499 438.564 569.247 439.502 568.743 440.174C568.239 440.837 567.525 441.168 566.601 441.168C566.116 441.168 565.691 441.047 565.327 440.804C564.972 440.561 564.716 440.225 564.557 439.796H564.487V443.8H562.961V433.72ZM566.139 439.852C566.671 439.852 567.096 439.684 567.413 439.348C567.73 439.003 567.889 438.55 567.889 437.99V436.73C567.889 436.17 567.73 435.722 567.413 435.386C567.096 435.041 566.671 434.868 566.139 434.868C565.672 434.868 565.28 434.985 564.963 435.218C564.646 435.442 564.487 435.741 564.487 436.114V438.606C564.487 438.979 564.646 439.283 564.963 439.516C565.28 439.74 565.672 439.852 566.139 439.852ZM576.58 441C576.179 441 575.871 440.888 575.656 440.664C575.442 440.431 575.311 440.137 575.264 439.782H575.194C575.054 440.239 574.798 440.585 574.424 440.818C574.051 441.051 573.598 441.168 573.066 441.168C572.31 441.168 571.727 440.972 571.316 440.58C570.915 440.188 570.714 439.661 570.714 438.998C570.714 438.27 570.976 437.724 571.498 437.36C572.03 436.996 572.805 436.814 573.822 436.814H575.138V436.198C575.138 435.75 575.017 435.405 574.774 435.162C574.532 434.919 574.154 434.798 573.64 434.798C573.211 434.798 572.861 434.891 572.59 435.078C572.32 435.265 572.091 435.503 571.904 435.792L570.994 434.966C571.237 434.555 571.578 434.219 572.016 433.958C572.455 433.687 573.029 433.552 573.738 433.552C574.681 433.552 575.404 433.771 575.908 434.21C576.412 434.649 576.664 435.279 576.664 436.1V439.754H577.434V441H576.58ZM573.5 440.006C573.976 440.006 574.368 439.903 574.676 439.698C574.984 439.483 575.138 439.199 575.138 438.844V437.794H573.85C572.796 437.794 572.268 438.121 572.268 438.774V439.026C572.268 439.353 572.376 439.6 572.59 439.768C572.814 439.927 573.118 440.006 573.5 440.006ZM578.93 433.72H582.808C583.433 433.72 583.914 433.888 584.25 434.224C584.595 434.56 584.768 435.008 584.768 435.568C584.768 436.483 584.278 437.001 583.298 437.122V437.192C583.886 437.239 584.32 437.411 584.6 437.71C584.889 437.999 585.034 438.382 585.034 438.858C585.034 439.166 584.983 439.451 584.88 439.712C584.787 439.973 584.647 440.202 584.46 440.398C584.283 440.585 584.063 440.734 583.802 440.846C583.541 440.949 583.247 441 582.92 441H578.93V433.72ZM582.57 439.838C582.841 439.838 583.055 439.768 583.214 439.628C583.373 439.488 583.452 439.283 583.452 439.012V438.634C583.452 438.363 583.373 438.158 583.214 438.018C583.055 437.869 582.841 437.794 582.57 437.794H580.428V439.838H582.57ZM582.374 436.744C582.635 436.744 582.836 436.679 582.976 436.548C583.116 436.417 583.186 436.231 583.186 435.988V435.638C583.186 435.395 583.116 435.209 582.976 435.078C582.836 434.947 582.635 434.882 582.374 434.882H580.428V436.744H582.374ZM586.86 433.72H588.358V437.276L588.218 438.998H588.274L589.142 437.444L591.662 433.72H593.048V441H591.55V437.444L591.69 435.722H591.634L590.766 437.276L588.246 441H586.86V433.72ZM596.739 434.966H594.415V433.72H600.589V434.966H598.265V441H596.739V434.966ZM601.967 433.72H603.493V436.156H605.495C606.223 436.156 606.811 436.371 607.259 436.8C607.716 437.22 607.945 437.813 607.945 438.578C607.945 439.353 607.721 439.95 607.273 440.37C606.825 440.79 606.237 441 605.509 441H601.967V433.72ZM605.215 439.81C605.57 439.81 605.85 439.735 606.055 439.586C606.26 439.427 606.363 439.185 606.363 438.858V438.284C606.363 437.957 606.26 437.719 606.055 437.57C605.85 437.421 605.57 437.346 605.215 437.346H603.493V439.81H605.215ZM615.623 441.168C615.1 441.168 614.633 441.079 614.223 440.902C613.812 440.725 613.467 440.473 613.187 440.146C612.907 439.81 612.692 439.409 612.543 438.942C612.393 438.466 612.319 437.939 612.319 437.36C612.319 436.781 612.393 436.259 612.543 435.792C612.692 435.316 612.907 434.915 613.187 434.588C613.467 434.252 613.812 433.995 614.223 433.818C614.633 433.641 615.1 433.552 615.623 433.552C616.351 433.552 616.948 433.715 617.415 434.042C617.881 434.369 618.222 434.803 618.437 435.344L617.177 435.932C617.074 435.596 616.892 435.33 616.631 435.134C616.379 434.929 616.043 434.826 615.623 434.826C615.063 434.826 614.638 435.003 614.349 435.358C614.069 435.703 613.929 436.156 613.929 436.716V438.018C613.929 438.578 614.069 439.035 614.349 439.39C614.638 439.735 615.063 439.908 615.623 439.908C616.071 439.908 616.425 439.801 616.687 439.586C616.957 439.362 617.172 439.068 617.331 438.704L618.493 439.32C618.25 439.917 617.886 440.375 617.401 440.692C616.915 441.009 616.323 441.168 615.623 441.168ZM622.719 441.168C622.215 441.168 621.753 441.079 621.333 440.902C620.923 440.725 620.573 440.473 620.283 440.146C619.994 439.81 619.77 439.409 619.611 438.942C619.453 438.466 619.373 437.939 619.373 437.36C619.373 436.781 619.453 436.259 619.611 435.792C619.77 435.316 619.994 434.915 620.283 434.588C620.573 434.252 620.923 433.995 621.333 433.818C621.753 433.641 622.215 433.552 622.719 433.552C623.223 433.552 623.681 433.641 624.091 433.818C624.511 433.995 624.866 434.252 625.155 434.588C625.445 434.915 625.669 435.316 625.827 435.792C625.986 436.259 626.065 436.781 626.065 437.36C626.065 437.939 625.986 438.466 625.827 438.942C625.669 439.409 625.445 439.81 625.155 440.146C624.866 440.473 624.511 440.725 624.091 440.902C623.681 441.079 623.223 441.168 622.719 441.168ZM622.719 439.908C623.242 439.908 623.662 439.749 623.979 439.432C624.297 439.105 624.455 438.62 624.455 437.976V436.744C624.455 436.1 624.297 435.619 623.979 435.302C623.662 434.975 623.242 434.812 622.719 434.812C622.197 434.812 621.777 434.975 621.459 435.302C621.142 435.619 620.983 436.1 620.983 436.744V437.976C620.983 438.62 621.142 439.105 621.459 439.432C621.777 439.749 622.197 439.908 622.719 439.908ZM630.622 441.168C630.118 441.168 629.656 441.079 629.236 440.902C628.825 440.725 628.475 440.473 628.186 440.146C627.896 439.81 627.672 439.409 627.514 438.942C627.355 438.466 627.276 437.939 627.276 437.36C627.276 436.781 627.355 436.259 627.514 435.792C627.672 435.316 627.896 434.915 628.186 434.588C628.475 434.252 628.825 433.995 629.236 433.818C629.656 433.641 630.118 433.552 630.622 433.552C631.126 433.552 631.583 433.641 631.994 433.818C632.414 433.995 632.768 434.252 633.058 434.588C633.347 434.915 633.571 435.316 633.73 435.792C633.888 436.259 633.968 436.781 633.968 437.36C633.968 437.939 633.888 438.466 633.73 438.942C633.571 439.409 633.347 439.81 633.058 440.146C632.768 440.473 632.414 440.725 631.994 440.902C631.583 441.079 631.126 441.168 630.622 441.168ZM630.622 439.908C631.144 439.908 631.564 439.749 631.882 439.432C632.199 439.105 632.358 438.62 632.358 437.976V436.744C632.358 436.1 632.199 435.619 631.882 435.302C631.564 434.975 631.144 434.812 630.622 434.812C630.099 434.812 629.679 434.975 629.362 435.302C629.044 435.619 628.886 436.1 628.886 436.744V437.976C628.886 438.62 629.044 439.105 629.362 439.432C629.679 439.749 630.099 439.908 630.622 439.908ZM638.621 441.168C638.099 441.168 637.632 441.084 637.221 440.916C636.811 440.739 636.461 440.463 636.171 440.09C635.882 439.717 635.658 439.245 635.499 438.676C635.35 438.097 635.275 437.402 635.275 436.59C635.275 435.601 635.345 434.751 635.485 434.042C635.635 433.323 635.863 432.731 636.171 432.264C636.489 431.788 636.885 431.424 637.361 431.172C637.847 430.92 638.425 430.766 639.097 430.71L641.421 430.5V431.998L639.013 432.222C638.631 432.259 638.309 432.334 638.047 432.446C637.795 432.558 637.585 432.731 637.417 432.964C637.259 433.188 637.137 433.491 637.053 433.874C636.969 434.247 636.909 434.714 636.871 435.274H636.941C637.128 434.789 637.38 434.425 637.697 434.182C638.024 433.939 638.463 433.818 639.013 433.818C639.443 433.818 639.835 433.902 640.189 434.07C640.553 434.229 640.866 434.462 641.127 434.77C641.389 435.078 641.589 435.456 641.729 435.904C641.879 436.343 641.953 436.847 641.953 437.416C641.953 437.985 641.874 438.503 641.715 438.97C641.557 439.427 641.333 439.819 641.043 440.146C640.754 440.473 640.404 440.725 639.993 440.902C639.583 441.079 639.125 441.168 638.621 441.168ZM638.621 439.908C639.153 439.908 639.573 439.745 639.881 439.418C640.189 439.082 640.343 438.592 640.343 437.948V437.038C640.343 436.394 640.189 435.909 639.881 435.582C639.573 435.246 639.153 435.078 638.621 435.078C638.061 435.078 637.632 435.227 637.333 435.526C637.044 435.825 636.899 436.226 636.899 436.73V437.948C636.899 438.592 637.053 439.082 637.361 439.418C637.669 439.745 638.089 439.908 638.621 439.908ZM652.753 441H643.653V433.72H645.179V439.754H647.517V433.72H649.043V439.754H651.381V433.72H652.907V439.754H654.139V442.96H652.753V441ZM658.376 441.168C657.853 441.168 657.386 441.079 656.976 440.902C656.565 440.725 656.215 440.473 655.926 440.146C655.636 439.81 655.412 439.409 655.254 438.942C655.104 438.466 655.03 437.939 655.03 437.36C655.03 436.781 655.104 436.259 655.254 435.792C655.412 435.316 655.636 434.915 655.926 434.588C656.215 434.252 656.565 433.995 656.976 433.818C657.386 433.641 657.853 433.552 658.376 433.552C658.908 433.552 659.374 433.645 659.776 433.832C660.186 434.019 660.527 434.28 660.798 434.616C661.068 434.943 661.269 435.325 661.4 435.764C661.54 436.203 661.61 436.674 661.61 437.178V437.752H656.612V437.99C656.612 438.55 656.775 439.012 657.102 439.376C657.438 439.731 657.914 439.908 658.53 439.908C658.978 439.908 659.356 439.81 659.664 439.614C659.972 439.418 660.233 439.152 660.448 438.816L661.344 439.698C661.073 440.146 660.681 440.505 660.168 440.776C659.654 441.037 659.057 441.168 658.376 441.168ZM658.376 434.742C658.114 434.742 657.872 434.789 657.648 434.882C657.433 434.975 657.246 435.106 657.088 435.274C656.938 435.442 656.822 435.643 656.738 435.876C656.654 436.109 656.612 436.366 656.612 436.646V436.744H660V436.604C660 436.044 659.855 435.596 659.566 435.26C659.276 434.915 658.88 434.742 658.376 434.742ZM663.299 433.72H664.825V436.646H667.961V433.72H669.487V441H667.961V437.892H664.825V441H663.299V433.72ZM671.666 433.72H673.164V437.276L673.024 438.998H673.08L673.948 437.444L676.468 433.72H677.854V441H676.356V437.444L676.496 435.722H676.44L675.572 437.276L673.052 441H671.666V433.72ZM682.889 441.168C682.367 441.168 681.9 441.079 681.489 440.902C681.079 440.725 680.729 440.473 680.439 440.146C680.15 439.81 679.926 439.409 679.767 438.942C679.618 438.466 679.543 437.939 679.543 437.36C679.543 436.781 679.618 436.259 679.767 435.792C679.926 435.316 680.15 434.915 680.439 434.588C680.729 434.252 681.079 433.995 681.489 433.818C681.9 433.641 682.367 433.552 682.889 433.552C683.421 433.552 683.888 433.645 684.289 433.832C684.7 434.019 685.041 434.28 685.311 434.616C685.582 434.943 685.783 435.325 685.913 435.764C686.053 436.203 686.123 436.674 686.123 437.178V437.752H681.125V437.99C681.125 438.55 681.289 439.012 681.615 439.376C681.951 439.731 682.427 439.908 683.043 439.908C683.491 439.908 683.869 439.81 684.177 439.614C684.485 439.418 684.747 439.152 684.961 438.816L685.857 439.698C685.587 440.146 685.195 440.505 684.681 440.776C684.168 441.037 683.571 441.168 682.889 441.168ZM682.889 434.742C682.628 434.742 682.385 434.789 682.161 434.882C681.947 434.975 681.76 435.106 681.601 435.274C681.452 435.442 681.335 435.643 681.251 435.876C681.167 436.109 681.125 436.366 681.125 436.646V436.744H684.513V436.604C684.513 436.044 684.369 435.596 684.079 435.26C683.79 434.915 683.393 434.742 682.889 434.742Z" fill="white"/>
<defs>
<clipPath id="clip0_104_19634">
<rect width="120" height="120" fill="white" transform="matrix(-1 0 0 1 1112 304)"/>
</clipPath>
</defs>
</svg>
